G75*
%MOIN*%
%OFA0B0*%
%FSLAX25Y25*%
%IPPOS*%
%LPD*%
%AMOC8*
5,1,8,0,0,1.08239X$1,22.5*
%
%ADD10C,0.00000*%
D10*
X0022200Y0079506D02*
X0022200Y0314467D01*
X0384901Y0314467D01*
X0384901Y0079506D01*
X0022200Y0079506D01*
X0046263Y0113506D02*
X0046265Y0113631D01*
X0046271Y0113756D01*
X0046281Y0113880D01*
X0046295Y0114004D01*
X0046312Y0114128D01*
X0046334Y0114251D01*
X0046360Y0114373D01*
X0046389Y0114495D01*
X0046422Y0114615D01*
X0046460Y0114734D01*
X0046500Y0114853D01*
X0046545Y0114969D01*
X0046593Y0115084D01*
X0046645Y0115198D01*
X0046701Y0115310D01*
X0046760Y0115420D01*
X0046822Y0115528D01*
X0046888Y0115635D01*
X0046957Y0115739D01*
X0047030Y0115840D01*
X0047105Y0115940D01*
X0047184Y0116037D01*
X0047266Y0116131D01*
X0047351Y0116223D01*
X0047438Y0116312D01*
X0047529Y0116398D01*
X0047622Y0116481D01*
X0047718Y0116562D01*
X0047816Y0116639D01*
X0047916Y0116713D01*
X0048019Y0116784D01*
X0048124Y0116851D01*
X0048232Y0116916D01*
X0048341Y0116976D01*
X0048452Y0117034D01*
X0048565Y0117087D01*
X0048679Y0117137D01*
X0048795Y0117184D01*
X0048912Y0117226D01*
X0049031Y0117265D01*
X0049151Y0117301D01*
X0049272Y0117332D01*
X0049394Y0117360D01*
X0049516Y0117383D01*
X0049640Y0117403D01*
X0049764Y0117419D01*
X0049888Y0117431D01*
X0050013Y0117439D01*
X0050138Y0117443D01*
X0050262Y0117443D01*
X0050387Y0117439D01*
X0050512Y0117431D01*
X0050636Y0117419D01*
X0050760Y0117403D01*
X0050884Y0117383D01*
X0051006Y0117360D01*
X0051128Y0117332D01*
X0051249Y0117301D01*
X0051369Y0117265D01*
X0051488Y0117226D01*
X0051605Y0117184D01*
X0051721Y0117137D01*
X0051835Y0117087D01*
X0051948Y0117034D01*
X0052059Y0116976D01*
X0052169Y0116916D01*
X0052276Y0116851D01*
X0052381Y0116784D01*
X0052484Y0116713D01*
X0052584Y0116639D01*
X0052682Y0116562D01*
X0052778Y0116481D01*
X0052871Y0116398D01*
X0052962Y0116312D01*
X0053049Y0116223D01*
X0053134Y0116131D01*
X0053216Y0116037D01*
X0053295Y0115940D01*
X0053370Y0115840D01*
X0053443Y0115739D01*
X0053512Y0115635D01*
X0053578Y0115528D01*
X0053640Y0115420D01*
X0053699Y0115310D01*
X0053755Y0115198D01*
X0053807Y0115084D01*
X0053855Y0114969D01*
X0053900Y0114853D01*
X0053940Y0114734D01*
X0053978Y0114615D01*
X0054011Y0114495D01*
X0054040Y0114373D01*
X0054066Y0114251D01*
X0054088Y0114128D01*
X0054105Y0114004D01*
X0054119Y0113880D01*
X0054129Y0113756D01*
X0054135Y0113631D01*
X0054137Y0113506D01*
X0054135Y0113381D01*
X0054129Y0113256D01*
X0054119Y0113132D01*
X0054105Y0113008D01*
X0054088Y0112884D01*
X0054066Y0112761D01*
X0054040Y0112639D01*
X0054011Y0112517D01*
X0053978Y0112397D01*
X0053940Y0112278D01*
X0053900Y0112159D01*
X0053855Y0112043D01*
X0053807Y0111928D01*
X0053755Y0111814D01*
X0053699Y0111702D01*
X0053640Y0111592D01*
X0053578Y0111484D01*
X0053512Y0111377D01*
X0053443Y0111273D01*
X0053370Y0111172D01*
X0053295Y0111072D01*
X0053216Y0110975D01*
X0053134Y0110881D01*
X0053049Y0110789D01*
X0052962Y0110700D01*
X0052871Y0110614D01*
X0052778Y0110531D01*
X0052682Y0110450D01*
X0052584Y0110373D01*
X0052484Y0110299D01*
X0052381Y0110228D01*
X0052276Y0110161D01*
X0052168Y0110096D01*
X0052059Y0110036D01*
X0051948Y0109978D01*
X0051835Y0109925D01*
X0051721Y0109875D01*
X0051605Y0109828D01*
X0051488Y0109786D01*
X0051369Y0109747D01*
X0051249Y0109711D01*
X0051128Y0109680D01*
X0051006Y0109652D01*
X0050884Y0109629D01*
X0050760Y0109609D01*
X0050636Y0109593D01*
X0050512Y0109581D01*
X0050387Y0109573D01*
X0050262Y0109569D01*
X0050138Y0109569D01*
X0050013Y0109573D01*
X0049888Y0109581D01*
X0049764Y0109593D01*
X0049640Y0109609D01*
X0049516Y0109629D01*
X0049394Y0109652D01*
X0049272Y0109680D01*
X0049151Y0109711D01*
X0049031Y0109747D01*
X0048912Y0109786D01*
X0048795Y0109828D01*
X0048679Y0109875D01*
X0048565Y0109925D01*
X0048452Y0109978D01*
X0048341Y0110036D01*
X0048231Y0110096D01*
X0048124Y0110161D01*
X0048019Y0110228D01*
X0047916Y0110299D01*
X0047816Y0110373D01*
X0047718Y0110450D01*
X0047622Y0110531D01*
X0047529Y0110614D01*
X0047438Y0110700D01*
X0047351Y0110789D01*
X0047266Y0110881D01*
X0047184Y0110975D01*
X0047105Y0111072D01*
X0047030Y0111172D01*
X0046957Y0111273D01*
X0046888Y0111377D01*
X0046822Y0111484D01*
X0046760Y0111592D01*
X0046701Y0111702D01*
X0046645Y0111814D01*
X0046593Y0111928D01*
X0046545Y0112043D01*
X0046500Y0112159D01*
X0046460Y0112278D01*
X0046422Y0112397D01*
X0046389Y0112517D01*
X0046360Y0112639D01*
X0046334Y0112761D01*
X0046312Y0112884D01*
X0046295Y0113008D01*
X0046281Y0113132D01*
X0046271Y0113256D01*
X0046265Y0113381D01*
X0046263Y0113506D01*
X0086263Y0113506D02*
X0086265Y0113631D01*
X0086271Y0113756D01*
X0086281Y0113880D01*
X0086295Y0114004D01*
X0086312Y0114128D01*
X0086334Y0114251D01*
X0086360Y0114373D01*
X0086389Y0114495D01*
X0086422Y0114615D01*
X0086460Y0114734D01*
X0086500Y0114853D01*
X0086545Y0114969D01*
X0086593Y0115084D01*
X0086645Y0115198D01*
X0086701Y0115310D01*
X0086760Y0115420D01*
X0086822Y0115528D01*
X0086888Y0115635D01*
X0086957Y0115739D01*
X0087030Y0115840D01*
X0087105Y0115940D01*
X0087184Y0116037D01*
X0087266Y0116131D01*
X0087351Y0116223D01*
X0087438Y0116312D01*
X0087529Y0116398D01*
X0087622Y0116481D01*
X0087718Y0116562D01*
X0087816Y0116639D01*
X0087916Y0116713D01*
X0088019Y0116784D01*
X0088124Y0116851D01*
X0088232Y0116916D01*
X0088341Y0116976D01*
X0088452Y0117034D01*
X0088565Y0117087D01*
X0088679Y0117137D01*
X0088795Y0117184D01*
X0088912Y0117226D01*
X0089031Y0117265D01*
X0089151Y0117301D01*
X0089272Y0117332D01*
X0089394Y0117360D01*
X0089516Y0117383D01*
X0089640Y0117403D01*
X0089764Y0117419D01*
X0089888Y0117431D01*
X0090013Y0117439D01*
X0090138Y0117443D01*
X0090262Y0117443D01*
X0090387Y0117439D01*
X0090512Y0117431D01*
X0090636Y0117419D01*
X0090760Y0117403D01*
X0090884Y0117383D01*
X0091006Y0117360D01*
X0091128Y0117332D01*
X0091249Y0117301D01*
X0091369Y0117265D01*
X0091488Y0117226D01*
X0091605Y0117184D01*
X0091721Y0117137D01*
X0091835Y0117087D01*
X0091948Y0117034D01*
X0092059Y0116976D01*
X0092169Y0116916D01*
X0092276Y0116851D01*
X0092381Y0116784D01*
X0092484Y0116713D01*
X0092584Y0116639D01*
X0092682Y0116562D01*
X0092778Y0116481D01*
X0092871Y0116398D01*
X0092962Y0116312D01*
X0093049Y0116223D01*
X0093134Y0116131D01*
X0093216Y0116037D01*
X0093295Y0115940D01*
X0093370Y0115840D01*
X0093443Y0115739D01*
X0093512Y0115635D01*
X0093578Y0115528D01*
X0093640Y0115420D01*
X0093699Y0115310D01*
X0093755Y0115198D01*
X0093807Y0115084D01*
X0093855Y0114969D01*
X0093900Y0114853D01*
X0093940Y0114734D01*
X0093978Y0114615D01*
X0094011Y0114495D01*
X0094040Y0114373D01*
X0094066Y0114251D01*
X0094088Y0114128D01*
X0094105Y0114004D01*
X0094119Y0113880D01*
X0094129Y0113756D01*
X0094135Y0113631D01*
X0094137Y0113506D01*
X0094135Y0113381D01*
X0094129Y0113256D01*
X0094119Y0113132D01*
X0094105Y0113008D01*
X0094088Y0112884D01*
X0094066Y0112761D01*
X0094040Y0112639D01*
X0094011Y0112517D01*
X0093978Y0112397D01*
X0093940Y0112278D01*
X0093900Y0112159D01*
X0093855Y0112043D01*
X0093807Y0111928D01*
X0093755Y0111814D01*
X0093699Y0111702D01*
X0093640Y0111592D01*
X0093578Y0111484D01*
X0093512Y0111377D01*
X0093443Y0111273D01*
X0093370Y0111172D01*
X0093295Y0111072D01*
X0093216Y0110975D01*
X0093134Y0110881D01*
X0093049Y0110789D01*
X0092962Y0110700D01*
X0092871Y0110614D01*
X0092778Y0110531D01*
X0092682Y0110450D01*
X0092584Y0110373D01*
X0092484Y0110299D01*
X0092381Y0110228D01*
X0092276Y0110161D01*
X0092168Y0110096D01*
X0092059Y0110036D01*
X0091948Y0109978D01*
X0091835Y0109925D01*
X0091721Y0109875D01*
X0091605Y0109828D01*
X0091488Y0109786D01*
X0091369Y0109747D01*
X0091249Y0109711D01*
X0091128Y0109680D01*
X0091006Y0109652D01*
X0090884Y0109629D01*
X0090760Y0109609D01*
X0090636Y0109593D01*
X0090512Y0109581D01*
X0090387Y0109573D01*
X0090262Y0109569D01*
X0090138Y0109569D01*
X0090013Y0109573D01*
X0089888Y0109581D01*
X0089764Y0109593D01*
X0089640Y0109609D01*
X0089516Y0109629D01*
X0089394Y0109652D01*
X0089272Y0109680D01*
X0089151Y0109711D01*
X0089031Y0109747D01*
X0088912Y0109786D01*
X0088795Y0109828D01*
X0088679Y0109875D01*
X0088565Y0109925D01*
X0088452Y0109978D01*
X0088341Y0110036D01*
X0088231Y0110096D01*
X0088124Y0110161D01*
X0088019Y0110228D01*
X0087916Y0110299D01*
X0087816Y0110373D01*
X0087718Y0110450D01*
X0087622Y0110531D01*
X0087529Y0110614D01*
X0087438Y0110700D01*
X0087351Y0110789D01*
X0087266Y0110881D01*
X0087184Y0110975D01*
X0087105Y0111072D01*
X0087030Y0111172D01*
X0086957Y0111273D01*
X0086888Y0111377D01*
X0086822Y0111484D01*
X0086760Y0111592D01*
X0086701Y0111702D01*
X0086645Y0111814D01*
X0086593Y0111928D01*
X0086545Y0112043D01*
X0086500Y0112159D01*
X0086460Y0112278D01*
X0086422Y0112397D01*
X0086389Y0112517D01*
X0086360Y0112639D01*
X0086334Y0112761D01*
X0086312Y0112884D01*
X0086295Y0113008D01*
X0086281Y0113132D01*
X0086271Y0113256D01*
X0086265Y0113381D01*
X0086263Y0113506D01*
X0035901Y0294506D02*
X0035903Y0294664D01*
X0035909Y0294822D01*
X0035919Y0294980D01*
X0035933Y0295138D01*
X0035951Y0295295D01*
X0035972Y0295452D01*
X0035998Y0295608D01*
X0036028Y0295764D01*
X0036061Y0295919D01*
X0036099Y0296072D01*
X0036140Y0296225D01*
X0036185Y0296377D01*
X0036234Y0296528D01*
X0036287Y0296677D01*
X0036343Y0296825D01*
X0036403Y0296971D01*
X0036467Y0297116D01*
X0036535Y0297259D01*
X0036606Y0297401D01*
X0036680Y0297541D01*
X0036758Y0297678D01*
X0036840Y0297814D01*
X0036924Y0297948D01*
X0037013Y0298079D01*
X0037104Y0298208D01*
X0037199Y0298335D01*
X0037296Y0298460D01*
X0037397Y0298582D01*
X0037501Y0298701D01*
X0037608Y0298818D01*
X0037718Y0298932D01*
X0037831Y0299043D01*
X0037946Y0299152D01*
X0038064Y0299257D01*
X0038185Y0299359D01*
X0038308Y0299459D01*
X0038434Y0299555D01*
X0038562Y0299648D01*
X0038692Y0299738D01*
X0038825Y0299824D01*
X0038960Y0299908D01*
X0039096Y0299987D01*
X0039235Y0300064D01*
X0039376Y0300136D01*
X0039518Y0300206D01*
X0039662Y0300271D01*
X0039808Y0300333D01*
X0039955Y0300391D01*
X0040104Y0300446D01*
X0040254Y0300497D01*
X0040405Y0300544D01*
X0040557Y0300587D01*
X0040710Y0300626D01*
X0040865Y0300662D01*
X0041020Y0300693D01*
X0041176Y0300721D01*
X0041332Y0300745D01*
X0041489Y0300765D01*
X0041647Y0300781D01*
X0041804Y0300793D01*
X0041963Y0300801D01*
X0042121Y0300805D01*
X0042279Y0300805D01*
X0042437Y0300801D01*
X0042596Y0300793D01*
X0042753Y0300781D01*
X0042911Y0300765D01*
X0043068Y0300745D01*
X0043224Y0300721D01*
X0043380Y0300693D01*
X0043535Y0300662D01*
X0043690Y0300626D01*
X0043843Y0300587D01*
X0043995Y0300544D01*
X0044146Y0300497D01*
X0044296Y0300446D01*
X0044445Y0300391D01*
X0044592Y0300333D01*
X0044738Y0300271D01*
X0044882Y0300206D01*
X0045024Y0300136D01*
X0045165Y0300064D01*
X0045304Y0299987D01*
X0045440Y0299908D01*
X0045575Y0299824D01*
X0045708Y0299738D01*
X0045838Y0299648D01*
X0045966Y0299555D01*
X0046092Y0299459D01*
X0046215Y0299359D01*
X0046336Y0299257D01*
X0046454Y0299152D01*
X0046569Y0299043D01*
X0046682Y0298932D01*
X0046792Y0298818D01*
X0046899Y0298701D01*
X0047003Y0298582D01*
X0047104Y0298460D01*
X0047201Y0298335D01*
X0047296Y0298208D01*
X0047387Y0298079D01*
X0047476Y0297948D01*
X0047560Y0297814D01*
X0047642Y0297678D01*
X0047720Y0297541D01*
X0047794Y0297401D01*
X0047865Y0297259D01*
X0047933Y0297116D01*
X0047997Y0296971D01*
X0048057Y0296825D01*
X0048113Y0296677D01*
X0048166Y0296528D01*
X0048215Y0296377D01*
X0048260Y0296225D01*
X0048301Y0296072D01*
X0048339Y0295919D01*
X0048372Y0295764D01*
X0048402Y0295608D01*
X0048428Y0295452D01*
X0048449Y0295295D01*
X0048467Y0295138D01*
X0048481Y0294980D01*
X0048491Y0294822D01*
X0048497Y0294664D01*
X0048499Y0294506D01*
X0048497Y0294348D01*
X0048491Y0294190D01*
X0048481Y0294032D01*
X0048467Y0293874D01*
X0048449Y0293717D01*
X0048428Y0293560D01*
X0048402Y0293404D01*
X0048372Y0293248D01*
X0048339Y0293093D01*
X0048301Y0292940D01*
X0048260Y0292787D01*
X0048215Y0292635D01*
X0048166Y0292484D01*
X0048113Y0292335D01*
X0048057Y0292187D01*
X0047997Y0292041D01*
X0047933Y0291896D01*
X0047865Y0291753D01*
X0047794Y0291611D01*
X0047720Y0291471D01*
X0047642Y0291334D01*
X0047560Y0291198D01*
X0047476Y0291064D01*
X0047387Y0290933D01*
X0047296Y0290804D01*
X0047201Y0290677D01*
X0047104Y0290552D01*
X0047003Y0290430D01*
X0046899Y0290311D01*
X0046792Y0290194D01*
X0046682Y0290080D01*
X0046569Y0289969D01*
X0046454Y0289860D01*
X0046336Y0289755D01*
X0046215Y0289653D01*
X0046092Y0289553D01*
X0045966Y0289457D01*
X0045838Y0289364D01*
X0045708Y0289274D01*
X0045575Y0289188D01*
X0045440Y0289104D01*
X0045304Y0289025D01*
X0045165Y0288948D01*
X0045024Y0288876D01*
X0044882Y0288806D01*
X0044738Y0288741D01*
X0044592Y0288679D01*
X0044445Y0288621D01*
X0044296Y0288566D01*
X0044146Y0288515D01*
X0043995Y0288468D01*
X0043843Y0288425D01*
X0043690Y0288386D01*
X0043535Y0288350D01*
X0043380Y0288319D01*
X0043224Y0288291D01*
X0043068Y0288267D01*
X0042911Y0288247D01*
X0042753Y0288231D01*
X0042596Y0288219D01*
X0042437Y0288211D01*
X0042279Y0288207D01*
X0042121Y0288207D01*
X0041963Y0288211D01*
X0041804Y0288219D01*
X0041647Y0288231D01*
X0041489Y0288247D01*
X0041332Y0288267D01*
X0041176Y0288291D01*
X0041020Y0288319D01*
X0040865Y0288350D01*
X0040710Y0288386D01*
X0040557Y0288425D01*
X0040405Y0288468D01*
X0040254Y0288515D01*
X0040104Y0288566D01*
X0039955Y0288621D01*
X0039808Y0288679D01*
X0039662Y0288741D01*
X0039518Y0288806D01*
X0039376Y0288876D01*
X0039235Y0288948D01*
X0039096Y0289025D01*
X0038960Y0289104D01*
X0038825Y0289188D01*
X0038692Y0289274D01*
X0038562Y0289364D01*
X0038434Y0289457D01*
X0038308Y0289553D01*
X0038185Y0289653D01*
X0038064Y0289755D01*
X0037946Y0289860D01*
X0037831Y0289969D01*
X0037718Y0290080D01*
X0037608Y0290194D01*
X0037501Y0290311D01*
X0037397Y0290430D01*
X0037296Y0290552D01*
X0037199Y0290677D01*
X0037104Y0290804D01*
X0037013Y0290933D01*
X0036924Y0291064D01*
X0036840Y0291198D01*
X0036758Y0291334D01*
X0036680Y0291471D01*
X0036606Y0291611D01*
X0036535Y0291753D01*
X0036467Y0291896D01*
X0036403Y0292041D01*
X0036343Y0292187D01*
X0036287Y0292335D01*
X0036234Y0292484D01*
X0036185Y0292635D01*
X0036140Y0292787D01*
X0036099Y0292940D01*
X0036061Y0293093D01*
X0036028Y0293248D01*
X0035998Y0293404D01*
X0035972Y0293560D01*
X0035951Y0293717D01*
X0035933Y0293874D01*
X0035919Y0294032D01*
X0035909Y0294190D01*
X0035903Y0294348D01*
X0035901Y0294506D01*
X0359901Y0294506D02*
X0359903Y0294664D01*
X0359909Y0294822D01*
X0359919Y0294980D01*
X0359933Y0295138D01*
X0359951Y0295295D01*
X0359972Y0295452D01*
X0359998Y0295608D01*
X0360028Y0295764D01*
X0360061Y0295919D01*
X0360099Y0296072D01*
X0360140Y0296225D01*
X0360185Y0296377D01*
X0360234Y0296528D01*
X0360287Y0296677D01*
X0360343Y0296825D01*
X0360403Y0296971D01*
X0360467Y0297116D01*
X0360535Y0297259D01*
X0360606Y0297401D01*
X0360680Y0297541D01*
X0360758Y0297678D01*
X0360840Y0297814D01*
X0360924Y0297948D01*
X0361013Y0298079D01*
X0361104Y0298208D01*
X0361199Y0298335D01*
X0361296Y0298460D01*
X0361397Y0298582D01*
X0361501Y0298701D01*
X0361608Y0298818D01*
X0361718Y0298932D01*
X0361831Y0299043D01*
X0361946Y0299152D01*
X0362064Y0299257D01*
X0362185Y0299359D01*
X0362308Y0299459D01*
X0362434Y0299555D01*
X0362562Y0299648D01*
X0362692Y0299738D01*
X0362825Y0299824D01*
X0362960Y0299908D01*
X0363096Y0299987D01*
X0363235Y0300064D01*
X0363376Y0300136D01*
X0363518Y0300206D01*
X0363662Y0300271D01*
X0363808Y0300333D01*
X0363955Y0300391D01*
X0364104Y0300446D01*
X0364254Y0300497D01*
X0364405Y0300544D01*
X0364557Y0300587D01*
X0364710Y0300626D01*
X0364865Y0300662D01*
X0365020Y0300693D01*
X0365176Y0300721D01*
X0365332Y0300745D01*
X0365489Y0300765D01*
X0365647Y0300781D01*
X0365804Y0300793D01*
X0365963Y0300801D01*
X0366121Y0300805D01*
X0366279Y0300805D01*
X0366437Y0300801D01*
X0366596Y0300793D01*
X0366753Y0300781D01*
X0366911Y0300765D01*
X0367068Y0300745D01*
X0367224Y0300721D01*
X0367380Y0300693D01*
X0367535Y0300662D01*
X0367690Y0300626D01*
X0367843Y0300587D01*
X0367995Y0300544D01*
X0368146Y0300497D01*
X0368296Y0300446D01*
X0368445Y0300391D01*
X0368592Y0300333D01*
X0368738Y0300271D01*
X0368882Y0300206D01*
X0369024Y0300136D01*
X0369165Y0300064D01*
X0369304Y0299987D01*
X0369440Y0299908D01*
X0369575Y0299824D01*
X0369708Y0299738D01*
X0369838Y0299648D01*
X0369966Y0299555D01*
X0370092Y0299459D01*
X0370215Y0299359D01*
X0370336Y0299257D01*
X0370454Y0299152D01*
X0370569Y0299043D01*
X0370682Y0298932D01*
X0370792Y0298818D01*
X0370899Y0298701D01*
X0371003Y0298582D01*
X0371104Y0298460D01*
X0371201Y0298335D01*
X0371296Y0298208D01*
X0371387Y0298079D01*
X0371476Y0297948D01*
X0371560Y0297814D01*
X0371642Y0297678D01*
X0371720Y0297541D01*
X0371794Y0297401D01*
X0371865Y0297259D01*
X0371933Y0297116D01*
X0371997Y0296971D01*
X0372057Y0296825D01*
X0372113Y0296677D01*
X0372166Y0296528D01*
X0372215Y0296377D01*
X0372260Y0296225D01*
X0372301Y0296072D01*
X0372339Y0295919D01*
X0372372Y0295764D01*
X0372402Y0295608D01*
X0372428Y0295452D01*
X0372449Y0295295D01*
X0372467Y0295138D01*
X0372481Y0294980D01*
X0372491Y0294822D01*
X0372497Y0294664D01*
X0372499Y0294506D01*
X0372497Y0294348D01*
X0372491Y0294190D01*
X0372481Y0294032D01*
X0372467Y0293874D01*
X0372449Y0293717D01*
X0372428Y0293560D01*
X0372402Y0293404D01*
X0372372Y0293248D01*
X0372339Y0293093D01*
X0372301Y0292940D01*
X0372260Y0292787D01*
X0372215Y0292635D01*
X0372166Y0292484D01*
X0372113Y0292335D01*
X0372057Y0292187D01*
X0371997Y0292041D01*
X0371933Y0291896D01*
X0371865Y0291753D01*
X0371794Y0291611D01*
X0371720Y0291471D01*
X0371642Y0291334D01*
X0371560Y0291198D01*
X0371476Y0291064D01*
X0371387Y0290933D01*
X0371296Y0290804D01*
X0371201Y0290677D01*
X0371104Y0290552D01*
X0371003Y0290430D01*
X0370899Y0290311D01*
X0370792Y0290194D01*
X0370682Y0290080D01*
X0370569Y0289969D01*
X0370454Y0289860D01*
X0370336Y0289755D01*
X0370215Y0289653D01*
X0370092Y0289553D01*
X0369966Y0289457D01*
X0369838Y0289364D01*
X0369708Y0289274D01*
X0369575Y0289188D01*
X0369440Y0289104D01*
X0369304Y0289025D01*
X0369165Y0288948D01*
X0369024Y0288876D01*
X0368882Y0288806D01*
X0368738Y0288741D01*
X0368592Y0288679D01*
X0368445Y0288621D01*
X0368296Y0288566D01*
X0368146Y0288515D01*
X0367995Y0288468D01*
X0367843Y0288425D01*
X0367690Y0288386D01*
X0367535Y0288350D01*
X0367380Y0288319D01*
X0367224Y0288291D01*
X0367068Y0288267D01*
X0366911Y0288247D01*
X0366753Y0288231D01*
X0366596Y0288219D01*
X0366437Y0288211D01*
X0366279Y0288207D01*
X0366121Y0288207D01*
X0365963Y0288211D01*
X0365804Y0288219D01*
X0365647Y0288231D01*
X0365489Y0288247D01*
X0365332Y0288267D01*
X0365176Y0288291D01*
X0365020Y0288319D01*
X0364865Y0288350D01*
X0364710Y0288386D01*
X0364557Y0288425D01*
X0364405Y0288468D01*
X0364254Y0288515D01*
X0364104Y0288566D01*
X0363955Y0288621D01*
X0363808Y0288679D01*
X0363662Y0288741D01*
X0363518Y0288806D01*
X0363376Y0288876D01*
X0363235Y0288948D01*
X0363096Y0289025D01*
X0362960Y0289104D01*
X0362825Y0289188D01*
X0362692Y0289274D01*
X0362562Y0289364D01*
X0362434Y0289457D01*
X0362308Y0289553D01*
X0362185Y0289653D01*
X0362064Y0289755D01*
X0361946Y0289860D01*
X0361831Y0289969D01*
X0361718Y0290080D01*
X0361608Y0290194D01*
X0361501Y0290311D01*
X0361397Y0290430D01*
X0361296Y0290552D01*
X0361199Y0290677D01*
X0361104Y0290804D01*
X0361013Y0290933D01*
X0360924Y0291064D01*
X0360840Y0291198D01*
X0360758Y0291334D01*
X0360680Y0291471D01*
X0360606Y0291611D01*
X0360535Y0291753D01*
X0360467Y0291896D01*
X0360403Y0292041D01*
X0360343Y0292187D01*
X0360287Y0292335D01*
X0360234Y0292484D01*
X0360185Y0292635D01*
X0360140Y0292787D01*
X0360099Y0292940D01*
X0360061Y0293093D01*
X0360028Y0293248D01*
X0359998Y0293404D01*
X0359972Y0293560D01*
X0359951Y0293717D01*
X0359933Y0293874D01*
X0359919Y0294032D01*
X0359909Y0294190D01*
X0359903Y0294348D01*
X0359901Y0294506D01*
M02*
