G75*
%MOIN*%
%OFA0B0*%
%FSLAX25Y25*%
%IPPOS*%
%LPD*%
%AMOC8*
5,1,8,0,0,1.08239X$1,22.5*
%
%ADD10OC8,0.07200*%
%ADD11C,0.07200*%
%ADD12OC8,0.12400*%
%ADD13OC8,0.07600*%
%ADD14C,0.07600*%
%ADD15C,0.07200*%
%ADD16C,0.08724*%
%ADD17C,0.07543*%
%ADD18C,0.08000*%
%ADD19C,0.03200*%
%ADD20C,0.02400*%
%ADD21C,0.00600*%
%ADD22C,0.01000*%
D10*
X0110200Y0138506D03*
X0140200Y0138506D03*
X0100200Y0163506D03*
X0100200Y0178506D03*
X0070200Y0178506D03*
X0070200Y0163506D03*
X0080200Y0213506D03*
X0090200Y0213506D03*
X0098200Y0238506D03*
X0126200Y0236506D03*
X0120200Y0213506D03*
X0166200Y0236506D03*
X0194200Y0222506D03*
X0217200Y0216506D03*
X0217200Y0236506D03*
X0222200Y0264506D03*
X0192200Y0264506D03*
X0168200Y0263506D03*
X0168200Y0280506D03*
X0168200Y0290506D03*
X0138200Y0263506D03*
X0058200Y0238506D03*
X0050200Y0213506D03*
X0209200Y0148506D03*
X0228200Y0138506D03*
X0249200Y0155506D03*
X0263200Y0168506D03*
X0249200Y0185506D03*
X0228200Y0168506D03*
X0263200Y0138506D03*
X0312200Y0139506D03*
X0312200Y0154506D03*
X0312200Y0169506D03*
X0312200Y0184506D03*
X0332200Y0184506D03*
X0332200Y0169506D03*
X0332200Y0154506D03*
X0332200Y0139506D03*
X0357200Y0149506D03*
X0357200Y0179506D03*
X0332200Y0219506D03*
X0332200Y0249506D03*
X0327200Y0289506D03*
D11*
X0327200Y0279506D03*
X0194200Y0236506D03*
X0112200Y0238506D03*
X0072200Y0238506D03*
X0209200Y0138506D03*
D12*
X0125200Y0286506D03*
X0105200Y0286506D03*
D13*
X0282200Y0179506D03*
X0282200Y0169506D03*
X0282200Y0159506D03*
X0282200Y0149506D03*
X0292200Y0149506D03*
X0292200Y0159506D03*
X0292200Y0169506D03*
X0292200Y0179506D03*
D14*
X0256000Y0279506D02*
X0248400Y0279506D01*
X0248400Y0289506D02*
X0256000Y0289506D01*
D15*
X0277200Y0290606D02*
X0277200Y0283406D01*
X0287200Y0283406D02*
X0287200Y0290606D01*
X0297200Y0290606D02*
X0297200Y0283406D01*
X0292200Y0253106D02*
X0292200Y0245906D01*
X0302200Y0245906D02*
X0302200Y0253106D01*
X0282200Y0253106D02*
X0282200Y0245906D01*
X0272200Y0245906D02*
X0272200Y0253106D01*
X0262200Y0253106D02*
X0262200Y0245906D01*
X0252200Y0245906D02*
X0252200Y0253106D01*
X0242200Y0253106D02*
X0242200Y0245906D01*
X0232200Y0245906D02*
X0232200Y0253106D01*
X0232200Y0223106D02*
X0232200Y0215906D01*
X0242200Y0215906D02*
X0242200Y0223106D01*
X0252200Y0223106D02*
X0252200Y0215906D01*
X0262200Y0215906D02*
X0262200Y0223106D01*
X0272200Y0223106D02*
X0272200Y0215906D01*
X0282200Y0215906D02*
X0282200Y0223106D01*
X0292200Y0223106D02*
X0292200Y0215906D01*
X0302200Y0215906D02*
X0302200Y0223106D01*
X0227200Y0283406D02*
X0227200Y0290606D01*
X0217200Y0290606D02*
X0217200Y0283406D01*
X0207200Y0283406D02*
X0207200Y0290606D01*
X0158800Y0198506D02*
X0151600Y0198506D01*
X0151600Y0188506D02*
X0158800Y0188506D01*
X0158800Y0178506D02*
X0151600Y0178506D01*
X0151600Y0168506D02*
X0158800Y0168506D01*
X0128800Y0168506D02*
X0121600Y0168506D01*
X0121600Y0178506D02*
X0128800Y0178506D01*
X0128800Y0188506D02*
X0121600Y0188506D01*
X0121600Y0198506D02*
X0128800Y0198506D01*
D16*
X0131515Y0098506D03*
X0151200Y0098506D03*
X0170885Y0098506D03*
X0219515Y0098506D03*
X0239200Y0098506D03*
X0258885Y0098506D03*
X0305515Y0098506D03*
X0325200Y0098506D03*
X0344885Y0098506D03*
D17*
X0080200Y0133506D03*
X0070200Y0133506D03*
D18*
X0358200Y0230506D02*
X0366200Y0230506D01*
X0366200Y0240506D02*
X0358200Y0240506D01*
D19*
X0362200Y0240506D02*
X0362200Y0244506D01*
X0357200Y0249506D01*
X0332200Y0249506D01*
X0332200Y0244506D01*
X0325200Y0237506D01*
X0288200Y0237506D01*
X0282200Y0244506D01*
X0272200Y0249506D02*
X0272200Y0257506D01*
X0276200Y0261506D01*
X0282200Y0261506D01*
X0294200Y0273506D01*
X0310200Y0273506D01*
X0314200Y0277506D01*
X0314200Y0281506D01*
X0318200Y0285506D01*
X0318200Y0289506D01*
X0327200Y0289506D01*
X0327200Y0279506D02*
X0327200Y0269506D01*
X0322200Y0264506D01*
X0297200Y0264506D01*
X0292200Y0259506D01*
X0292200Y0249506D01*
X0277200Y0269506D02*
X0272200Y0269506D01*
X0262200Y0259506D01*
X0262200Y0249506D01*
X0252200Y0249506D02*
X0252200Y0279506D01*
X0252200Y0289506D02*
X0274700Y0289506D01*
X0277200Y0287006D01*
X0287200Y0287006D02*
X0297200Y0287006D01*
X0287200Y0279506D02*
X0277200Y0269506D01*
X0242200Y0259506D02*
X0242200Y0249506D01*
X0232200Y0249506D02*
X0222200Y0249506D01*
X0207200Y0264506D01*
X0207200Y0287006D01*
X0217200Y0287006D02*
X0217200Y0269506D01*
X0222200Y0264506D01*
X0227200Y0274506D02*
X0242200Y0259506D01*
X0227200Y0274506D02*
X0227200Y0287006D01*
X0217200Y0236506D02*
X0194200Y0236506D01*
X0166200Y0236506D01*
X0166200Y0235092D01*
X0165907Y0235799D02*
X0138200Y0263506D01*
X0125493Y0276213D01*
X0125200Y0276921D02*
X0125200Y0286506D01*
X0125200Y0276921D02*
X0125202Y0276861D01*
X0125207Y0276800D01*
X0125216Y0276741D01*
X0125229Y0276682D01*
X0125245Y0276623D01*
X0125265Y0276566D01*
X0125288Y0276511D01*
X0125315Y0276456D01*
X0125344Y0276404D01*
X0125377Y0276353D01*
X0125413Y0276304D01*
X0125451Y0276258D01*
X0125493Y0276214D01*
X0168200Y0280506D02*
X0168200Y0263506D01*
X0166200Y0236506D02*
X0167200Y0234506D01*
X0166200Y0235092D02*
X0166198Y0235152D01*
X0166193Y0235213D01*
X0166184Y0235272D01*
X0166171Y0235331D01*
X0166155Y0235390D01*
X0166135Y0235447D01*
X0166112Y0235502D01*
X0166085Y0235557D01*
X0166056Y0235609D01*
X0166023Y0235660D01*
X0165987Y0235709D01*
X0165949Y0235755D01*
X0165907Y0235799D01*
X0136907Y0206799D02*
X0135200Y0208506D01*
X0136907Y0206799D02*
X0136949Y0206755D01*
X0136987Y0206709D01*
X0137023Y0206660D01*
X0137056Y0206609D01*
X0137085Y0206557D01*
X0137112Y0206502D01*
X0137135Y0206447D01*
X0137155Y0206390D01*
X0137171Y0206331D01*
X0137184Y0206272D01*
X0137193Y0206213D01*
X0137198Y0206152D01*
X0137200Y0206092D01*
X0137200Y0172506D01*
X0133493Y0168799D01*
X0132786Y0168506D02*
X0125200Y0168506D01*
X0132786Y0168506D02*
X0132846Y0168508D01*
X0132907Y0168513D01*
X0132966Y0168522D01*
X0133025Y0168535D01*
X0133084Y0168551D01*
X0133141Y0168571D01*
X0133196Y0168594D01*
X0133251Y0168621D01*
X0133303Y0168650D01*
X0133354Y0168683D01*
X0133403Y0168719D01*
X0133449Y0168757D01*
X0133493Y0168799D01*
X0143200Y0174506D02*
X0143200Y0145921D01*
X0143493Y0145213D02*
X0145200Y0143506D01*
X0140200Y0138506D01*
X0140200Y0109921D01*
X0140493Y0109213D02*
X0151200Y0098506D01*
X0131515Y0098506D01*
X0121200Y0088506D02*
X0160885Y0088506D01*
X0170885Y0098506D01*
X0170907Y0098528D01*
X0171200Y0099235D02*
X0171200Y0108506D01*
X0160178Y0119528D01*
X0159885Y0120235D02*
X0159885Y0163821D01*
X0155200Y0168506D01*
X0155200Y0178506D02*
X0147614Y0178506D01*
X0146907Y0178213D02*
X0143200Y0174506D01*
X0146907Y0178213D02*
X0146951Y0178255D01*
X0146997Y0178293D01*
X0147046Y0178329D01*
X0147097Y0178362D01*
X0147149Y0178391D01*
X0147204Y0178418D01*
X0147259Y0178441D01*
X0147316Y0178461D01*
X0147375Y0178477D01*
X0147434Y0178490D01*
X0147493Y0178499D01*
X0147554Y0178504D01*
X0147614Y0178506D01*
X0155200Y0188506D02*
X0225786Y0188506D01*
X0226493Y0188799D02*
X0242200Y0204506D01*
X0242200Y0219506D01*
X0252200Y0219506D02*
X0252200Y0188506D01*
X0249200Y0185506D01*
X0262200Y0169506D02*
X0263200Y0168506D01*
X0262200Y0169506D02*
X0262200Y0219506D01*
X0262200Y0231506D01*
X0325200Y0231506D01*
X0332200Y0224506D01*
X0332200Y0219506D01*
X0332200Y0204506D02*
X0357200Y0179506D01*
X0332200Y0184506D02*
X0332200Y0169506D01*
X0332200Y0154506D01*
X0332200Y0139506D01*
X0312200Y0139506D02*
X0302200Y0139506D01*
X0292200Y0149506D01*
X0282200Y0149506D02*
X0282200Y0159506D01*
X0282200Y0169506D01*
X0282200Y0179506D01*
X0282200Y0184506D02*
X0272200Y0194506D01*
X0272200Y0219506D01*
X0282200Y0219506D02*
X0282200Y0199506D01*
X0287200Y0194506D01*
X0327200Y0194506D01*
X0332200Y0189506D01*
X0332200Y0204506D02*
X0297200Y0204506D01*
X0292200Y0209506D01*
X0292200Y0219506D01*
X0262200Y0231506D02*
X0257200Y0236506D01*
X0217200Y0236506D01*
X0226493Y0188799D02*
X0226449Y0188757D01*
X0226403Y0188719D01*
X0226354Y0188683D01*
X0226303Y0188650D01*
X0226251Y0188621D01*
X0226196Y0188594D01*
X0226141Y0188571D01*
X0226084Y0188551D01*
X0226025Y0188535D01*
X0225966Y0188522D01*
X0225907Y0188513D01*
X0225846Y0188508D01*
X0225786Y0188506D01*
X0225846Y0188508D01*
X0225907Y0188513D01*
X0225966Y0188522D01*
X0226025Y0188535D01*
X0226084Y0188551D01*
X0226141Y0188571D01*
X0226196Y0188594D01*
X0226251Y0188621D01*
X0226303Y0188650D01*
X0226354Y0188683D01*
X0226403Y0188719D01*
X0226449Y0188757D01*
X0226493Y0188799D01*
X0249200Y0155506D02*
X0261200Y0155506D01*
X0275200Y0141506D01*
X0275200Y0114506D01*
X0259200Y0098506D01*
X0312200Y0154506D02*
X0307200Y0159506D01*
X0292200Y0159506D01*
X0292200Y0169506D02*
X0312200Y0169506D01*
X0307200Y0179506D02*
X0312200Y0184506D01*
X0307200Y0179506D02*
X0292200Y0179506D01*
X0357200Y0149506D02*
X0357200Y0111235D01*
X0356907Y0110528D02*
X0344885Y0098506D01*
X0356907Y0110528D02*
X0356949Y0110572D01*
X0356987Y0110618D01*
X0357023Y0110667D01*
X0357056Y0110718D01*
X0357085Y0110770D01*
X0357112Y0110825D01*
X0357135Y0110880D01*
X0357155Y0110937D01*
X0357171Y0110996D01*
X0357184Y0111055D01*
X0357193Y0111114D01*
X0357198Y0111175D01*
X0357200Y0111235D01*
X0171200Y0099235D02*
X0171198Y0099175D01*
X0171193Y0099114D01*
X0171184Y0099055D01*
X0171171Y0098996D01*
X0171155Y0098937D01*
X0171135Y0098880D01*
X0171112Y0098825D01*
X0171085Y0098770D01*
X0171056Y0098718D01*
X0171023Y0098667D01*
X0170987Y0098618D01*
X0170949Y0098572D01*
X0170907Y0098528D01*
X0160178Y0119528D02*
X0160136Y0119572D01*
X0160098Y0119618D01*
X0160062Y0119667D01*
X0160029Y0119718D01*
X0160000Y0119770D01*
X0159973Y0119825D01*
X0159950Y0119880D01*
X0159930Y0119937D01*
X0159914Y0119996D01*
X0159901Y0120055D01*
X0159892Y0120114D01*
X0159887Y0120175D01*
X0159885Y0120235D01*
X0140200Y0109921D02*
X0140202Y0109861D01*
X0140207Y0109800D01*
X0140216Y0109741D01*
X0140229Y0109682D01*
X0140245Y0109623D01*
X0140265Y0109566D01*
X0140288Y0109511D01*
X0140315Y0109456D01*
X0140344Y0109404D01*
X0140377Y0109353D01*
X0140413Y0109304D01*
X0140451Y0109258D01*
X0140493Y0109214D01*
X0125200Y0123506D02*
X0116493Y0114799D01*
X0116200Y0114092D02*
X0116200Y0093506D01*
X0121200Y0088506D01*
X0116200Y0114092D02*
X0116202Y0114152D01*
X0116207Y0114213D01*
X0116216Y0114272D01*
X0116229Y0114331D01*
X0116245Y0114390D01*
X0116265Y0114447D01*
X0116288Y0114502D01*
X0116315Y0114557D01*
X0116344Y0114609D01*
X0116377Y0114660D01*
X0116413Y0114709D01*
X0116451Y0114755D01*
X0116493Y0114799D01*
X0125200Y0123506D02*
X0125200Y0146506D01*
X0118200Y0153506D01*
X0091200Y0153506D01*
X0085200Y0159506D01*
X0085200Y0192506D01*
X0091200Y0198506D01*
X0125200Y0198506D01*
X0125200Y0188506D02*
X0125200Y0178506D01*
X0100200Y0178506D01*
X0100200Y0163506D01*
X0070200Y0163506D02*
X0070200Y0178506D01*
X0070200Y0163506D02*
X0070200Y0133506D01*
X0143200Y0145921D02*
X0143202Y0145861D01*
X0143207Y0145800D01*
X0143216Y0145741D01*
X0143229Y0145682D01*
X0143245Y0145623D01*
X0143265Y0145566D01*
X0143288Y0145511D01*
X0143315Y0145456D01*
X0143344Y0145404D01*
X0143377Y0145353D01*
X0143413Y0145304D01*
X0143451Y0145258D01*
X0143493Y0145214D01*
D20*
X0027400Y0084706D02*
X0027400Y0279369D01*
X0031600Y0276147D01*
X0036713Y0274029D01*
X0042200Y0273306D01*
X0047687Y0274029D01*
X0052800Y0276147D01*
X0057191Y0279516D01*
X0060560Y0283906D01*
X0060560Y0283906D01*
X0062678Y0289019D01*
X0063400Y0294506D01*
X0062678Y0299993D01*
X0062678Y0299993D01*
X0060560Y0305106D01*
X0057367Y0309267D01*
X0351033Y0309267D01*
X0347840Y0305106D01*
X0345722Y0299993D01*
X0345000Y0294506D01*
X0345722Y0289019D01*
X0347840Y0283906D01*
X0351209Y0279516D01*
X0351209Y0279516D01*
X0355600Y0276147D01*
X0360713Y0274029D01*
X0366200Y0273306D01*
X0371687Y0274029D01*
X0376800Y0276147D01*
X0379701Y0278372D01*
X0379701Y0084706D01*
X0166702Y0084706D01*
X0170939Y0088944D01*
X0171294Y0088944D01*
X0171419Y0088911D01*
X0171674Y0088944D01*
X0172787Y0088944D01*
X0173019Y0089040D01*
X0173138Y0089040D01*
X0173480Y0089182D01*
X0173847Y0089230D01*
X0174282Y0089481D01*
X0174766Y0089611D01*
X0175060Y0089836D01*
X0175401Y0089977D01*
X0175485Y0090062D01*
X0176302Y0090400D01*
X0178991Y0093090D01*
X0179295Y0093824D01*
X0179863Y0094391D01*
X0180700Y0096412D01*
X0180700Y0105368D01*
X0180796Y0105725D01*
X0180700Y0106453D01*
X0180700Y0107186D01*
X0180666Y0107268D01*
X0180666Y0107445D01*
X0180524Y0107787D01*
X0180476Y0108154D01*
X0180225Y0108588D01*
X0180095Y0109072D01*
X0179870Y0109366D01*
X0179729Y0109707D01*
X0179604Y0109832D01*
X0179570Y0109915D01*
X0179051Y0110433D01*
X0178604Y0111015D01*
X0178284Y0111200D01*
X0166863Y0122622D01*
X0166685Y0122799D01*
X0166685Y0164547D01*
X0167600Y0166756D01*
X0167600Y0170257D01*
X0166260Y0173491D01*
X0166245Y0173506D01*
X0166260Y0173521D01*
X0167600Y0176756D01*
X0167600Y0180257D01*
X0167000Y0181706D01*
X0227337Y0181706D01*
X0230204Y0182894D01*
X0230204Y0182894D01*
X0230204Y0182894D01*
X0230345Y0183034D01*
X0231301Y0183991D01*
X0232258Y0184947D01*
X0232258Y0184947D01*
X0245400Y0198090D01*
X0245400Y0194151D01*
X0240400Y0189151D01*
X0240400Y0181861D01*
X0245555Y0176706D01*
X0252845Y0176706D01*
X0255400Y0179261D01*
X0255400Y0173151D01*
X0254400Y0172151D01*
X0254400Y0164861D01*
X0256955Y0162306D01*
X0254845Y0162306D01*
X0252845Y0164306D01*
X0245555Y0164306D01*
X0240400Y0159151D01*
X0240400Y0151861D01*
X0245055Y0147206D01*
X0231945Y0147206D01*
X0231845Y0147306D01*
X0224555Y0147306D01*
X0224455Y0147206D01*
X0216400Y0147206D01*
X0216400Y0148506D01*
X0209200Y0148506D01*
X0209200Y0148506D01*
X0202000Y0148506D01*
X0202000Y0145524D01*
X0202886Y0144638D01*
X0201740Y0143491D01*
X0200400Y0140257D01*
X0200400Y0136756D01*
X0200500Y0136514D01*
X0200500Y0105372D01*
X0201368Y0103277D01*
X0202971Y0101674D01*
X0211305Y0093341D01*
X0211409Y0093090D01*
X0214098Y0090400D01*
X0217613Y0088944D01*
X0221417Y0088944D01*
X0224932Y0090400D01*
X0225338Y0090806D01*
X0233377Y0090806D01*
X0233783Y0090400D01*
X0237298Y0088944D01*
X0241102Y0088944D01*
X0244617Y0090400D01*
X0247306Y0093090D01*
X0247633Y0093878D01*
X0249626Y0095872D01*
X0249734Y0095612D01*
X0249734Y0095568D01*
X0249876Y0095226D01*
X0249924Y0094859D01*
X0250175Y0094425D01*
X0250305Y0093940D01*
X0250530Y0093647D01*
X0250671Y0093305D01*
X0250702Y0093274D01*
X0250779Y0093090D01*
X0251546Y0092322D01*
X0251796Y0091997D01*
X0251974Y0091894D01*
X0253468Y0090400D01*
X0253571Y0090358D01*
X0254084Y0089844D01*
X0256106Y0089006D01*
X0256833Y0089006D01*
X0256983Y0088944D01*
X0260294Y0088944D01*
X0260419Y0088911D01*
X0260674Y0088944D01*
X0260787Y0088944D01*
X0260840Y0088966D01*
X0261146Y0089006D01*
X0261880Y0089006D01*
X0261962Y0089040D01*
X0262138Y0089040D01*
X0262480Y0089182D01*
X0262847Y0089230D01*
X0263282Y0089481D01*
X0263766Y0089611D01*
X0264060Y0089836D01*
X0264401Y0089977D01*
X0264495Y0090071D01*
X0264530Y0090085D01*
X0265090Y0090627D01*
X0265709Y0091102D01*
X0265871Y0091382D01*
X0279771Y0104825D01*
X0279815Y0104844D01*
X0280557Y0105585D01*
X0281310Y0106313D01*
X0281329Y0106357D01*
X0281363Y0106391D01*
X0281764Y0107359D01*
X0282181Y0108321D01*
X0282182Y0108368D01*
X0282200Y0108412D01*
X0282200Y0109460D01*
X0282218Y0110508D01*
X0282200Y0110553D01*
X0282200Y0116600D01*
X0282000Y0117083D01*
X0282000Y0140506D01*
X0285928Y0140506D01*
X0287200Y0141778D01*
X0288472Y0140506D01*
X0291583Y0140506D01*
X0296435Y0135654D01*
X0298348Y0133742D01*
X0300847Y0132706D01*
X0306555Y0132706D01*
X0308555Y0130706D01*
X0315845Y0130706D01*
X0321000Y0135861D01*
X0321000Y0143151D01*
X0317145Y0147006D01*
X0321000Y0150861D01*
X0321000Y0158151D01*
X0317145Y0162006D01*
X0321000Y0165861D01*
X0321000Y0173151D01*
X0317145Y0177006D01*
X0321000Y0180861D01*
X0321000Y0187706D01*
X0323400Y0187706D01*
X0323400Y0180861D01*
X0325400Y0178861D01*
X0325400Y0175151D01*
X0323400Y0173151D01*
X0323400Y0165861D01*
X0325400Y0163861D01*
X0325400Y0160151D01*
X0323400Y0158151D01*
X0323400Y0150861D01*
X0325400Y0148861D01*
X0325400Y0145151D01*
X0323400Y0143151D01*
X0323400Y0135861D01*
X0328555Y0130706D01*
X0335845Y0130706D01*
X0341000Y0135861D01*
X0341000Y0143151D01*
X0339000Y0145151D01*
X0339000Y0148861D01*
X0341000Y0150861D01*
X0341000Y0158151D01*
X0339000Y0160151D01*
X0339000Y0163861D01*
X0341000Y0165861D01*
X0341000Y0173151D01*
X0339000Y0175151D01*
X0339000Y0178861D01*
X0341000Y0180861D01*
X0341000Y0186090D01*
X0348400Y0178690D01*
X0348400Y0175861D01*
X0353555Y0170706D01*
X0360845Y0170706D01*
X0366000Y0175861D01*
X0366000Y0183151D01*
X0360845Y0188306D01*
X0358017Y0188306D01*
X0336052Y0210271D01*
X0335001Y0210706D01*
X0335845Y0210706D01*
X0341000Y0215861D01*
X0341000Y0223151D01*
X0339000Y0225151D01*
X0339000Y0225859D01*
X0337965Y0228358D01*
X0331817Y0234506D01*
X0336052Y0238742D01*
X0337965Y0240654D01*
X0338815Y0242706D01*
X0349153Y0242706D01*
X0349000Y0242336D01*
X0349000Y0238676D01*
X0350401Y0235295D01*
X0351534Y0234161D01*
X0351369Y0233875D01*
X0350988Y0232954D01*
X0350730Y0231992D01*
X0350600Y0231004D01*
X0350600Y0230506D01*
X0350600Y0230008D01*
X0350730Y0229020D01*
X0350988Y0228058D01*
X0351369Y0227138D01*
X0351867Y0226275D01*
X0352474Y0225485D01*
X0353178Y0224780D01*
X0353969Y0224174D01*
X0354831Y0223675D01*
X0355752Y0223294D01*
X0356714Y0223036D01*
X0357702Y0222906D01*
X0362200Y0222906D01*
X0366698Y0222906D01*
X0367686Y0223036D01*
X0368648Y0223294D01*
X0369569Y0223675D01*
X0370431Y0224174D01*
X0371222Y0224780D01*
X0371926Y0225485D01*
X0372533Y0226275D01*
X0373031Y0227138D01*
X0373412Y0228058D01*
X0373670Y0229020D01*
X0373800Y0230008D01*
X0373800Y0230506D01*
X0362200Y0230506D01*
X0362200Y0222906D01*
X0362200Y0230506D01*
X0362200Y0230506D01*
X0362200Y0230506D01*
X0350600Y0230506D01*
X0362200Y0230506D01*
X0362200Y0230506D01*
X0373800Y0230506D01*
X0373800Y0231004D01*
X0373670Y0231992D01*
X0373412Y0232954D01*
X0373031Y0233875D01*
X0372866Y0234161D01*
X0373999Y0235295D01*
X0375400Y0238676D01*
X0375400Y0242336D01*
X0373999Y0245718D01*
X0371411Y0248306D01*
X0368030Y0249706D01*
X0366617Y0249706D01*
X0366052Y0250271D01*
X0362965Y0253358D01*
X0362965Y0253358D01*
X0361052Y0255271D01*
X0358553Y0256306D01*
X0337845Y0256306D01*
X0335845Y0258306D01*
X0328555Y0258306D01*
X0323400Y0253151D01*
X0323400Y0245861D01*
X0323669Y0245592D01*
X0322383Y0244306D01*
X0311000Y0244306D01*
X0311000Y0254857D01*
X0309820Y0257706D01*
X0323553Y0257706D01*
X0326052Y0258742D01*
X0327965Y0260654D01*
X0331052Y0263742D01*
X0332965Y0265654D01*
X0334000Y0268154D01*
X0334000Y0273861D01*
X0334660Y0274521D01*
X0336000Y0277756D01*
X0336000Y0281257D01*
X0334660Y0284491D01*
X0333514Y0285638D01*
X0334400Y0286524D01*
X0334400Y0289506D01*
X0327200Y0289506D01*
X0327200Y0289506D01*
X0320000Y0289506D01*
X0320000Y0286524D01*
X0320886Y0285638D01*
X0319740Y0284491D01*
X0318400Y0281257D01*
X0318400Y0277756D01*
X0319740Y0274521D01*
X0320400Y0273861D01*
X0320400Y0272323D01*
X0319383Y0271306D01*
X0295847Y0271306D01*
X0293348Y0270271D01*
X0291435Y0268358D01*
X0286435Y0263358D01*
X0285558Y0261240D01*
X0283950Y0261906D01*
X0280450Y0261906D01*
X0277215Y0260567D01*
X0275921Y0259272D01*
X0275391Y0259578D01*
X0274519Y0259939D01*
X0273608Y0260183D01*
X0272672Y0260306D01*
X0272617Y0260306D01*
X0275017Y0262706D01*
X0278553Y0262706D01*
X0281052Y0263742D01*
X0292951Y0275641D01*
X0295450Y0274606D01*
X0298950Y0274606D01*
X0302185Y0275946D01*
X0304660Y0278421D01*
X0306000Y0281656D01*
X0306000Y0292357D01*
X0304660Y0295591D01*
X0302185Y0298067D01*
X0298950Y0299406D01*
X0295450Y0299406D01*
X0292215Y0298067D01*
X0292200Y0298051D01*
X0292185Y0298067D01*
X0288950Y0299406D01*
X0285450Y0299406D01*
X0282215Y0298067D01*
X0282200Y0298051D01*
X0282185Y0298067D01*
X0278950Y0299406D01*
X0275450Y0299406D01*
X0272215Y0298067D01*
X0270455Y0296306D01*
X0261928Y0296306D01*
X0261098Y0297136D01*
X0257790Y0298506D01*
X0246610Y0298506D01*
X0243302Y0297136D01*
X0240770Y0294604D01*
X0239400Y0291297D01*
X0239400Y0287716D01*
X0240730Y0284506D01*
X0239400Y0281297D01*
X0239400Y0277716D01*
X0240770Y0274408D01*
X0243302Y0271876D01*
X0245400Y0271007D01*
X0245400Y0265923D01*
X0234000Y0277323D01*
X0234000Y0277761D01*
X0234660Y0278421D01*
X0236000Y0281656D01*
X0236000Y0292357D01*
X0234660Y0295591D01*
X0232185Y0298067D01*
X0228950Y0299406D01*
X0225450Y0299406D01*
X0222215Y0298067D01*
X0222200Y0298051D01*
X0222185Y0298067D01*
X0218950Y0299406D01*
X0215450Y0299406D01*
X0212215Y0298067D01*
X0212200Y0298051D01*
X0212185Y0298067D01*
X0208950Y0299406D01*
X0205450Y0299406D01*
X0202215Y0298067D01*
X0199740Y0295591D01*
X0198400Y0292357D01*
X0198400Y0281656D01*
X0199740Y0278421D01*
X0200400Y0277761D01*
X0200400Y0263154D01*
X0201435Y0260654D01*
X0216783Y0245306D01*
X0213555Y0245306D01*
X0211555Y0243306D01*
X0199845Y0243306D01*
X0199185Y0243967D01*
X0195950Y0245306D01*
X0192450Y0245306D01*
X0189215Y0243967D01*
X0188555Y0243306D01*
X0171845Y0243306D01*
X0169845Y0245306D01*
X0166017Y0245306D01*
X0147000Y0264323D01*
X0147000Y0267151D01*
X0141845Y0272306D01*
X0139017Y0272306D01*
X0133069Y0278254D01*
X0136600Y0281784D01*
X0136600Y0291228D01*
X0129922Y0297906D01*
X0120478Y0297906D01*
X0114069Y0291497D01*
X0109259Y0296306D01*
X0105200Y0296306D01*
X0101141Y0296306D01*
X0095400Y0290566D01*
X0095400Y0286506D01*
X0095400Y0282447D01*
X0101141Y0276706D01*
X0105200Y0276706D01*
X0109259Y0276706D01*
X0114069Y0281516D01*
X0118400Y0277184D01*
X0118400Y0275369D01*
X0119587Y0272502D01*
X0119728Y0272362D01*
X0119728Y0272362D01*
X0120789Y0271300D01*
X0121641Y0270449D01*
X0129400Y0262690D01*
X0129400Y0259861D01*
X0134555Y0254706D01*
X0137383Y0254706D01*
X0157400Y0234690D01*
X0157400Y0232861D01*
X0162555Y0227706D01*
X0166097Y0227706D01*
X0166333Y0227628D01*
X0167441Y0227706D01*
X0169845Y0227706D01*
X0170885Y0228746D01*
X0171451Y0229029D01*
X0172038Y0229706D01*
X0188555Y0229706D01*
X0189215Y0229046D01*
X0190164Y0228653D01*
X0187000Y0225489D01*
X0187000Y0222506D01*
X0187000Y0219524D01*
X0191218Y0215306D01*
X0194200Y0215306D01*
X0197182Y0215306D01*
X0201400Y0219524D01*
X0201400Y0222506D01*
X0194200Y0222506D01*
X0194200Y0215306D01*
X0194200Y0222506D01*
X0194200Y0222506D01*
X0194200Y0222506D01*
X0187000Y0222506D01*
X0194200Y0222506D01*
X0194200Y0222506D01*
X0201400Y0222506D01*
X0201400Y0225489D01*
X0198236Y0228653D01*
X0199185Y0229046D01*
X0199845Y0229706D01*
X0211555Y0229706D01*
X0213555Y0227706D01*
X0220845Y0227706D01*
X0222845Y0229706D01*
X0229319Y0229706D01*
X0229009Y0229578D01*
X0228191Y0229106D01*
X0227443Y0228531D01*
X0226775Y0227864D01*
X0226201Y0227115D01*
X0225729Y0226298D01*
X0225367Y0225426D01*
X0225123Y0224514D01*
X0225000Y0223578D01*
X0225000Y0219506D01*
X0225000Y0215434D01*
X0225123Y0214499D01*
X0225367Y0213587D01*
X0225729Y0212715D01*
X0226201Y0211898D01*
X0226775Y0211149D01*
X0227443Y0210481D01*
X0228191Y0209907D01*
X0229009Y0209435D01*
X0229881Y0209074D01*
X0230792Y0208829D01*
X0231728Y0208706D01*
X0232200Y0208706D01*
X0232672Y0208706D01*
X0233608Y0208829D01*
X0234519Y0209074D01*
X0235391Y0209435D01*
X0235400Y0209440D01*
X0235400Y0207323D01*
X0223383Y0195306D01*
X0165266Y0195306D01*
X0165271Y0195315D01*
X0165633Y0196187D01*
X0165877Y0197099D01*
X0166000Y0198034D01*
X0166000Y0198506D01*
X0155200Y0198506D01*
X0155200Y0198506D01*
X0144400Y0198506D01*
X0144400Y0198034D01*
X0144523Y0197099D01*
X0144767Y0196187D01*
X0145129Y0195315D01*
X0145434Y0194786D01*
X0144140Y0193491D01*
X0144000Y0193154D01*
X0144000Y0207644D01*
X0142900Y0210299D01*
X0142900Y0210304D01*
X0142966Y0211233D01*
X0142900Y0211431D01*
X0142900Y0235640D01*
X0142032Y0237735D01*
X0140429Y0239339D01*
X0132429Y0247339D01*
X0130334Y0248206D01*
X0110066Y0248206D01*
X0107971Y0247339D01*
X0106368Y0245735D01*
X0104892Y0244259D01*
X0101845Y0247306D01*
X0101461Y0247306D01*
X0101429Y0247339D01*
X0099334Y0248206D01*
X0071066Y0248206D01*
X0068971Y0247339D01*
X0067871Y0246238D01*
X0067215Y0245967D01*
X0064740Y0243491D01*
X0064468Y0242835D01*
X0064368Y0242735D01*
X0064305Y0242584D01*
X0061182Y0245706D01*
X0058200Y0245706D01*
X0055218Y0245706D01*
X0051000Y0241489D01*
X0051000Y0238506D01*
X0051000Y0235524D01*
X0055218Y0231306D01*
X0058200Y0231306D01*
X0061182Y0231306D01*
X0063500Y0233624D01*
X0063500Y0215867D01*
X0051971Y0204339D01*
X0050368Y0202735D01*
X0049500Y0200640D01*
X0049500Y0126372D01*
X0050368Y0124277D01*
X0052002Y0122643D01*
X0048383Y0122643D01*
X0045024Y0121252D01*
X0042454Y0118682D01*
X0041063Y0115324D01*
X0041063Y0111689D01*
X0042454Y0108331D01*
X0045024Y0105760D01*
X0048383Y0104369D01*
X0052017Y0104369D01*
X0055376Y0105760D01*
X0057946Y0108331D01*
X0059337Y0111689D01*
X0059337Y0115324D01*
X0058945Y0116271D01*
X0060066Y0115806D01*
X0081263Y0115806D01*
X0081063Y0115324D01*
X0081063Y0111689D01*
X0082454Y0108331D01*
X0085024Y0105760D01*
X0088383Y0104369D01*
X0092017Y0104369D01*
X0095376Y0105760D01*
X0097946Y0108331D01*
X0099337Y0111689D01*
X0099337Y0115324D01*
X0099137Y0115806D01*
X0102334Y0115806D01*
X0104429Y0116674D01*
X0116429Y0128674D01*
X0118032Y0130277D01*
X0118400Y0131165D01*
X0118400Y0126323D01*
X0112641Y0120564D01*
X0111815Y0119738D01*
X0110728Y0118651D01*
X0110587Y0118510D01*
X0109400Y0115644D01*
X0109400Y0092154D01*
X0110435Y0089654D01*
X0112348Y0087742D01*
X0115383Y0084706D01*
X0027400Y0084706D01*
X0027400Y0086702D02*
X0113388Y0086702D01*
X0112348Y0087742D02*
X0112348Y0087742D01*
X0110989Y0089100D02*
X0027400Y0089100D01*
X0027400Y0091499D02*
X0109671Y0091499D01*
X0109400Y0093897D02*
X0027400Y0093897D01*
X0027400Y0096296D02*
X0109400Y0096296D01*
X0109400Y0098694D02*
X0027400Y0098694D01*
X0027400Y0101093D02*
X0109400Y0101093D01*
X0109400Y0103491D02*
X0027400Y0103491D01*
X0027400Y0105890D02*
X0044895Y0105890D01*
X0042496Y0108288D02*
X0027400Y0108288D01*
X0027400Y0110687D02*
X0041478Y0110687D01*
X0041063Y0113085D02*
X0027400Y0113085D01*
X0027400Y0115484D02*
X0041129Y0115484D01*
X0042123Y0117882D02*
X0027400Y0117882D01*
X0027400Y0120281D02*
X0044053Y0120281D01*
X0050036Y0125078D02*
X0027400Y0125078D01*
X0027400Y0122680D02*
X0051966Y0122680D01*
X0049500Y0127477D02*
X0027400Y0127477D01*
X0027400Y0129875D02*
X0049500Y0129875D01*
X0049500Y0132274D02*
X0027400Y0132274D01*
X0027400Y0134672D02*
X0049500Y0134672D01*
X0049500Y0137071D02*
X0027400Y0137071D01*
X0027400Y0139469D02*
X0049500Y0139469D01*
X0049500Y0141868D02*
X0027400Y0141868D01*
X0027400Y0144266D02*
X0049500Y0144266D01*
X0049500Y0146665D02*
X0027400Y0146665D01*
X0027400Y0149063D02*
X0049500Y0149063D01*
X0049500Y0151462D02*
X0027400Y0151462D01*
X0027400Y0153860D02*
X0049500Y0153860D01*
X0049500Y0156259D02*
X0027400Y0156259D01*
X0027400Y0158657D02*
X0049500Y0158657D01*
X0049500Y0161056D02*
X0027400Y0161056D01*
X0027400Y0163454D02*
X0049500Y0163454D01*
X0049500Y0165853D02*
X0027400Y0165853D01*
X0027400Y0168251D02*
X0049500Y0168251D01*
X0049500Y0170650D02*
X0027400Y0170650D01*
X0027400Y0173048D02*
X0049500Y0173048D01*
X0049500Y0175447D02*
X0027400Y0175447D01*
X0027400Y0177845D02*
X0049500Y0177845D01*
X0049500Y0180244D02*
X0027400Y0180244D01*
X0027400Y0182642D02*
X0049500Y0182642D01*
X0049500Y0185041D02*
X0027400Y0185041D01*
X0027400Y0187439D02*
X0049500Y0187439D01*
X0049500Y0189838D02*
X0027400Y0189838D01*
X0027400Y0192236D02*
X0049500Y0192236D01*
X0049500Y0194635D02*
X0027400Y0194635D01*
X0027400Y0197033D02*
X0049500Y0197033D01*
X0049500Y0199432D02*
X0027400Y0199432D01*
X0027400Y0201830D02*
X0049993Y0201830D01*
X0051862Y0204229D02*
X0027400Y0204229D01*
X0027400Y0206627D02*
X0046897Y0206627D01*
X0047218Y0206306D02*
X0050200Y0206306D01*
X0053182Y0206306D01*
X0057400Y0210524D01*
X0057400Y0213506D01*
X0050200Y0213506D01*
X0050200Y0206306D01*
X0050200Y0213506D01*
X0050200Y0213506D01*
X0050200Y0213506D01*
X0043000Y0213506D01*
X0043000Y0210524D01*
X0047218Y0206306D01*
X0050200Y0206627D02*
X0050200Y0206627D01*
X0050200Y0209026D02*
X0050200Y0209026D01*
X0050200Y0211424D02*
X0050200Y0211424D01*
X0050200Y0213506D02*
X0050200Y0213506D01*
X0057400Y0213506D01*
X0057400Y0216489D01*
X0053182Y0220706D01*
X0050200Y0220706D01*
X0047218Y0220706D01*
X0043000Y0216489D01*
X0043000Y0213506D01*
X0050200Y0213506D01*
X0050200Y0220706D01*
X0050200Y0213506D01*
X0050200Y0213506D01*
X0050200Y0213823D02*
X0050200Y0213823D01*
X0050200Y0216221D02*
X0050200Y0216221D01*
X0050200Y0218620D02*
X0050200Y0218620D01*
X0055269Y0218620D02*
X0063500Y0218620D01*
X0063500Y0221018D02*
X0027400Y0221018D01*
X0027400Y0218620D02*
X0045131Y0218620D01*
X0043000Y0216221D02*
X0027400Y0216221D01*
X0027400Y0213823D02*
X0043000Y0213823D01*
X0043000Y0211424D02*
X0027400Y0211424D01*
X0027400Y0209026D02*
X0044498Y0209026D01*
X0053503Y0206627D02*
X0054260Y0206627D01*
X0055902Y0209026D02*
X0056659Y0209026D01*
X0057400Y0211424D02*
X0059057Y0211424D01*
X0057400Y0213823D02*
X0061456Y0213823D01*
X0063500Y0216221D02*
X0057400Y0216221D01*
X0063500Y0223417D02*
X0027400Y0223417D01*
X0027400Y0225815D02*
X0063500Y0225815D01*
X0063500Y0228214D02*
X0027400Y0228214D01*
X0027400Y0230613D02*
X0063500Y0230613D01*
X0063500Y0233011D02*
X0062887Y0233011D01*
X0058200Y0233011D02*
X0058200Y0233011D01*
X0058200Y0231306D02*
X0058200Y0238506D01*
X0058200Y0238506D01*
X0058200Y0231306D01*
X0058200Y0235410D02*
X0058200Y0235410D01*
X0058200Y0237808D02*
X0058200Y0237808D01*
X0058200Y0238506D02*
X0051000Y0238506D01*
X0058200Y0238506D01*
X0058200Y0238506D01*
X0058200Y0245706D01*
X0058200Y0238506D01*
X0058200Y0238506D01*
X0058200Y0240207D02*
X0058200Y0240207D01*
X0058200Y0242605D02*
X0058200Y0242605D01*
X0058200Y0245004D02*
X0058200Y0245004D01*
X0061885Y0245004D02*
X0066252Y0245004D01*
X0064314Y0242605D02*
X0064284Y0242605D01*
X0069125Y0247402D02*
X0027400Y0247402D01*
X0027400Y0245004D02*
X0054515Y0245004D01*
X0052116Y0242605D02*
X0027400Y0242605D01*
X0027400Y0240207D02*
X0051000Y0240207D01*
X0051000Y0237808D02*
X0027400Y0237808D01*
X0027400Y0235410D02*
X0051114Y0235410D01*
X0053513Y0233011D02*
X0027400Y0233011D01*
X0027400Y0249801D02*
X0142289Y0249801D01*
X0139891Y0252199D02*
X0027400Y0252199D01*
X0027400Y0254598D02*
X0137492Y0254598D01*
X0132265Y0256996D02*
X0027400Y0256996D01*
X0027400Y0259395D02*
X0129867Y0259395D01*
X0129400Y0261793D02*
X0027400Y0261793D01*
X0027400Y0264192D02*
X0127898Y0264192D01*
X0125499Y0266590D02*
X0027400Y0266590D01*
X0027400Y0268989D02*
X0123101Y0268989D01*
X0121641Y0270449D02*
X0121641Y0270449D01*
X0120702Y0271387D02*
X0027400Y0271387D01*
X0027400Y0273786D02*
X0038558Y0273786D01*
X0036713Y0274029D02*
X0036713Y0274029D01*
X0042200Y0273306D02*
X0042200Y0273306D01*
X0045842Y0273786D02*
X0119056Y0273786D01*
X0119587Y0272502D02*
X0119587Y0272502D01*
X0118400Y0276184D02*
X0052849Y0276184D01*
X0052800Y0276147D02*
X0052800Y0276147D01*
X0055975Y0278583D02*
X0099264Y0278583D01*
X0096866Y0280981D02*
X0058315Y0280981D01*
X0057191Y0279516D02*
X0057191Y0279516D01*
X0057191Y0279516D01*
X0060156Y0283380D02*
X0095400Y0283380D01*
X0095400Y0285778D02*
X0061335Y0285778D01*
X0062329Y0288177D02*
X0095400Y0288177D01*
X0095400Y0286506D02*
X0105200Y0286506D01*
X0105200Y0276706D01*
X0105200Y0286506D01*
X0105200Y0286506D01*
X0095400Y0286506D01*
X0095410Y0290575D02*
X0062882Y0290575D01*
X0062678Y0289019D02*
X0062678Y0289019D01*
X0063198Y0292974D02*
X0097808Y0292974D01*
X0100207Y0295372D02*
X0063286Y0295372D01*
X0062970Y0297771D02*
X0120343Y0297771D01*
X0117944Y0295372D02*
X0110193Y0295372D01*
X0112592Y0292974D02*
X0115545Y0292974D01*
X0105200Y0292974D02*
X0105200Y0292974D01*
X0105200Y0295372D02*
X0105200Y0295372D01*
X0105200Y0296306D02*
X0105200Y0286506D01*
X0105200Y0286506D01*
X0105200Y0286506D01*
X0105200Y0296306D01*
X0105200Y0290575D02*
X0105200Y0290575D01*
X0105200Y0288177D02*
X0105200Y0288177D01*
X0105200Y0285778D02*
X0105200Y0285778D01*
X0105200Y0283380D02*
X0105200Y0283380D01*
X0105200Y0280981D02*
X0105200Y0280981D01*
X0105200Y0278583D02*
X0105200Y0278583D01*
X0111136Y0278583D02*
X0117002Y0278583D01*
X0114603Y0280981D02*
X0113534Y0280981D01*
X0133398Y0278583D02*
X0159400Y0278583D01*
X0159400Y0276861D02*
X0161400Y0274861D01*
X0161400Y0269151D01*
X0159400Y0267151D01*
X0159400Y0259861D01*
X0164555Y0254706D01*
X0171845Y0254706D01*
X0177000Y0259861D01*
X0177000Y0267151D01*
X0175000Y0269151D01*
X0175000Y0274861D01*
X0177000Y0276861D01*
X0177000Y0284151D01*
X0174514Y0286638D01*
X0175400Y0287524D01*
X0175400Y0290506D01*
X0168200Y0290506D01*
X0168200Y0290506D01*
X0161000Y0290506D01*
X0161000Y0287524D01*
X0161886Y0286638D01*
X0159400Y0284151D01*
X0159400Y0276861D01*
X0160077Y0276184D02*
X0135139Y0276184D01*
X0137537Y0273786D02*
X0161400Y0273786D01*
X0161400Y0271387D02*
X0142764Y0271387D01*
X0145163Y0268989D02*
X0161237Y0268989D01*
X0159400Y0266590D02*
X0147000Y0266590D01*
X0147131Y0264192D02*
X0159400Y0264192D01*
X0159400Y0261793D02*
X0149530Y0261793D01*
X0151928Y0259395D02*
X0159867Y0259395D01*
X0162265Y0256996D02*
X0154327Y0256996D01*
X0156725Y0254598D02*
X0207492Y0254598D01*
X0205094Y0256996D02*
X0174135Y0256996D01*
X0176533Y0259395D02*
X0187129Y0259395D01*
X0189218Y0257306D02*
X0192200Y0257306D01*
X0195182Y0257306D01*
X0199400Y0261524D01*
X0199400Y0264506D01*
X0192200Y0264506D01*
X0192200Y0257306D01*
X0192200Y0264506D01*
X0192200Y0264506D01*
X0192200Y0264506D01*
X0185000Y0264506D01*
X0185000Y0261524D01*
X0189218Y0257306D01*
X0192200Y0259395D02*
X0192200Y0259395D01*
X0192200Y0261793D02*
X0192200Y0261793D01*
X0192200Y0264192D02*
X0192200Y0264192D01*
X0192200Y0264506D02*
X0192200Y0264506D01*
X0199400Y0264506D01*
X0199400Y0267489D01*
X0195182Y0271706D01*
X0192200Y0271706D01*
X0189218Y0271706D01*
X0185000Y0267489D01*
X0185000Y0264506D01*
X0192200Y0264506D01*
X0192200Y0271706D01*
X0192200Y0264506D01*
X0192200Y0264506D01*
X0192200Y0266590D02*
X0192200Y0266590D01*
X0192200Y0268989D02*
X0192200Y0268989D01*
X0192200Y0271387D02*
X0192200Y0271387D01*
X0195501Y0271387D02*
X0200400Y0271387D01*
X0200400Y0268989D02*
X0197900Y0268989D01*
X0199400Y0266590D02*
X0200400Y0266590D01*
X0200400Y0264192D02*
X0199400Y0264192D01*
X0199400Y0261793D02*
X0200964Y0261793D01*
X0202695Y0259395D02*
X0197271Y0259395D01*
X0185000Y0261793D02*
X0177000Y0261793D01*
X0177000Y0264192D02*
X0185000Y0264192D01*
X0185000Y0266590D02*
X0177000Y0266590D01*
X0175163Y0268989D02*
X0186500Y0268989D01*
X0188899Y0271387D02*
X0175000Y0271387D01*
X0175000Y0273786D02*
X0200400Y0273786D01*
X0200400Y0276184D02*
X0176323Y0276184D01*
X0177000Y0278583D02*
X0199673Y0278583D01*
X0198679Y0280981D02*
X0177000Y0280981D01*
X0177000Y0283380D02*
X0198400Y0283380D01*
X0198400Y0285778D02*
X0175373Y0285778D01*
X0175400Y0288177D02*
X0198400Y0288177D01*
X0198400Y0290575D02*
X0175400Y0290575D01*
X0175400Y0290506D02*
X0175400Y0293489D01*
X0171182Y0297706D01*
X0168200Y0297706D01*
X0165218Y0297706D01*
X0161000Y0293489D01*
X0161000Y0290506D01*
X0168200Y0290506D01*
X0168200Y0290506D01*
X0175400Y0290506D01*
X0175400Y0292974D02*
X0198656Y0292974D01*
X0199649Y0295372D02*
X0173516Y0295372D01*
X0168200Y0295372D02*
X0168200Y0295372D01*
X0168200Y0297706D02*
X0168200Y0290506D01*
X0168200Y0290506D01*
X0168200Y0297706D01*
X0168200Y0292974D02*
X0168200Y0292974D01*
X0168200Y0290575D02*
X0168200Y0290575D01*
X0162884Y0295372D02*
X0132456Y0295372D01*
X0134855Y0292974D02*
X0161000Y0292974D01*
X0161000Y0290575D02*
X0136600Y0290575D01*
X0136600Y0288177D02*
X0161000Y0288177D01*
X0161027Y0285778D02*
X0136600Y0285778D01*
X0136600Y0283380D02*
X0159400Y0283380D01*
X0159400Y0280981D02*
X0135797Y0280981D01*
X0130057Y0297771D02*
X0201919Y0297771D01*
X0232481Y0297771D02*
X0244834Y0297771D01*
X0241538Y0295372D02*
X0234751Y0295372D01*
X0235744Y0292974D02*
X0240095Y0292974D01*
X0239400Y0290575D02*
X0236000Y0290575D01*
X0236000Y0288177D02*
X0239400Y0288177D01*
X0240203Y0285778D02*
X0236000Y0285778D01*
X0236000Y0283380D02*
X0240263Y0283380D01*
X0239400Y0280981D02*
X0235721Y0280981D01*
X0234727Y0278583D02*
X0239400Y0278583D01*
X0240035Y0276184D02*
X0235139Y0276184D01*
X0237537Y0273786D02*
X0241393Y0273786D01*
X0239936Y0271387D02*
X0244483Y0271387D01*
X0245400Y0268989D02*
X0242334Y0268989D01*
X0244733Y0266590D02*
X0245400Y0266590D01*
X0272200Y0259890D02*
X0272200Y0249506D01*
X0272200Y0259890D01*
X0272200Y0259890D01*
X0272200Y0259395D02*
X0272200Y0259395D01*
X0272200Y0256996D02*
X0272200Y0256996D01*
X0272200Y0254598D02*
X0272200Y0254598D01*
X0272200Y0252199D02*
X0272200Y0252199D01*
X0272200Y0249801D02*
X0272200Y0249801D01*
X0272200Y0249506D02*
X0272200Y0249506D01*
X0282200Y0249506D02*
X0282200Y0244506D01*
X0276043Y0259395D02*
X0275708Y0259395D01*
X0274103Y0261793D02*
X0280176Y0261793D01*
X0281502Y0264192D02*
X0287269Y0264192D01*
X0285787Y0261793D02*
X0284224Y0261793D01*
X0283901Y0266590D02*
X0289667Y0266590D01*
X0292066Y0268989D02*
X0286299Y0268989D01*
X0288698Y0271387D02*
X0319464Y0271387D01*
X0320400Y0273786D02*
X0291096Y0273786D01*
X0287200Y0279506D02*
X0287200Y0287006D01*
X0302423Y0276184D02*
X0319051Y0276184D01*
X0318400Y0278583D02*
X0304727Y0278583D01*
X0305721Y0280981D02*
X0318400Y0280981D01*
X0319279Y0283380D02*
X0306000Y0283380D01*
X0306000Y0285778D02*
X0320746Y0285778D01*
X0320000Y0288177D02*
X0306000Y0288177D01*
X0306000Y0290575D02*
X0320000Y0290575D01*
X0320000Y0289506D02*
X0327200Y0289506D01*
X0327200Y0289506D01*
X0334400Y0289506D01*
X0334400Y0292489D01*
X0330182Y0296706D01*
X0327200Y0296706D01*
X0324218Y0296706D01*
X0320000Y0292489D01*
X0320000Y0289506D01*
X0320485Y0292974D02*
X0305744Y0292974D01*
X0304751Y0295372D02*
X0322884Y0295372D01*
X0327200Y0295372D02*
X0327200Y0295372D01*
X0327200Y0296706D02*
X0327200Y0289506D01*
X0327200Y0289506D01*
X0327200Y0296706D01*
X0327200Y0292974D02*
X0327200Y0292974D01*
X0327200Y0290575D02*
X0327200Y0290575D01*
X0333915Y0292974D02*
X0345202Y0292974D01*
X0345000Y0294506D02*
X0345000Y0294506D01*
X0345114Y0295372D02*
X0331516Y0295372D01*
X0334400Y0290575D02*
X0345518Y0290575D01*
X0345722Y0289019D02*
X0345722Y0289019D01*
X0346071Y0288177D02*
X0334400Y0288177D01*
X0333654Y0285778D02*
X0347065Y0285778D01*
X0347840Y0283906D02*
X0347840Y0283906D01*
X0348244Y0283380D02*
X0335121Y0283380D01*
X0336000Y0280981D02*
X0350085Y0280981D01*
X0352425Y0278583D02*
X0336000Y0278583D01*
X0335349Y0276184D02*
X0355551Y0276184D01*
X0355600Y0276147D02*
X0355600Y0276147D01*
X0360713Y0274029D02*
X0360713Y0274029D01*
X0362558Y0273786D02*
X0334000Y0273786D01*
X0334000Y0271387D02*
X0379701Y0271387D01*
X0379701Y0268989D02*
X0334000Y0268989D01*
X0333352Y0266590D02*
X0379701Y0266590D01*
X0379701Y0264192D02*
X0331502Y0264192D01*
X0329104Y0261793D02*
X0379701Y0261793D01*
X0379701Y0259395D02*
X0326705Y0259395D01*
X0327245Y0256996D02*
X0310114Y0256996D01*
X0311000Y0254598D02*
X0324846Y0254598D01*
X0323400Y0252199D02*
X0311000Y0252199D01*
X0311000Y0249801D02*
X0323400Y0249801D01*
X0323400Y0247402D02*
X0311000Y0247402D01*
X0311000Y0245004D02*
X0323081Y0245004D01*
X0332720Y0235410D02*
X0350353Y0235410D01*
X0351011Y0233011D02*
X0333312Y0233011D01*
X0335710Y0230613D02*
X0350600Y0230613D01*
X0350946Y0228214D02*
X0338024Y0228214D01*
X0339000Y0225815D02*
X0352220Y0225815D01*
X0355455Y0223417D02*
X0340734Y0223417D01*
X0341000Y0221018D02*
X0379701Y0221018D01*
X0379701Y0218620D02*
X0341000Y0218620D01*
X0341000Y0216221D02*
X0379701Y0216221D01*
X0379701Y0213823D02*
X0338962Y0213823D01*
X0336563Y0211424D02*
X0379701Y0211424D01*
X0379701Y0209026D02*
X0337297Y0209026D01*
X0339696Y0206627D02*
X0379701Y0206627D01*
X0379701Y0204229D02*
X0342094Y0204229D01*
X0344493Y0201830D02*
X0379701Y0201830D01*
X0379701Y0199432D02*
X0346891Y0199432D01*
X0349290Y0197033D02*
X0379701Y0197033D01*
X0379701Y0194635D02*
X0351688Y0194635D01*
X0354087Y0192236D02*
X0379701Y0192236D01*
X0379701Y0189838D02*
X0356485Y0189838D01*
X0361712Y0187439D02*
X0379701Y0187439D01*
X0379701Y0185041D02*
X0364111Y0185041D01*
X0366000Y0182642D02*
X0379701Y0182642D01*
X0379701Y0180244D02*
X0366000Y0180244D01*
X0366000Y0177845D02*
X0379701Y0177845D01*
X0379701Y0175447D02*
X0365586Y0175447D01*
X0363187Y0173048D02*
X0379701Y0173048D01*
X0379701Y0170650D02*
X0341000Y0170650D01*
X0341000Y0173048D02*
X0351213Y0173048D01*
X0348814Y0175447D02*
X0339000Y0175447D01*
X0339000Y0177845D02*
X0348400Y0177845D01*
X0346846Y0180244D02*
X0340383Y0180244D01*
X0341000Y0182642D02*
X0344447Y0182642D01*
X0342049Y0185041D02*
X0341000Y0185041D01*
X0332200Y0184506D02*
X0332200Y0189506D01*
X0323400Y0187439D02*
X0321000Y0187439D01*
X0321000Y0185041D02*
X0323400Y0185041D01*
X0323400Y0182642D02*
X0321000Y0182642D01*
X0320383Y0180244D02*
X0324017Y0180244D01*
X0325400Y0177845D02*
X0317984Y0177845D01*
X0318705Y0175447D02*
X0325400Y0175447D01*
X0323400Y0173048D02*
X0321000Y0173048D01*
X0321000Y0170650D02*
X0323400Y0170650D01*
X0323400Y0168251D02*
X0321000Y0168251D01*
X0320991Y0165853D02*
X0323409Y0165853D01*
X0325400Y0163454D02*
X0318593Y0163454D01*
X0318096Y0161056D02*
X0325400Y0161056D01*
X0323906Y0158657D02*
X0320494Y0158657D01*
X0321000Y0156259D02*
X0323400Y0156259D01*
X0323400Y0153860D02*
X0321000Y0153860D01*
X0321000Y0151462D02*
X0323400Y0151462D01*
X0325198Y0149063D02*
X0319202Y0149063D01*
X0317487Y0146665D02*
X0325400Y0146665D01*
X0324515Y0144266D02*
X0319885Y0144266D01*
X0321000Y0141868D02*
X0323400Y0141868D01*
X0323400Y0139469D02*
X0321000Y0139469D01*
X0321000Y0137071D02*
X0323400Y0137071D01*
X0324589Y0134672D02*
X0319811Y0134672D01*
X0317412Y0132274D02*
X0326988Y0132274D01*
X0337412Y0132274D02*
X0346700Y0132274D01*
X0346700Y0134672D02*
X0339811Y0134672D01*
X0341000Y0137071D02*
X0346700Y0137071D01*
X0346700Y0139469D02*
X0341000Y0139469D01*
X0341000Y0141868D02*
X0346700Y0141868D01*
X0346700Y0144266D02*
X0339885Y0144266D01*
X0339000Y0146665D02*
X0346700Y0146665D01*
X0346700Y0149063D02*
X0339202Y0149063D01*
X0341000Y0151462D02*
X0346700Y0151462D01*
X0346700Y0151600D02*
X0346700Y0113784D01*
X0340084Y0107169D01*
X0339571Y0106655D01*
X0339468Y0106613D01*
X0336779Y0103923D01*
X0335323Y0100408D01*
X0335323Y0096604D01*
X0336779Y0093090D01*
X0339468Y0090400D01*
X0342983Y0088944D01*
X0346787Y0088944D01*
X0346937Y0089006D01*
X0348062Y0089006D01*
X0348419Y0088911D01*
X0349146Y0089006D01*
X0349880Y0089006D01*
X0349962Y0089040D01*
X0350138Y0089040D01*
X0350480Y0089182D01*
X0350847Y0089230D01*
X0351282Y0089481D01*
X0351766Y0089611D01*
X0352060Y0089836D01*
X0352401Y0089977D01*
X0352526Y0090102D01*
X0352608Y0090137D01*
X0353127Y0090655D01*
X0353709Y0091102D01*
X0353894Y0091422D01*
X0365315Y0102844D01*
X0366863Y0104391D01*
X0367700Y0106412D01*
X0367700Y0148368D01*
X0367796Y0148725D01*
X0367700Y0149453D01*
X0367700Y0150186D01*
X0367666Y0150268D01*
X0367666Y0150445D01*
X0367524Y0150787D01*
X0367476Y0151154D01*
X0367225Y0151588D01*
X0367095Y0152072D01*
X0366870Y0152366D01*
X0366729Y0152707D01*
X0366604Y0152832D01*
X0366570Y0152915D01*
X0366051Y0153433D01*
X0365604Y0154015D01*
X0365284Y0154200D01*
X0363863Y0155622D01*
X0362315Y0157169D01*
X0361747Y0157404D01*
X0360845Y0158306D01*
X0353555Y0158306D01*
X0353192Y0157943D01*
X0352920Y0157831D01*
X0352553Y0157782D01*
X0352118Y0157532D01*
X0351634Y0157402D01*
X0351340Y0157177D01*
X0350999Y0157035D01*
X0350874Y0156910D01*
X0350792Y0156876D01*
X0350273Y0156357D01*
X0349691Y0155911D01*
X0349506Y0155590D01*
X0349084Y0155169D01*
X0347537Y0153622D01*
X0346700Y0151600D01*
X0347776Y0153860D02*
X0341000Y0153860D01*
X0341000Y0156259D02*
X0350144Y0156259D01*
X0340494Y0158657D02*
X0379701Y0158657D01*
X0379701Y0156259D02*
X0363226Y0156259D01*
X0365724Y0153860D02*
X0379701Y0153860D01*
X0379701Y0151462D02*
X0367298Y0151462D01*
X0367751Y0149063D02*
X0379701Y0149063D01*
X0379701Y0146665D02*
X0367700Y0146665D01*
X0367700Y0144266D02*
X0379701Y0144266D01*
X0379701Y0141868D02*
X0367700Y0141868D01*
X0367700Y0139469D02*
X0379701Y0139469D01*
X0379701Y0137071D02*
X0367700Y0137071D01*
X0367700Y0134672D02*
X0379701Y0134672D01*
X0379701Y0132274D02*
X0367700Y0132274D01*
X0367700Y0129875D02*
X0379701Y0129875D01*
X0379701Y0127477D02*
X0367700Y0127477D01*
X0367700Y0125078D02*
X0379701Y0125078D01*
X0379701Y0122680D02*
X0367700Y0122680D01*
X0367700Y0120281D02*
X0379701Y0120281D01*
X0379701Y0117882D02*
X0367700Y0117882D01*
X0367700Y0115484D02*
X0379701Y0115484D01*
X0379701Y0113085D02*
X0367700Y0113085D01*
X0367700Y0110687D02*
X0379701Y0110687D01*
X0379701Y0108288D02*
X0367700Y0108288D01*
X0367484Y0105890D02*
X0379701Y0105890D01*
X0379701Y0103491D02*
X0365963Y0103491D01*
X0363565Y0101093D02*
X0379701Y0101093D01*
X0379701Y0098694D02*
X0361166Y0098694D01*
X0358768Y0096296D02*
X0379701Y0096296D01*
X0379701Y0093897D02*
X0356369Y0093897D01*
X0353971Y0091499D02*
X0379701Y0091499D01*
X0379701Y0089100D02*
X0350283Y0089100D01*
X0342606Y0089100D02*
X0262283Y0089100D01*
X0265992Y0091499D02*
X0301728Y0091499D01*
X0301986Y0091350D02*
X0302950Y0090950D01*
X0303958Y0090680D01*
X0304993Y0090544D01*
X0305515Y0090544D01*
X0306037Y0090544D01*
X0307072Y0090680D01*
X0308080Y0090950D01*
X0309044Y0091350D01*
X0309948Y0091872D01*
X0310776Y0092507D01*
X0311514Y0093245D01*
X0312149Y0094073D01*
X0312671Y0094977D01*
X0313071Y0095941D01*
X0313341Y0096950D01*
X0313477Y0097984D01*
X0313477Y0098506D01*
X0305515Y0098506D01*
X0305515Y0090544D01*
X0305515Y0098506D01*
X0305515Y0098506D01*
X0305515Y0098506D01*
X0297553Y0098506D01*
X0297553Y0097984D01*
X0297689Y0096950D01*
X0297959Y0095941D01*
X0298359Y0094977D01*
X0298880Y0094073D01*
X0299516Y0093245D01*
X0300254Y0092507D01*
X0301082Y0091872D01*
X0301986Y0091350D01*
X0305515Y0091499D02*
X0305515Y0091499D01*
X0305515Y0093897D02*
X0305515Y0093897D01*
X0305515Y0096296D02*
X0305515Y0096296D01*
X0305515Y0098506D02*
X0305515Y0098506D01*
X0313477Y0098506D01*
X0313477Y0099028D01*
X0313341Y0100063D01*
X0313071Y0101071D01*
X0312671Y0102035D01*
X0312149Y0102939D01*
X0311514Y0103767D01*
X0310776Y0104505D01*
X0309948Y0105141D01*
X0309044Y0105663D01*
X0308080Y0106062D01*
X0307072Y0106332D01*
X0306037Y0106468D01*
X0305515Y0106468D01*
X0305515Y0098506D01*
X0297553Y0098506D01*
X0297553Y0099028D01*
X0297689Y0100063D01*
X0297959Y0101071D01*
X0298359Y0102035D01*
X0298880Y0102939D01*
X0299516Y0103767D01*
X0300254Y0104505D01*
X0301082Y0105141D01*
X0301986Y0105663D01*
X0302950Y0106062D01*
X0303958Y0106332D01*
X0304993Y0106468D01*
X0305515Y0106468D01*
X0305515Y0098506D01*
X0305515Y0098506D01*
X0305515Y0098694D02*
X0305515Y0098694D01*
X0305515Y0101093D02*
X0305515Y0101093D01*
X0305515Y0103491D02*
X0305515Y0103491D01*
X0305515Y0105890D02*
X0305515Y0105890D01*
X0308496Y0105890D02*
X0322219Y0105890D01*
X0322635Y0106062D02*
X0321671Y0105663D01*
X0320767Y0105141D01*
X0319939Y0104505D01*
X0319201Y0103767D01*
X0318565Y0102939D01*
X0318044Y0102035D01*
X0317644Y0101071D01*
X0317374Y0100063D01*
X0317238Y0099028D01*
X0317238Y0098506D01*
X0317238Y0097984D01*
X0317374Y0096950D01*
X0317644Y0095941D01*
X0318044Y0094977D01*
X0318565Y0094073D01*
X0319201Y0093245D01*
X0319939Y0092507D01*
X0320767Y0091872D01*
X0321671Y0091350D01*
X0322635Y0090950D01*
X0323643Y0090680D01*
X0324678Y0090544D01*
X0325200Y0090544D01*
X0325722Y0090544D01*
X0326757Y0090680D01*
X0327765Y0090950D01*
X0328729Y0091350D01*
X0329633Y0091872D01*
X0330461Y0092507D01*
X0331199Y0093245D01*
X0331835Y0094073D01*
X0332356Y0094977D01*
X0332756Y0095941D01*
X0333026Y0096950D01*
X0333162Y0097984D01*
X0333162Y0098506D01*
X0325200Y0098506D01*
X0325200Y0090544D01*
X0325200Y0098506D01*
X0325200Y0098506D01*
X0325200Y0098506D01*
X0317238Y0098506D01*
X0325200Y0098506D01*
X0325200Y0098506D01*
X0333162Y0098506D01*
X0333162Y0099028D01*
X0333026Y0100063D01*
X0332756Y0101071D01*
X0332356Y0102035D01*
X0331835Y0102939D01*
X0331199Y0103767D01*
X0330461Y0104505D01*
X0329633Y0105141D01*
X0328729Y0105663D01*
X0327765Y0106062D01*
X0326757Y0106332D01*
X0325722Y0106468D01*
X0325200Y0106468D01*
X0325200Y0098506D01*
X0325200Y0106468D01*
X0324678Y0106468D01*
X0323643Y0106332D01*
X0322635Y0106062D01*
X0325200Y0105890D02*
X0325200Y0105890D01*
X0325200Y0103491D02*
X0325200Y0103491D01*
X0325200Y0101093D02*
X0325200Y0101093D01*
X0325200Y0098694D02*
X0325200Y0098694D01*
X0325200Y0098506D02*
X0325200Y0098506D01*
X0325200Y0096296D02*
X0325200Y0096296D01*
X0325200Y0093897D02*
X0325200Y0093897D01*
X0325200Y0091499D02*
X0325200Y0091499D01*
X0328987Y0091499D02*
X0338369Y0091499D01*
X0336444Y0093897D02*
X0331700Y0093897D01*
X0332851Y0096296D02*
X0335451Y0096296D01*
X0335323Y0098694D02*
X0333162Y0098694D01*
X0332747Y0101093D02*
X0335606Y0101093D01*
X0336600Y0103491D02*
X0331411Y0103491D01*
X0328181Y0105890D02*
X0338746Y0105890D01*
X0341204Y0108288D02*
X0282167Y0108288D01*
X0282200Y0110687D02*
X0343602Y0110687D01*
X0346001Y0113085D02*
X0282200Y0113085D01*
X0282200Y0115484D02*
X0346700Y0115484D01*
X0346700Y0117882D02*
X0282000Y0117882D01*
X0282000Y0120281D02*
X0346700Y0120281D01*
X0346700Y0122680D02*
X0282000Y0122680D01*
X0282000Y0125078D02*
X0346700Y0125078D01*
X0346700Y0127477D02*
X0282000Y0127477D01*
X0282000Y0129875D02*
X0346700Y0129875D01*
X0318989Y0103491D02*
X0311726Y0103491D01*
X0313062Y0101093D02*
X0317653Y0101093D01*
X0317238Y0098694D02*
X0313477Y0098694D01*
X0313166Y0096296D02*
X0317549Y0096296D01*
X0318700Y0093897D02*
X0312015Y0093897D01*
X0309302Y0091499D02*
X0321413Y0091499D01*
X0299015Y0093897D02*
X0268472Y0093897D01*
X0270952Y0096296D02*
X0297864Y0096296D01*
X0297553Y0098694D02*
X0273432Y0098694D01*
X0275912Y0101093D02*
X0297968Y0101093D01*
X0299304Y0103491D02*
X0278392Y0103491D01*
X0280872Y0105890D02*
X0302534Y0105890D01*
X0306988Y0132274D02*
X0282000Y0132274D01*
X0282000Y0134672D02*
X0297418Y0134672D01*
X0295019Y0137071D02*
X0282000Y0137071D01*
X0282000Y0139469D02*
X0292621Y0139469D01*
X0263200Y0138506D02*
X0228200Y0138506D01*
X0209200Y0138506D01*
X0201067Y0141868D02*
X0166685Y0141868D01*
X0166685Y0144266D02*
X0202515Y0144266D01*
X0202000Y0146665D02*
X0166685Y0146665D01*
X0166685Y0149063D02*
X0202000Y0149063D01*
X0202000Y0148506D02*
X0209200Y0148506D01*
X0209200Y0148506D01*
X0216400Y0148506D01*
X0216400Y0151489D01*
X0212182Y0155706D01*
X0209200Y0155706D01*
X0206218Y0155706D01*
X0202000Y0151489D01*
X0202000Y0148506D01*
X0202000Y0151462D02*
X0166685Y0151462D01*
X0166685Y0153860D02*
X0204372Y0153860D01*
X0209200Y0153860D02*
X0209200Y0153860D01*
X0209200Y0155706D02*
X0209200Y0148506D01*
X0209200Y0148506D01*
X0209200Y0155706D01*
X0209200Y0151462D02*
X0209200Y0151462D01*
X0209200Y0149063D02*
X0209200Y0149063D01*
X0214028Y0153860D02*
X0240400Y0153860D01*
X0240400Y0156259D02*
X0166685Y0156259D01*
X0166685Y0158657D02*
X0240400Y0158657D01*
X0242304Y0161056D02*
X0166685Y0161056D01*
X0166685Y0163454D02*
X0223070Y0163454D01*
X0221000Y0165524D02*
X0221000Y0168506D01*
X0228200Y0168506D01*
X0228200Y0161306D01*
X0231182Y0161306D01*
X0235400Y0165524D01*
X0235400Y0168506D01*
X0228200Y0168506D01*
X0228200Y0168506D01*
X0228200Y0161306D01*
X0225218Y0161306D01*
X0221000Y0165524D01*
X0221000Y0165853D02*
X0167226Y0165853D01*
X0167600Y0168251D02*
X0221000Y0168251D01*
X0221000Y0168506D02*
X0228200Y0168506D01*
X0228200Y0168506D01*
X0228200Y0168506D01*
X0235400Y0168506D01*
X0235400Y0171489D01*
X0231182Y0175706D01*
X0228200Y0175706D01*
X0225218Y0175706D01*
X0221000Y0171489D01*
X0221000Y0168506D01*
X0221000Y0170650D02*
X0167437Y0170650D01*
X0166444Y0173048D02*
X0222560Y0173048D01*
X0224958Y0175447D02*
X0167058Y0175447D01*
X0167600Y0177845D02*
X0244416Y0177845D01*
X0242017Y0180244D02*
X0167600Y0180244D01*
X0165859Y0197033D02*
X0225110Y0197033D01*
X0227509Y0199432D02*
X0165940Y0199432D01*
X0166000Y0198978D02*
X0165877Y0199914D01*
X0165633Y0200826D01*
X0165271Y0201698D01*
X0164799Y0202515D01*
X0164225Y0203264D01*
X0163557Y0203931D01*
X0162809Y0204506D01*
X0161991Y0204978D01*
X0161119Y0205339D01*
X0160208Y0205583D01*
X0159272Y0205706D01*
X0155200Y0205706D01*
X0151128Y0205706D01*
X0150192Y0205583D01*
X0149281Y0205339D01*
X0148409Y0204978D01*
X0147591Y0204506D01*
X0146843Y0203931D01*
X0146175Y0203264D01*
X0145601Y0202515D01*
X0145129Y0201698D01*
X0144767Y0200826D01*
X0144523Y0199914D01*
X0144400Y0198978D01*
X0144400Y0198506D01*
X0155200Y0198506D01*
X0155200Y0198506D01*
X0166000Y0198506D01*
X0166000Y0198978D01*
X0165195Y0201830D02*
X0229907Y0201830D01*
X0232306Y0204229D02*
X0163169Y0204229D01*
X0155200Y0204229D02*
X0155200Y0204229D01*
X0155200Y0205706D02*
X0155200Y0198506D01*
X0155200Y0198506D01*
X0155200Y0205706D01*
X0155200Y0201830D02*
X0155200Y0201830D01*
X0155200Y0199432D02*
X0155200Y0199432D01*
X0147231Y0204229D02*
X0144000Y0204229D01*
X0144000Y0206627D02*
X0234704Y0206627D01*
X0234341Y0209026D02*
X0235400Y0209026D01*
X0232200Y0209026D02*
X0232200Y0209026D01*
X0232200Y0208706D02*
X0232200Y0219506D01*
X0232200Y0219506D01*
X0232200Y0208706D01*
X0230059Y0209026D02*
X0143427Y0209026D01*
X0142902Y0211424D02*
X0212100Y0211424D01*
X0210000Y0213524D02*
X0214218Y0209306D01*
X0217200Y0209306D01*
X0220182Y0209306D01*
X0224400Y0213524D01*
X0224400Y0216506D01*
X0217200Y0216506D01*
X0217200Y0209306D01*
X0217200Y0216506D01*
X0217200Y0216506D01*
X0217200Y0216506D01*
X0210000Y0216506D01*
X0210000Y0213524D01*
X0210000Y0213823D02*
X0142900Y0213823D01*
X0142900Y0216221D02*
X0190303Y0216221D01*
X0187904Y0218620D02*
X0142900Y0218620D01*
X0142900Y0221018D02*
X0187000Y0221018D01*
X0187000Y0223417D02*
X0142900Y0223417D01*
X0142900Y0225815D02*
X0187327Y0225815D01*
X0189725Y0228214D02*
X0170353Y0228214D01*
X0162047Y0228214D02*
X0142900Y0228214D01*
X0142900Y0230613D02*
X0159649Y0230613D01*
X0157400Y0233011D02*
X0142900Y0233011D01*
X0142900Y0235410D02*
X0156680Y0235410D01*
X0154282Y0237808D02*
X0141959Y0237808D01*
X0139561Y0240207D02*
X0151883Y0240207D01*
X0149485Y0242605D02*
X0137162Y0242605D01*
X0134764Y0245004D02*
X0147086Y0245004D01*
X0144688Y0247402D02*
X0132275Y0247402D01*
X0126200Y0236506D02*
X0120200Y0230506D01*
X0120200Y0213506D01*
X0130200Y0213506D01*
X0135200Y0208506D01*
X0144000Y0201830D02*
X0145205Y0201830D01*
X0144460Y0199432D02*
X0144000Y0199432D01*
X0144000Y0197033D02*
X0144541Y0197033D01*
X0144000Y0194635D02*
X0145283Y0194635D01*
X0120200Y0230506D02*
X0112200Y0238506D01*
X0105636Y0245004D02*
X0104148Y0245004D01*
X0101275Y0247402D02*
X0108125Y0247402D01*
X0098200Y0238506D02*
X0090200Y0230506D01*
X0090200Y0213506D01*
X0080200Y0213506D01*
X0080200Y0230506D01*
X0072200Y0238506D01*
X0075200Y0213506D02*
X0080200Y0213506D01*
X0075200Y0213506D02*
X0060200Y0198506D01*
X0060200Y0123506D01*
X0080200Y0123506D01*
X0080200Y0133506D01*
X0105200Y0133506D01*
X0110200Y0138506D01*
X0117630Y0129875D02*
X0118400Y0129875D01*
X0118400Y0127477D02*
X0115231Y0127477D01*
X0117155Y0125078D02*
X0112833Y0125078D01*
X0114757Y0122680D02*
X0110434Y0122680D01*
X0112641Y0120564D02*
X0112641Y0120564D01*
X0112358Y0120281D02*
X0108036Y0120281D01*
X0110587Y0118510D02*
X0110587Y0118510D01*
X0110728Y0118651D02*
X0110728Y0118651D01*
X0110327Y0117882D02*
X0105637Y0117882D01*
X0109400Y0115484D02*
X0099271Y0115484D01*
X0099337Y0113085D02*
X0109400Y0113085D01*
X0109400Y0110687D02*
X0098922Y0110687D01*
X0097904Y0108288D02*
X0109400Y0108288D01*
X0109400Y0105890D02*
X0095505Y0105890D01*
X0084895Y0105890D02*
X0055505Y0105890D01*
X0057904Y0108288D02*
X0082496Y0108288D01*
X0081478Y0110687D02*
X0058922Y0110687D01*
X0059337Y0113085D02*
X0081063Y0113085D01*
X0081129Y0115484D02*
X0059271Y0115484D01*
X0166805Y0122680D02*
X0200500Y0122680D01*
X0200500Y0125078D02*
X0166685Y0125078D01*
X0166685Y0127477D02*
X0200500Y0127477D01*
X0200500Y0129875D02*
X0166685Y0129875D01*
X0166685Y0132274D02*
X0200500Y0132274D01*
X0200500Y0134672D02*
X0166685Y0134672D01*
X0166685Y0137071D02*
X0200400Y0137071D01*
X0200400Y0139469D02*
X0166685Y0139469D01*
X0169203Y0120281D02*
X0200500Y0120281D01*
X0200500Y0117882D02*
X0171602Y0117882D01*
X0174000Y0115484D02*
X0200500Y0115484D01*
X0200500Y0113085D02*
X0176399Y0113085D01*
X0178856Y0110687D02*
X0200500Y0110687D01*
X0200500Y0108288D02*
X0180398Y0108288D01*
X0180774Y0105890D02*
X0200500Y0105890D01*
X0201279Y0103491D02*
X0180700Y0103491D01*
X0180700Y0101093D02*
X0203552Y0101093D01*
X0205951Y0098694D02*
X0180700Y0098694D01*
X0180652Y0096296D02*
X0208349Y0096296D01*
X0210748Y0093897D02*
X0179369Y0093897D01*
X0177401Y0091499D02*
X0212999Y0091499D01*
X0217236Y0089100D02*
X0173283Y0089100D01*
X0168697Y0086702D02*
X0379701Y0086702D01*
X0379701Y0161056D02*
X0339000Y0161056D01*
X0339000Y0163454D02*
X0379701Y0163454D01*
X0379701Y0165853D02*
X0340991Y0165853D01*
X0341000Y0168251D02*
X0379701Y0168251D01*
X0379701Y0223417D02*
X0368945Y0223417D01*
X0372180Y0225815D02*
X0379701Y0225815D01*
X0379701Y0228214D02*
X0373454Y0228214D01*
X0373800Y0230613D02*
X0379701Y0230613D01*
X0379701Y0233011D02*
X0373389Y0233011D01*
X0374047Y0235410D02*
X0379701Y0235410D01*
X0379701Y0237808D02*
X0375040Y0237808D01*
X0375400Y0240207D02*
X0379701Y0240207D01*
X0379701Y0242605D02*
X0375289Y0242605D01*
X0374295Y0245004D02*
X0379701Y0245004D01*
X0379701Y0247402D02*
X0372315Y0247402D01*
X0366522Y0249801D02*
X0379701Y0249801D01*
X0379701Y0252199D02*
X0364124Y0252199D01*
X0361725Y0254598D02*
X0379701Y0254598D01*
X0379701Y0256996D02*
X0337155Y0256996D01*
X0338773Y0242605D02*
X0349111Y0242605D01*
X0349000Y0240207D02*
X0337517Y0240207D01*
X0336052Y0238742D02*
X0336052Y0238742D01*
X0335118Y0237808D02*
X0349360Y0237808D01*
X0362200Y0228214D02*
X0362200Y0228214D01*
X0362200Y0225815D02*
X0362200Y0225815D01*
X0362200Y0223417D02*
X0362200Y0223417D01*
X0369842Y0273786D02*
X0379701Y0273786D01*
X0379701Y0276184D02*
X0376849Y0276184D01*
X0376800Y0276147D02*
X0376800Y0276147D01*
X0345430Y0297771D02*
X0302481Y0297771D01*
X0271919Y0297771D02*
X0259566Y0297771D01*
X0209891Y0252199D02*
X0159124Y0252199D01*
X0161522Y0249801D02*
X0212289Y0249801D01*
X0214688Y0247402D02*
X0163921Y0247402D01*
X0170148Y0245004D02*
X0191719Y0245004D01*
X0196681Y0245004D02*
X0213252Y0245004D01*
X0213047Y0228214D02*
X0198675Y0228214D01*
X0201073Y0225815D02*
X0225529Y0225815D01*
X0225000Y0223417D02*
X0220472Y0223417D01*
X0220182Y0223706D02*
X0217200Y0223706D01*
X0214218Y0223706D01*
X0210000Y0219489D01*
X0210000Y0216506D01*
X0217200Y0216506D01*
X0217200Y0216506D01*
X0224400Y0216506D01*
X0224400Y0219489D01*
X0220182Y0223706D01*
X0217200Y0223706D02*
X0217200Y0216506D01*
X0217200Y0223706D01*
X0217200Y0223417D02*
X0217200Y0223417D01*
X0217200Y0221018D02*
X0217200Y0221018D01*
X0217200Y0218620D02*
X0217200Y0218620D01*
X0217200Y0216506D02*
X0217200Y0216506D01*
X0217200Y0216221D02*
X0217200Y0216221D01*
X0217200Y0213823D02*
X0217200Y0213823D01*
X0217200Y0211424D02*
X0217200Y0211424D01*
X0222300Y0211424D02*
X0226564Y0211424D01*
X0225304Y0213823D02*
X0224400Y0213823D01*
X0224400Y0216221D02*
X0225000Y0216221D01*
X0225000Y0218620D02*
X0224400Y0218620D01*
X0225000Y0219506D02*
X0232200Y0219506D01*
X0232200Y0219506D01*
X0225000Y0219506D01*
X0225000Y0221018D02*
X0222870Y0221018D01*
X0221353Y0228214D02*
X0227125Y0228214D01*
X0232200Y0218620D02*
X0232200Y0218620D01*
X0232200Y0216221D02*
X0232200Y0216221D01*
X0232200Y0213823D02*
X0232200Y0213823D01*
X0232200Y0211424D02*
X0232200Y0211424D01*
X0244344Y0197033D02*
X0245400Y0197033D01*
X0245400Y0194635D02*
X0241945Y0194635D01*
X0243485Y0192236D02*
X0239547Y0192236D01*
X0241086Y0189838D02*
X0237148Y0189838D01*
X0234750Y0187439D02*
X0240400Y0187439D01*
X0240400Y0185041D02*
X0232351Y0185041D01*
X0230345Y0183034D02*
X0230345Y0183034D01*
X0230204Y0182894D02*
X0230204Y0182894D01*
X0229597Y0182642D02*
X0240400Y0182642D01*
X0231442Y0175447D02*
X0255400Y0175447D01*
X0255400Y0177845D02*
X0253984Y0177845D01*
X0255297Y0173048D02*
X0233840Y0173048D01*
X0235400Y0170650D02*
X0254400Y0170650D01*
X0254400Y0168251D02*
X0235400Y0168251D01*
X0235400Y0165853D02*
X0254400Y0165853D01*
X0253697Y0163454D02*
X0255807Y0163454D01*
X0244703Y0163454D02*
X0233330Y0163454D01*
X0228200Y0163454D02*
X0228200Y0163454D01*
X0228200Y0165853D02*
X0228200Y0165853D01*
X0228200Y0168251D02*
X0228200Y0168251D01*
X0228200Y0168506D02*
X0228200Y0175706D01*
X0228200Y0168506D01*
X0228200Y0168506D01*
X0228200Y0170650D02*
X0228200Y0170650D01*
X0228200Y0173048D02*
X0228200Y0173048D01*
X0228200Y0175447D02*
X0228200Y0175447D01*
X0216400Y0151462D02*
X0240800Y0151462D01*
X0243198Y0149063D02*
X0216400Y0149063D01*
X0228200Y0138506D02*
X0239200Y0098506D01*
X0219515Y0098506D01*
X0221794Y0089100D02*
X0236921Y0089100D01*
X0241479Y0089100D02*
X0255879Y0089100D01*
X0252369Y0091499D02*
X0245716Y0091499D01*
X0247652Y0093897D02*
X0250337Y0093897D01*
X0258885Y0098506D02*
X0259200Y0098506D01*
X0258885Y0098506D02*
X0259200Y0098821D01*
X0282200Y0179506D02*
X0282200Y0184506D01*
X0213928Y0223417D02*
X0201400Y0223417D01*
X0201400Y0221018D02*
X0211530Y0221018D01*
X0210000Y0218620D02*
X0200496Y0218620D01*
X0198097Y0216221D02*
X0210000Y0216221D01*
X0194200Y0216221D02*
X0194200Y0216221D01*
X0194200Y0218620D02*
X0194200Y0218620D01*
X0194200Y0221018D02*
X0194200Y0221018D01*
X0062605Y0300169D02*
X0345795Y0300169D01*
X0345722Y0299993D02*
X0345722Y0299993D01*
X0346789Y0302568D02*
X0061611Y0302568D01*
X0060618Y0304966D02*
X0347782Y0304966D01*
X0347840Y0305106D02*
X0347840Y0305106D01*
X0349573Y0307365D02*
X0058827Y0307365D01*
X0060560Y0305106D02*
X0060560Y0305106D01*
X0031600Y0276147D02*
X0031600Y0276147D01*
X0031551Y0276184D02*
X0027400Y0276184D01*
X0027400Y0278583D02*
X0028425Y0278583D01*
X0047687Y0274029D02*
X0047687Y0274029D01*
D21*
X0102114Y0191372D02*
X0102355Y0191472D01*
X0102614Y0191506D01*
X0127786Y0191506D01*
X0128045Y0191472D01*
X0128286Y0191372D01*
X0128493Y0191213D01*
X0130200Y0189506D01*
X0130200Y0177921D01*
X0130166Y0177662D01*
X0096200Y0177662D01*
X0096200Y0177064D02*
X0129757Y0177064D01*
X0129907Y0177213D02*
X0128200Y0175506D01*
X0109614Y0175506D01*
X0109355Y0175472D01*
X0109114Y0175372D01*
X0108907Y0175213D01*
X0104200Y0170506D01*
X0104200Y0162921D01*
X0104166Y0162662D01*
X0104066Y0162421D01*
X0103907Y0162213D01*
X0101200Y0159506D01*
X0099614Y0159506D01*
X0099355Y0159540D01*
X0099114Y0159640D01*
X0098907Y0159799D01*
X0096200Y0162506D01*
X0096200Y0185092D01*
X0096234Y0185351D01*
X0096334Y0185592D01*
X0096493Y0185799D01*
X0101907Y0191213D01*
X0102114Y0191372D01*
X0102248Y0191428D02*
X0128152Y0191428D01*
X0128877Y0190829D02*
X0101523Y0190829D01*
X0100925Y0190231D02*
X0129475Y0190231D01*
X0130074Y0189632D02*
X0100326Y0189632D01*
X0099728Y0189034D02*
X0130200Y0189034D01*
X0130200Y0188435D02*
X0099129Y0188435D01*
X0098531Y0187837D02*
X0130200Y0187837D01*
X0130200Y0187238D02*
X0097932Y0187238D01*
X0097334Y0186640D02*
X0130200Y0186640D01*
X0130200Y0186041D02*
X0096735Y0186041D01*
X0096272Y0185443D02*
X0130200Y0185443D01*
X0130200Y0184844D02*
X0096200Y0184844D01*
X0096200Y0184246D02*
X0130200Y0184246D01*
X0130200Y0183647D02*
X0096200Y0183647D01*
X0096200Y0183049D02*
X0130200Y0183049D01*
X0130200Y0182450D02*
X0096200Y0182450D01*
X0096200Y0181852D02*
X0130200Y0181852D01*
X0130200Y0181253D02*
X0096200Y0181253D01*
X0096200Y0180655D02*
X0130200Y0180655D01*
X0130200Y0180056D02*
X0096200Y0180056D01*
X0096200Y0179458D02*
X0130200Y0179458D01*
X0130200Y0178859D02*
X0096200Y0178859D01*
X0096200Y0178261D02*
X0130200Y0178261D01*
X0130166Y0177662D02*
X0130066Y0177421D01*
X0129907Y0177213D01*
X0129159Y0176465D02*
X0096200Y0176465D01*
X0096200Y0175867D02*
X0128560Y0175867D01*
X0108978Y0175268D02*
X0096200Y0175268D01*
X0096200Y0174670D02*
X0108363Y0174670D01*
X0107765Y0174071D02*
X0096200Y0174071D01*
X0096200Y0173473D02*
X0107166Y0173473D01*
X0106568Y0172874D02*
X0096200Y0172874D01*
X0096200Y0172276D02*
X0105969Y0172276D01*
X0105371Y0171677D02*
X0096200Y0171677D01*
X0096200Y0171079D02*
X0104772Y0171079D01*
X0104200Y0170480D02*
X0096200Y0170480D01*
X0096200Y0169882D02*
X0104200Y0169882D01*
X0104200Y0169283D02*
X0096200Y0169283D01*
X0096200Y0168684D02*
X0104200Y0168684D01*
X0104200Y0168086D02*
X0096200Y0168086D01*
X0096200Y0167487D02*
X0104200Y0167487D01*
X0104200Y0166889D02*
X0096200Y0166889D01*
X0096200Y0166290D02*
X0104200Y0166290D01*
X0104200Y0165692D02*
X0096200Y0165692D01*
X0096200Y0165093D02*
X0104200Y0165093D01*
X0104200Y0164495D02*
X0096200Y0164495D01*
X0096200Y0163896D02*
X0104200Y0163896D01*
X0104200Y0163298D02*
X0096200Y0163298D01*
X0096200Y0162699D02*
X0104171Y0162699D01*
X0103795Y0162101D02*
X0096605Y0162101D01*
X0097204Y0161502D02*
X0103196Y0161502D01*
X0102598Y0160904D02*
X0097802Y0160904D01*
X0098401Y0160305D02*
X0101999Y0160305D01*
X0101401Y0159707D02*
X0099027Y0159707D01*
X0074200Y0159707D02*
X0066200Y0159707D01*
X0066200Y0160305D02*
X0074200Y0160305D01*
X0074200Y0160904D02*
X0066200Y0160904D01*
X0066200Y0161502D02*
X0074200Y0161502D01*
X0074200Y0162101D02*
X0066200Y0162101D01*
X0066200Y0162699D02*
X0074200Y0162699D01*
X0074200Y0163298D02*
X0066200Y0163298D01*
X0066200Y0163896D02*
X0074200Y0163896D01*
X0074200Y0164495D02*
X0066200Y0164495D01*
X0066200Y0165093D02*
X0074200Y0165093D01*
X0074200Y0165692D02*
X0066200Y0165692D01*
X0066200Y0166290D02*
X0074200Y0166290D01*
X0074200Y0166889D02*
X0066200Y0166889D01*
X0066200Y0167487D02*
X0074200Y0167487D01*
X0074200Y0168086D02*
X0066200Y0168086D01*
X0066200Y0168684D02*
X0074200Y0168684D01*
X0074200Y0169283D02*
X0066200Y0169283D01*
X0066200Y0169882D02*
X0074200Y0169882D01*
X0074200Y0170480D02*
X0066200Y0170480D01*
X0066200Y0171079D02*
X0074200Y0171079D01*
X0074200Y0171677D02*
X0066200Y0171677D01*
X0066200Y0172276D02*
X0074200Y0172276D01*
X0074200Y0172874D02*
X0066200Y0172874D01*
X0066200Y0173473D02*
X0074200Y0173473D01*
X0074200Y0174071D02*
X0066200Y0174071D01*
X0066200Y0174670D02*
X0074200Y0174670D01*
X0074200Y0175268D02*
X0066200Y0175268D01*
X0066200Y0175867D02*
X0074200Y0175867D01*
X0074200Y0176465D02*
X0066200Y0176465D01*
X0066200Y0177064D02*
X0074200Y0177064D01*
X0074200Y0177662D02*
X0066200Y0177662D01*
X0066200Y0178261D02*
X0074200Y0178261D01*
X0074200Y0178859D02*
X0066200Y0178859D01*
X0066200Y0179458D02*
X0074200Y0179458D01*
X0074200Y0180056D02*
X0066200Y0180056D01*
X0066200Y0180506D02*
X0067907Y0182213D01*
X0068114Y0182372D01*
X0068355Y0182472D01*
X0068614Y0182506D01*
X0072200Y0182506D01*
X0073907Y0180799D01*
X0074066Y0180592D01*
X0074166Y0180351D01*
X0074200Y0180092D01*
X0074200Y0132921D01*
X0074166Y0132662D01*
X0074066Y0132421D01*
X0073907Y0132213D01*
X0072200Y0130506D01*
X0068200Y0130506D01*
X0066493Y0132213D01*
X0066334Y0132421D01*
X0066234Y0132662D01*
X0066200Y0132921D01*
X0066200Y0180506D01*
X0066348Y0180655D02*
X0074018Y0180655D01*
X0073453Y0181253D02*
X0066947Y0181253D01*
X0067545Y0181852D02*
X0072855Y0181852D01*
X0072256Y0182450D02*
X0068302Y0182450D01*
X0066200Y0159108D02*
X0074200Y0159108D01*
X0074200Y0158510D02*
X0066200Y0158510D01*
X0066200Y0157911D02*
X0074200Y0157911D01*
X0074200Y0157313D02*
X0066200Y0157313D01*
X0066200Y0156714D02*
X0074200Y0156714D01*
X0074200Y0156116D02*
X0066200Y0156116D01*
X0066200Y0155517D02*
X0074200Y0155517D01*
X0074200Y0154919D02*
X0066200Y0154919D01*
X0066200Y0154320D02*
X0074200Y0154320D01*
X0074200Y0153722D02*
X0066200Y0153722D01*
X0066200Y0153123D02*
X0074200Y0153123D01*
X0074200Y0152525D02*
X0066200Y0152525D01*
X0066200Y0151926D02*
X0074200Y0151926D01*
X0074200Y0151328D02*
X0066200Y0151328D01*
X0066200Y0150729D02*
X0074200Y0150729D01*
X0074200Y0150131D02*
X0066200Y0150131D01*
X0066200Y0149532D02*
X0074200Y0149532D01*
X0074200Y0148934D02*
X0066200Y0148934D01*
X0066200Y0148335D02*
X0074200Y0148335D01*
X0074200Y0147737D02*
X0066200Y0147737D01*
X0066200Y0147138D02*
X0074200Y0147138D01*
X0074200Y0146540D02*
X0066200Y0146540D01*
X0066200Y0145941D02*
X0074200Y0145941D01*
X0074200Y0145343D02*
X0066200Y0145343D01*
X0066200Y0144744D02*
X0074200Y0144744D01*
X0074200Y0144146D02*
X0066200Y0144146D01*
X0066200Y0143547D02*
X0074200Y0143547D01*
X0074200Y0142948D02*
X0066200Y0142948D01*
X0066200Y0142350D02*
X0074200Y0142350D01*
X0074200Y0141751D02*
X0066200Y0141751D01*
X0066200Y0141153D02*
X0074200Y0141153D01*
X0074200Y0140554D02*
X0066200Y0140554D01*
X0066200Y0139956D02*
X0074200Y0139956D01*
X0074200Y0139357D02*
X0066200Y0139357D01*
X0066200Y0138759D02*
X0074200Y0138759D01*
X0074200Y0138160D02*
X0066200Y0138160D01*
X0066200Y0137562D02*
X0074200Y0137562D01*
X0074200Y0136963D02*
X0066200Y0136963D01*
X0066200Y0136365D02*
X0074200Y0136365D01*
X0074200Y0135766D02*
X0066200Y0135766D01*
X0066200Y0135168D02*
X0074200Y0135168D01*
X0074200Y0134569D02*
X0066200Y0134569D01*
X0066200Y0133971D02*
X0074200Y0133971D01*
X0074200Y0133372D02*
X0066200Y0133372D01*
X0066219Y0132774D02*
X0074181Y0132774D01*
X0073869Y0132175D02*
X0066531Y0132175D01*
X0067130Y0131577D02*
X0073270Y0131577D01*
X0072672Y0130978D02*
X0067728Y0130978D01*
X0127234Y0116351D02*
X0127200Y0116092D01*
X0127200Y0096506D01*
X0128907Y0094799D01*
X0129114Y0094640D01*
X0129355Y0094540D01*
X0129614Y0094506D01*
X0155200Y0094506D01*
X0159907Y0099213D01*
X0160066Y0099421D01*
X0160166Y0099662D01*
X0160200Y0099921D01*
X0160200Y0109506D01*
X0152493Y0117213D01*
X0152334Y0117421D01*
X0152234Y0117662D01*
X0152200Y0117921D01*
X0152200Y0153092D01*
X0152166Y0153351D01*
X0152066Y0153592D01*
X0151907Y0153799D01*
X0146200Y0159506D01*
X0139614Y0159506D01*
X0139355Y0159472D01*
X0139114Y0159372D01*
X0138907Y0159213D01*
X0133200Y0153506D01*
X0133200Y0122506D01*
X0127493Y0116799D01*
X0127334Y0116592D01*
X0127234Y0116351D01*
X0127351Y0116614D02*
X0153092Y0116614D01*
X0152494Y0117213D02*
X0127906Y0117213D01*
X0128505Y0117811D02*
X0152214Y0117811D01*
X0152200Y0118410D02*
X0129103Y0118410D01*
X0129702Y0119008D02*
X0152200Y0119008D01*
X0152200Y0119607D02*
X0130300Y0119607D01*
X0130899Y0120205D02*
X0152200Y0120205D01*
X0152200Y0120804D02*
X0131497Y0120804D01*
X0132096Y0121402D02*
X0152200Y0121402D01*
X0152200Y0122001D02*
X0132694Y0122001D01*
X0133200Y0122599D02*
X0152200Y0122599D01*
X0152200Y0123198D02*
X0133200Y0123198D01*
X0133200Y0123796D02*
X0152200Y0123796D01*
X0152200Y0124395D02*
X0133200Y0124395D01*
X0133200Y0124993D02*
X0152200Y0124993D01*
X0152200Y0125592D02*
X0133200Y0125592D01*
X0133200Y0126190D02*
X0152200Y0126190D01*
X0152200Y0126789D02*
X0133200Y0126789D01*
X0133200Y0127387D02*
X0152200Y0127387D01*
X0152200Y0127986D02*
X0133200Y0127986D01*
X0133200Y0128584D02*
X0152200Y0128584D01*
X0152200Y0129183D02*
X0133200Y0129183D01*
X0133200Y0129781D02*
X0152200Y0129781D01*
X0152200Y0130380D02*
X0133200Y0130380D01*
X0133200Y0130978D02*
X0152200Y0130978D01*
X0152200Y0131577D02*
X0133200Y0131577D01*
X0133200Y0132175D02*
X0152200Y0132175D01*
X0152200Y0132774D02*
X0133200Y0132774D01*
X0133200Y0133372D02*
X0152200Y0133372D01*
X0152200Y0133971D02*
X0133200Y0133971D01*
X0133200Y0134569D02*
X0152200Y0134569D01*
X0152200Y0135168D02*
X0133200Y0135168D01*
X0133200Y0135766D02*
X0152200Y0135766D01*
X0152200Y0136365D02*
X0133200Y0136365D01*
X0133200Y0136963D02*
X0152200Y0136963D01*
X0152200Y0137562D02*
X0133200Y0137562D01*
X0133200Y0138160D02*
X0152200Y0138160D01*
X0152200Y0138759D02*
X0133200Y0138759D01*
X0133200Y0139357D02*
X0152200Y0139357D01*
X0152200Y0139956D02*
X0133200Y0139956D01*
X0133200Y0140554D02*
X0152200Y0140554D01*
X0152200Y0141153D02*
X0133200Y0141153D01*
X0133200Y0141751D02*
X0152200Y0141751D01*
X0152200Y0142350D02*
X0133200Y0142350D01*
X0133200Y0142948D02*
X0152200Y0142948D01*
X0152200Y0143547D02*
X0133200Y0143547D01*
X0133200Y0144146D02*
X0152200Y0144146D01*
X0152200Y0144744D02*
X0133200Y0144744D01*
X0133200Y0145343D02*
X0152200Y0145343D01*
X0152200Y0145941D02*
X0133200Y0145941D01*
X0133200Y0146540D02*
X0152200Y0146540D01*
X0152200Y0147138D02*
X0133200Y0147138D01*
X0133200Y0147737D02*
X0152200Y0147737D01*
X0152200Y0148335D02*
X0133200Y0148335D01*
X0133200Y0148934D02*
X0152200Y0148934D01*
X0152200Y0149532D02*
X0133200Y0149532D01*
X0133200Y0150131D02*
X0152200Y0150131D01*
X0152200Y0150729D02*
X0133200Y0150729D01*
X0133200Y0151328D02*
X0152200Y0151328D01*
X0152200Y0151926D02*
X0133200Y0151926D01*
X0133200Y0152525D02*
X0152200Y0152525D01*
X0152196Y0153123D02*
X0133200Y0153123D01*
X0133415Y0153722D02*
X0151967Y0153722D01*
X0151386Y0154320D02*
X0134014Y0154320D01*
X0134612Y0154919D02*
X0150788Y0154919D01*
X0150189Y0155517D02*
X0135211Y0155517D01*
X0135809Y0156116D02*
X0149591Y0156116D01*
X0148992Y0156714D02*
X0136408Y0156714D01*
X0137006Y0157313D02*
X0148394Y0157313D01*
X0147795Y0157911D02*
X0137605Y0157911D01*
X0138203Y0158510D02*
X0147197Y0158510D01*
X0146598Y0159108D02*
X0138802Y0159108D01*
X0162200Y0119506D02*
X0174907Y0106799D01*
X0175066Y0106592D01*
X0175166Y0106351D01*
X0175200Y0106092D01*
X0175200Y0097506D01*
X0172493Y0094799D01*
X0172286Y0094640D01*
X0172045Y0094540D01*
X0171786Y0094506D01*
X0167200Y0094506D01*
X0166493Y0095213D01*
X0166334Y0095421D01*
X0166234Y0095662D01*
X0166200Y0095921D01*
X0166200Y0111506D01*
X0162493Y0115213D01*
X0162334Y0115421D01*
X0162234Y0115662D01*
X0162200Y0115921D01*
X0162200Y0119506D01*
X0162200Y0119008D02*
X0162698Y0119008D01*
X0162200Y0118410D02*
X0163297Y0118410D01*
X0163895Y0117811D02*
X0162200Y0117811D01*
X0162200Y0117213D02*
X0164494Y0117213D01*
X0165092Y0116614D02*
X0162200Y0116614D01*
X0162200Y0116015D02*
X0165691Y0116015D01*
X0166289Y0115417D02*
X0162337Y0115417D01*
X0162888Y0114818D02*
X0166888Y0114818D01*
X0167486Y0114220D02*
X0163486Y0114220D01*
X0164085Y0113621D02*
X0168085Y0113621D01*
X0168683Y0113023D02*
X0164683Y0113023D01*
X0165282Y0112424D02*
X0169282Y0112424D01*
X0169880Y0111826D02*
X0165880Y0111826D01*
X0166200Y0111227D02*
X0170479Y0111227D01*
X0171077Y0110629D02*
X0166200Y0110629D01*
X0166200Y0110030D02*
X0171676Y0110030D01*
X0172274Y0109432D02*
X0166200Y0109432D01*
X0166200Y0108833D02*
X0172873Y0108833D01*
X0173471Y0108235D02*
X0166200Y0108235D01*
X0166200Y0107636D02*
X0174070Y0107636D01*
X0174668Y0107038D02*
X0166200Y0107038D01*
X0166200Y0106439D02*
X0175129Y0106439D01*
X0175200Y0105841D02*
X0166200Y0105841D01*
X0166200Y0105242D02*
X0175200Y0105242D01*
X0175200Y0104644D02*
X0166200Y0104644D01*
X0166200Y0104045D02*
X0175200Y0104045D01*
X0175200Y0103447D02*
X0166200Y0103447D01*
X0166200Y0102848D02*
X0175200Y0102848D01*
X0175200Y0102250D02*
X0166200Y0102250D01*
X0166200Y0101651D02*
X0175200Y0101651D01*
X0175200Y0101053D02*
X0166200Y0101053D01*
X0166200Y0100454D02*
X0175200Y0100454D01*
X0175200Y0099856D02*
X0166200Y0099856D01*
X0166200Y0099257D02*
X0175200Y0099257D01*
X0175200Y0098659D02*
X0166200Y0098659D01*
X0166200Y0098060D02*
X0175200Y0098060D01*
X0175155Y0097462D02*
X0166200Y0097462D01*
X0166200Y0096863D02*
X0174557Y0096863D01*
X0173958Y0096265D02*
X0166200Y0096265D01*
X0166234Y0095666D02*
X0173360Y0095666D01*
X0172761Y0095068D02*
X0166639Y0095068D01*
X0159941Y0099257D02*
X0127200Y0099257D01*
X0127200Y0098659D02*
X0159352Y0098659D01*
X0158754Y0098060D02*
X0127200Y0098060D01*
X0127200Y0097462D02*
X0158155Y0097462D01*
X0157557Y0096863D02*
X0127200Y0096863D01*
X0127442Y0096265D02*
X0156958Y0096265D01*
X0156360Y0095666D02*
X0128040Y0095666D01*
X0128639Y0095068D02*
X0155761Y0095068D01*
X0160191Y0099856D02*
X0127200Y0099856D01*
X0127200Y0100454D02*
X0160200Y0100454D01*
X0160200Y0101053D02*
X0127200Y0101053D01*
X0127200Y0101651D02*
X0160200Y0101651D01*
X0160200Y0102250D02*
X0127200Y0102250D01*
X0127200Y0102848D02*
X0160200Y0102848D01*
X0160200Y0103447D02*
X0127200Y0103447D01*
X0127200Y0104045D02*
X0160200Y0104045D01*
X0160200Y0104644D02*
X0127200Y0104644D01*
X0127200Y0105242D02*
X0160200Y0105242D01*
X0160200Y0105841D02*
X0127200Y0105841D01*
X0127200Y0106439D02*
X0160200Y0106439D01*
X0160200Y0107038D02*
X0127200Y0107038D01*
X0127200Y0107636D02*
X0160200Y0107636D01*
X0160200Y0108235D02*
X0127200Y0108235D01*
X0127200Y0108833D02*
X0160200Y0108833D01*
X0160200Y0109432D02*
X0127200Y0109432D01*
X0127200Y0110030D02*
X0159676Y0110030D01*
X0159077Y0110629D02*
X0127200Y0110629D01*
X0127200Y0111227D02*
X0158479Y0111227D01*
X0157880Y0111826D02*
X0127200Y0111826D01*
X0127200Y0112424D02*
X0157282Y0112424D01*
X0156683Y0113023D02*
X0127200Y0113023D01*
X0127200Y0113621D02*
X0156085Y0113621D01*
X0155486Y0114220D02*
X0127200Y0114220D01*
X0127200Y0114818D02*
X0154888Y0114818D01*
X0154289Y0115417D02*
X0127200Y0115417D01*
X0127200Y0116015D02*
X0153691Y0116015D01*
X0255200Y0100506D02*
X0255200Y0096921D01*
X0255234Y0096662D01*
X0255334Y0096421D01*
X0255493Y0096213D01*
X0257200Y0094506D01*
X0260786Y0094506D01*
X0261045Y0094540D01*
X0261286Y0094640D01*
X0261493Y0094799D01*
X0276700Y0109506D01*
X0276700Y0115506D01*
X0270614Y0115506D01*
X0270355Y0115472D01*
X0270114Y0115372D01*
X0269907Y0115213D01*
X0255200Y0100506D01*
X0255200Y0100454D02*
X0267340Y0100454D01*
X0266721Y0099856D02*
X0255200Y0099856D01*
X0255200Y0099257D02*
X0266102Y0099257D01*
X0265484Y0098659D02*
X0255200Y0098659D01*
X0255200Y0098060D02*
X0264865Y0098060D01*
X0264246Y0097462D02*
X0255200Y0097462D01*
X0255208Y0096863D02*
X0263627Y0096863D01*
X0263008Y0096265D02*
X0255454Y0096265D01*
X0256040Y0095666D02*
X0262389Y0095666D01*
X0261770Y0095068D02*
X0256639Y0095068D01*
X0255746Y0101053D02*
X0267959Y0101053D01*
X0268578Y0101651D02*
X0256345Y0101651D01*
X0256943Y0102250D02*
X0269197Y0102250D01*
X0269816Y0102848D02*
X0257542Y0102848D01*
X0258140Y0103447D02*
X0270434Y0103447D01*
X0271053Y0104045D02*
X0258739Y0104045D01*
X0259337Y0104644D02*
X0271672Y0104644D01*
X0272291Y0105242D02*
X0259936Y0105242D01*
X0260534Y0105841D02*
X0272910Y0105841D01*
X0273529Y0106439D02*
X0261133Y0106439D01*
X0261732Y0107038D02*
X0274148Y0107038D01*
X0274766Y0107636D02*
X0262330Y0107636D01*
X0262929Y0108235D02*
X0275385Y0108235D01*
X0276004Y0108833D02*
X0263527Y0108833D01*
X0264126Y0109432D02*
X0276623Y0109432D01*
X0276700Y0110030D02*
X0264724Y0110030D01*
X0265323Y0110629D02*
X0276700Y0110629D01*
X0276700Y0111227D02*
X0265921Y0111227D01*
X0266520Y0111826D02*
X0276700Y0111826D01*
X0276700Y0112424D02*
X0267118Y0112424D01*
X0267717Y0113023D02*
X0276700Y0113023D01*
X0276700Y0113621D02*
X0268315Y0113621D01*
X0268914Y0114220D02*
X0276700Y0114220D01*
X0276700Y0114818D02*
X0269512Y0114818D01*
X0270222Y0115417D02*
X0276700Y0115417D01*
X0343200Y0102506D02*
X0343200Y0095921D01*
X0343234Y0095662D01*
X0343334Y0095421D01*
X0343493Y0095213D01*
X0344200Y0094506D01*
X0348786Y0094506D01*
X0349045Y0094540D01*
X0349286Y0094640D01*
X0349493Y0094799D01*
X0362200Y0107506D01*
X0362200Y0149092D01*
X0362166Y0149351D01*
X0362066Y0149592D01*
X0361907Y0149799D01*
X0359200Y0152506D01*
X0354614Y0152506D01*
X0354355Y0152472D01*
X0354114Y0152372D01*
X0353907Y0152213D01*
X0352200Y0150506D01*
X0352200Y0111921D01*
X0352166Y0111662D01*
X0352066Y0111421D01*
X0351907Y0111213D01*
X0343200Y0102506D01*
X0343200Y0102250D02*
X0356943Y0102250D01*
X0356345Y0101651D02*
X0343200Y0101651D01*
X0343200Y0101053D02*
X0355746Y0101053D01*
X0355148Y0100454D02*
X0343200Y0100454D01*
X0343200Y0099856D02*
X0354549Y0099856D01*
X0353951Y0099257D02*
X0343200Y0099257D01*
X0343200Y0098659D02*
X0353352Y0098659D01*
X0352754Y0098060D02*
X0343200Y0098060D01*
X0343200Y0097462D02*
X0352155Y0097462D01*
X0351557Y0096863D02*
X0343200Y0096863D01*
X0343200Y0096265D02*
X0350958Y0096265D01*
X0350360Y0095666D02*
X0343234Y0095666D01*
X0343639Y0095068D02*
X0349761Y0095068D01*
X0343542Y0102848D02*
X0357542Y0102848D01*
X0358140Y0103447D02*
X0344140Y0103447D01*
X0344739Y0104045D02*
X0358739Y0104045D01*
X0359337Y0104644D02*
X0345337Y0104644D01*
X0345936Y0105242D02*
X0359936Y0105242D01*
X0360534Y0105841D02*
X0346534Y0105841D01*
X0347133Y0106439D02*
X0361133Y0106439D01*
X0361732Y0107038D02*
X0347732Y0107038D01*
X0348330Y0107636D02*
X0362200Y0107636D01*
X0362200Y0108235D02*
X0348929Y0108235D01*
X0349527Y0108833D02*
X0362200Y0108833D01*
X0362200Y0109432D02*
X0350126Y0109432D01*
X0350724Y0110030D02*
X0362200Y0110030D01*
X0362200Y0110629D02*
X0351323Y0110629D01*
X0351918Y0111227D02*
X0362200Y0111227D01*
X0362200Y0111826D02*
X0352188Y0111826D01*
X0352200Y0112424D02*
X0362200Y0112424D01*
X0362200Y0113023D02*
X0352200Y0113023D01*
X0352200Y0113621D02*
X0362200Y0113621D01*
X0362200Y0114220D02*
X0352200Y0114220D01*
X0352200Y0114818D02*
X0362200Y0114818D01*
X0362200Y0115417D02*
X0352200Y0115417D01*
X0352200Y0116015D02*
X0362200Y0116015D01*
X0362200Y0116614D02*
X0352200Y0116614D01*
X0352200Y0117213D02*
X0362200Y0117213D01*
X0362200Y0117811D02*
X0352200Y0117811D01*
X0352200Y0118410D02*
X0362200Y0118410D01*
X0362200Y0119008D02*
X0352200Y0119008D01*
X0352200Y0119607D02*
X0362200Y0119607D01*
X0362200Y0120205D02*
X0352200Y0120205D01*
X0352200Y0120804D02*
X0362200Y0120804D01*
X0362200Y0121402D02*
X0352200Y0121402D01*
X0352200Y0122001D02*
X0362200Y0122001D01*
X0362200Y0122599D02*
X0352200Y0122599D01*
X0352200Y0123198D02*
X0362200Y0123198D01*
X0362200Y0123796D02*
X0352200Y0123796D01*
X0352200Y0124395D02*
X0362200Y0124395D01*
X0362200Y0124993D02*
X0352200Y0124993D01*
X0352200Y0125592D02*
X0362200Y0125592D01*
X0362200Y0126190D02*
X0352200Y0126190D01*
X0352200Y0126789D02*
X0362200Y0126789D01*
X0362200Y0127387D02*
X0352200Y0127387D01*
X0352200Y0127986D02*
X0362200Y0127986D01*
X0362200Y0128584D02*
X0352200Y0128584D01*
X0352200Y0129183D02*
X0362200Y0129183D01*
X0362200Y0129781D02*
X0352200Y0129781D01*
X0352200Y0130380D02*
X0362200Y0130380D01*
X0362200Y0130978D02*
X0352200Y0130978D01*
X0352200Y0131577D02*
X0362200Y0131577D01*
X0362200Y0132175D02*
X0352200Y0132175D01*
X0352200Y0132774D02*
X0362200Y0132774D01*
X0362200Y0133372D02*
X0352200Y0133372D01*
X0352200Y0133971D02*
X0362200Y0133971D01*
X0362200Y0134569D02*
X0352200Y0134569D01*
X0352200Y0135168D02*
X0362200Y0135168D01*
X0362200Y0135766D02*
X0352200Y0135766D01*
X0352200Y0136365D02*
X0362200Y0136365D01*
X0362200Y0136963D02*
X0352200Y0136963D01*
X0352200Y0137562D02*
X0362200Y0137562D01*
X0362200Y0138160D02*
X0352200Y0138160D01*
X0352200Y0138759D02*
X0362200Y0138759D01*
X0362200Y0139357D02*
X0352200Y0139357D01*
X0352200Y0139956D02*
X0362200Y0139956D01*
X0362200Y0140554D02*
X0352200Y0140554D01*
X0352200Y0141153D02*
X0362200Y0141153D01*
X0362200Y0141751D02*
X0352200Y0141751D01*
X0352200Y0142350D02*
X0362200Y0142350D01*
X0362200Y0142948D02*
X0352200Y0142948D01*
X0352200Y0143547D02*
X0362200Y0143547D01*
X0362200Y0144146D02*
X0352200Y0144146D01*
X0352200Y0144744D02*
X0362200Y0144744D01*
X0362200Y0145343D02*
X0352200Y0145343D01*
X0352200Y0145941D02*
X0362200Y0145941D01*
X0362200Y0146540D02*
X0352200Y0146540D01*
X0352200Y0147138D02*
X0362200Y0147138D01*
X0362200Y0147737D02*
X0352200Y0147737D01*
X0352200Y0148335D02*
X0362200Y0148335D01*
X0362200Y0148934D02*
X0352200Y0148934D01*
X0352200Y0149532D02*
X0362091Y0149532D01*
X0361576Y0150131D02*
X0352200Y0150131D01*
X0352423Y0150729D02*
X0360977Y0150729D01*
X0360379Y0151328D02*
X0353021Y0151328D01*
X0353620Y0151926D02*
X0359780Y0151926D01*
D22*
X0267200Y0138506D02*
X0267200Y0121506D01*
X0242200Y0096506D01*
X0216200Y0096506D01*
X0206200Y0106506D01*
X0206200Y0138506D01*
X0209200Y0141506D01*
X0265200Y0141506D01*
X0267200Y0138506D01*
X0267200Y0138418D02*
X0206200Y0138418D01*
X0206200Y0137420D02*
X0267200Y0137420D01*
X0267200Y0136421D02*
X0206200Y0136421D01*
X0206200Y0135423D02*
X0267200Y0135423D01*
X0267200Y0134424D02*
X0206200Y0134424D01*
X0206200Y0133426D02*
X0267200Y0133426D01*
X0267200Y0132427D02*
X0206200Y0132427D01*
X0206200Y0131429D02*
X0267200Y0131429D01*
X0267200Y0130430D02*
X0206200Y0130430D01*
X0206200Y0129432D02*
X0267200Y0129432D01*
X0267200Y0128433D02*
X0206200Y0128433D01*
X0206200Y0127435D02*
X0267200Y0127435D01*
X0267200Y0126436D02*
X0206200Y0126436D01*
X0206200Y0125438D02*
X0267200Y0125438D01*
X0267200Y0124439D02*
X0206200Y0124439D01*
X0206200Y0123441D02*
X0267200Y0123441D01*
X0267200Y0122442D02*
X0206200Y0122442D01*
X0206200Y0121444D02*
X0267137Y0121444D01*
X0266139Y0120445D02*
X0206200Y0120445D01*
X0206200Y0119447D02*
X0265140Y0119447D01*
X0264142Y0118448D02*
X0206200Y0118448D01*
X0206200Y0117450D02*
X0263143Y0117450D01*
X0262145Y0116451D02*
X0206200Y0116451D01*
X0206200Y0115453D02*
X0261146Y0115453D01*
X0260148Y0114454D02*
X0206200Y0114454D01*
X0206200Y0113456D02*
X0259149Y0113456D01*
X0258151Y0112457D02*
X0206200Y0112457D01*
X0206200Y0111459D02*
X0257152Y0111459D01*
X0256154Y0110460D02*
X0206200Y0110460D01*
X0206200Y0109462D02*
X0255155Y0109462D01*
X0254157Y0108463D02*
X0206200Y0108463D01*
X0206200Y0107465D02*
X0253158Y0107465D01*
X0252160Y0106466D02*
X0206240Y0106466D01*
X0207239Y0105468D02*
X0251161Y0105468D01*
X0250163Y0104469D02*
X0208237Y0104469D01*
X0209236Y0103471D02*
X0249164Y0103471D01*
X0248166Y0102472D02*
X0210234Y0102472D01*
X0211233Y0101474D02*
X0247167Y0101474D01*
X0246169Y0100475D02*
X0212231Y0100475D01*
X0213230Y0099477D02*
X0245170Y0099477D01*
X0244172Y0098478D02*
X0214228Y0098478D01*
X0215227Y0097480D02*
X0243173Y0097480D01*
X0266593Y0139417D02*
X0207111Y0139417D01*
X0208109Y0140415D02*
X0265927Y0140415D01*
X0265262Y0141414D02*
X0209108Y0141414D01*
X0136200Y0208506D02*
X0116200Y0208506D01*
X0109200Y0215506D01*
X0109200Y0240506D01*
X0111200Y0242506D01*
X0129200Y0242506D01*
X0137200Y0234506D01*
X0137200Y0210506D01*
X0136200Y0208506D01*
X0136603Y0209313D02*
X0115394Y0209313D01*
X0114395Y0210311D02*
X0137102Y0210311D01*
X0137200Y0211310D02*
X0113397Y0211310D01*
X0112398Y0212308D02*
X0137200Y0212308D01*
X0137200Y0213307D02*
X0111399Y0213307D01*
X0110401Y0214305D02*
X0137200Y0214305D01*
X0137200Y0215304D02*
X0109402Y0215304D01*
X0109200Y0216302D02*
X0137200Y0216302D01*
X0137200Y0217301D02*
X0109200Y0217301D01*
X0109200Y0218299D02*
X0137200Y0218299D01*
X0137200Y0219298D02*
X0109200Y0219298D01*
X0109200Y0220296D02*
X0137200Y0220296D01*
X0137200Y0221295D02*
X0109200Y0221295D01*
X0109200Y0222293D02*
X0137200Y0222293D01*
X0137200Y0223292D02*
X0109200Y0223292D01*
X0109200Y0224290D02*
X0137200Y0224290D01*
X0137200Y0225289D02*
X0109200Y0225289D01*
X0109200Y0226287D02*
X0137200Y0226287D01*
X0137200Y0227286D02*
X0109200Y0227286D01*
X0109200Y0228284D02*
X0137200Y0228284D01*
X0137200Y0229283D02*
X0109200Y0229283D01*
X0109200Y0230282D02*
X0137200Y0230282D01*
X0137200Y0231280D02*
X0109200Y0231280D01*
X0109200Y0232279D02*
X0137200Y0232279D01*
X0137200Y0233277D02*
X0109200Y0233277D01*
X0109200Y0234276D02*
X0137200Y0234276D01*
X0136432Y0235274D02*
X0109200Y0235274D01*
X0109200Y0236273D02*
X0135434Y0236273D01*
X0134435Y0237271D02*
X0109200Y0237271D01*
X0109200Y0238270D02*
X0133437Y0238270D01*
X0132438Y0239268D02*
X0109200Y0239268D01*
X0109200Y0240267D02*
X0131440Y0240267D01*
X0130441Y0241265D02*
X0109959Y0241265D01*
X0110957Y0242264D02*
X0129443Y0242264D01*
X0101200Y0239506D02*
X0101200Y0214506D01*
X0094200Y0207506D01*
X0078200Y0207506D01*
X0061200Y0190506D01*
X0061200Y0129506D01*
X0064200Y0126506D01*
X0074200Y0126506D01*
X0077200Y0129506D01*
X0077200Y0134506D01*
X0085200Y0142506D01*
X0111200Y0142506D01*
X0113200Y0140506D01*
X0113200Y0133506D01*
X0101200Y0121506D01*
X0092933Y0121506D01*
X0091878Y0121943D01*
X0088522Y0121943D01*
X0087467Y0121506D01*
X0061200Y0121506D01*
X0055200Y0127506D01*
X0055200Y0199506D01*
X0069200Y0213506D01*
X0069200Y0239506D01*
X0072200Y0242506D01*
X0098200Y0242506D01*
X0101200Y0239506D01*
X0101200Y0239268D02*
X0069200Y0239268D01*
X0069200Y0238270D02*
X0101200Y0238270D01*
X0101200Y0237271D02*
X0069200Y0237271D01*
X0069200Y0236273D02*
X0101200Y0236273D01*
X0101200Y0235274D02*
X0069200Y0235274D01*
X0069200Y0234276D02*
X0101200Y0234276D01*
X0101200Y0233277D02*
X0069200Y0233277D01*
X0069200Y0232279D02*
X0101200Y0232279D01*
X0101200Y0231280D02*
X0069200Y0231280D01*
X0069200Y0230282D02*
X0101200Y0230282D01*
X0101200Y0229283D02*
X0069200Y0229283D01*
X0069200Y0228284D02*
X0101200Y0228284D01*
X0101200Y0227286D02*
X0069200Y0227286D01*
X0069200Y0226287D02*
X0101200Y0226287D01*
X0101200Y0225289D02*
X0069200Y0225289D01*
X0069200Y0224290D02*
X0101200Y0224290D01*
X0101200Y0223292D02*
X0069200Y0223292D01*
X0069200Y0222293D02*
X0101200Y0222293D01*
X0101200Y0221295D02*
X0069200Y0221295D01*
X0069200Y0220296D02*
X0101200Y0220296D01*
X0101200Y0219298D02*
X0069200Y0219298D01*
X0069200Y0218299D02*
X0101200Y0218299D01*
X0101200Y0217301D02*
X0069200Y0217301D01*
X0069200Y0216302D02*
X0101200Y0216302D01*
X0101200Y0215304D02*
X0069200Y0215304D01*
X0069200Y0214305D02*
X0100999Y0214305D01*
X0100001Y0213307D02*
X0069001Y0213307D01*
X0068002Y0212308D02*
X0099002Y0212308D01*
X0098003Y0211310D02*
X0067003Y0211310D01*
X0066005Y0210311D02*
X0097005Y0210311D01*
X0096006Y0209313D02*
X0065006Y0209313D01*
X0064008Y0208314D02*
X0095008Y0208314D01*
X0078009Y0207316D02*
X0063009Y0207316D01*
X0062011Y0206317D02*
X0077011Y0206317D01*
X0076012Y0205319D02*
X0061012Y0205319D01*
X0060014Y0204320D02*
X0075014Y0204320D01*
X0074015Y0203322D02*
X0059015Y0203322D01*
X0058017Y0202323D02*
X0073017Y0202323D01*
X0072018Y0201325D02*
X0057018Y0201325D01*
X0056020Y0200326D02*
X0071020Y0200326D01*
X0070021Y0199328D02*
X0055200Y0199328D01*
X0055200Y0198329D02*
X0069023Y0198329D01*
X0068024Y0197331D02*
X0055200Y0197331D01*
X0055200Y0196332D02*
X0067026Y0196332D01*
X0066027Y0195334D02*
X0055200Y0195334D01*
X0055200Y0194335D02*
X0065029Y0194335D01*
X0064030Y0193337D02*
X0055200Y0193337D01*
X0055200Y0192338D02*
X0063032Y0192338D01*
X0062033Y0191340D02*
X0055200Y0191340D01*
X0055200Y0190341D02*
X0061200Y0190341D01*
X0061200Y0189343D02*
X0055200Y0189343D01*
X0055200Y0188344D02*
X0061200Y0188344D01*
X0061200Y0187346D02*
X0055200Y0187346D01*
X0055200Y0186347D02*
X0061200Y0186347D01*
X0061200Y0185348D02*
X0055200Y0185348D01*
X0055200Y0184350D02*
X0061200Y0184350D01*
X0061200Y0183351D02*
X0055200Y0183351D01*
X0055200Y0182353D02*
X0061200Y0182353D01*
X0061200Y0181354D02*
X0055200Y0181354D01*
X0055200Y0180356D02*
X0061200Y0180356D01*
X0061200Y0179357D02*
X0055200Y0179357D01*
X0055200Y0178359D02*
X0061200Y0178359D01*
X0061200Y0177360D02*
X0055200Y0177360D01*
X0055200Y0176362D02*
X0061200Y0176362D01*
X0061200Y0175363D02*
X0055200Y0175363D01*
X0055200Y0174365D02*
X0061200Y0174365D01*
X0061200Y0173366D02*
X0055200Y0173366D01*
X0055200Y0172368D02*
X0061200Y0172368D01*
X0061200Y0171369D02*
X0055200Y0171369D01*
X0055200Y0170371D02*
X0061200Y0170371D01*
X0061200Y0169372D02*
X0055200Y0169372D01*
X0055200Y0168374D02*
X0061200Y0168374D01*
X0061200Y0167375D02*
X0055200Y0167375D01*
X0055200Y0166377D02*
X0061200Y0166377D01*
X0061200Y0165378D02*
X0055200Y0165378D01*
X0055200Y0164380D02*
X0061200Y0164380D01*
X0061200Y0163381D02*
X0055200Y0163381D01*
X0055200Y0162383D02*
X0061200Y0162383D01*
X0061200Y0161384D02*
X0055200Y0161384D01*
X0055200Y0160386D02*
X0061200Y0160386D01*
X0061200Y0159387D02*
X0055200Y0159387D01*
X0055200Y0158389D02*
X0061200Y0158389D01*
X0061200Y0157390D02*
X0055200Y0157390D01*
X0055200Y0156392D02*
X0061200Y0156392D01*
X0061200Y0155393D02*
X0055200Y0155393D01*
X0055200Y0154395D02*
X0061200Y0154395D01*
X0061200Y0153396D02*
X0055200Y0153396D01*
X0055200Y0152398D02*
X0061200Y0152398D01*
X0061200Y0151399D02*
X0055200Y0151399D01*
X0055200Y0150401D02*
X0061200Y0150401D01*
X0061200Y0149402D02*
X0055200Y0149402D01*
X0055200Y0148404D02*
X0061200Y0148404D01*
X0061200Y0147405D02*
X0055200Y0147405D01*
X0055200Y0146407D02*
X0061200Y0146407D01*
X0061200Y0145408D02*
X0055200Y0145408D01*
X0055200Y0144410D02*
X0061200Y0144410D01*
X0061200Y0143411D02*
X0055200Y0143411D01*
X0055200Y0142413D02*
X0061200Y0142413D01*
X0061200Y0141414D02*
X0055200Y0141414D01*
X0055200Y0140415D02*
X0061200Y0140415D01*
X0061200Y0139417D02*
X0055200Y0139417D01*
X0055200Y0138418D02*
X0061200Y0138418D01*
X0061200Y0137420D02*
X0055200Y0137420D01*
X0055200Y0136421D02*
X0061200Y0136421D01*
X0061200Y0135423D02*
X0055200Y0135423D01*
X0055200Y0134424D02*
X0061200Y0134424D01*
X0061200Y0133426D02*
X0055200Y0133426D01*
X0055200Y0132427D02*
X0061200Y0132427D01*
X0061200Y0131429D02*
X0055200Y0131429D01*
X0055200Y0130430D02*
X0061200Y0130430D01*
X0061274Y0129432D02*
X0055200Y0129432D01*
X0055200Y0128433D02*
X0062273Y0128433D01*
X0063271Y0127435D02*
X0055271Y0127435D01*
X0056270Y0126436D02*
X0106130Y0126436D01*
X0105132Y0125438D02*
X0057268Y0125438D01*
X0058267Y0124439D02*
X0104133Y0124439D01*
X0103134Y0123441D02*
X0059266Y0123441D01*
X0060264Y0122442D02*
X0102136Y0122442D01*
X0107129Y0127435D02*
X0075129Y0127435D01*
X0076127Y0128433D02*
X0108127Y0128433D01*
X0109126Y0129432D02*
X0077126Y0129432D01*
X0077200Y0130430D02*
X0110124Y0130430D01*
X0111123Y0131429D02*
X0077200Y0131429D01*
X0077200Y0132427D02*
X0112121Y0132427D01*
X0113120Y0133426D02*
X0077200Y0133426D01*
X0077200Y0134424D02*
X0113200Y0134424D01*
X0113200Y0135423D02*
X0078117Y0135423D01*
X0079115Y0136421D02*
X0113200Y0136421D01*
X0113200Y0137420D02*
X0080114Y0137420D01*
X0081112Y0138418D02*
X0113200Y0138418D01*
X0113200Y0139417D02*
X0082111Y0139417D01*
X0083109Y0140415D02*
X0113200Y0140415D01*
X0112292Y0141414D02*
X0084108Y0141414D01*
X0085106Y0142413D02*
X0111294Y0142413D01*
X0100440Y0240267D02*
X0069960Y0240267D01*
X0070959Y0241265D02*
X0099441Y0241265D01*
X0098443Y0242264D02*
X0071957Y0242264D01*
M02*
