G75*
%MOIN*%
%OFA0B0*%
%FSLAX25Y25*%
%IPPOS*%
%LPD*%
%AMOC8*
5,1,8,0,0,1.08239X$1,22.5*
%
%ADD10OC8,0.07200*%
%ADD11C,0.07200*%
%ADD12OC8,0.12400*%
%ADD13OC8,0.07600*%
%ADD14C,0.07600*%
%ADD15C,0.07200*%
%ADD16C,0.08724*%
%ADD17C,0.07543*%
%ADD18C,0.08000*%
D10*
X0110200Y0138506D03*
X0140200Y0138506D03*
X0100200Y0163506D03*
X0100200Y0178506D03*
X0070200Y0178506D03*
X0070200Y0163506D03*
X0080200Y0213506D03*
X0090200Y0213506D03*
X0098200Y0238506D03*
X0126200Y0236506D03*
X0120200Y0213506D03*
X0166200Y0236506D03*
X0194200Y0222506D03*
X0217200Y0216506D03*
X0217200Y0236506D03*
X0222200Y0264506D03*
X0192200Y0264506D03*
X0168200Y0263506D03*
X0168200Y0280506D03*
X0168200Y0290506D03*
X0138200Y0263506D03*
X0058200Y0238506D03*
X0050200Y0213506D03*
X0209200Y0148506D03*
X0228200Y0138506D03*
X0249200Y0155506D03*
X0263200Y0168506D03*
X0249200Y0185506D03*
X0228200Y0168506D03*
X0263200Y0138506D03*
X0312200Y0139506D03*
X0312200Y0154506D03*
X0312200Y0169506D03*
X0312200Y0184506D03*
X0332200Y0184506D03*
X0332200Y0169506D03*
X0332200Y0154506D03*
X0332200Y0139506D03*
X0357200Y0149506D03*
X0357200Y0179506D03*
X0332200Y0219506D03*
X0332200Y0249506D03*
X0327200Y0289506D03*
D11*
X0327200Y0279506D03*
X0194200Y0236506D03*
X0112200Y0238506D03*
X0072200Y0238506D03*
X0209200Y0138506D03*
D12*
X0125200Y0286506D03*
X0105200Y0286506D03*
D13*
X0282200Y0179506D03*
X0282200Y0169506D03*
X0282200Y0159506D03*
X0282200Y0149506D03*
X0292200Y0149506D03*
X0292200Y0159506D03*
X0292200Y0169506D03*
X0292200Y0179506D03*
D14*
X0256000Y0279506D02*
X0248400Y0279506D01*
X0248400Y0289506D02*
X0256000Y0289506D01*
D15*
X0277200Y0290606D02*
X0277200Y0283406D01*
X0287200Y0283406D02*
X0287200Y0290606D01*
X0297200Y0290606D02*
X0297200Y0283406D01*
X0292200Y0253106D02*
X0292200Y0245906D01*
X0302200Y0245906D02*
X0302200Y0253106D01*
X0282200Y0253106D02*
X0282200Y0245906D01*
X0272200Y0245906D02*
X0272200Y0253106D01*
X0262200Y0253106D02*
X0262200Y0245906D01*
X0252200Y0245906D02*
X0252200Y0253106D01*
X0242200Y0253106D02*
X0242200Y0245906D01*
X0232200Y0245906D02*
X0232200Y0253106D01*
X0232200Y0223106D02*
X0232200Y0215906D01*
X0242200Y0215906D02*
X0242200Y0223106D01*
X0252200Y0223106D02*
X0252200Y0215906D01*
X0262200Y0215906D02*
X0262200Y0223106D01*
X0272200Y0223106D02*
X0272200Y0215906D01*
X0282200Y0215906D02*
X0282200Y0223106D01*
X0292200Y0223106D02*
X0292200Y0215906D01*
X0302200Y0215906D02*
X0302200Y0223106D01*
X0227200Y0283406D02*
X0227200Y0290606D01*
X0217200Y0290606D02*
X0217200Y0283406D01*
X0207200Y0283406D02*
X0207200Y0290606D01*
X0158800Y0198506D02*
X0151600Y0198506D01*
X0151600Y0188506D02*
X0158800Y0188506D01*
X0158800Y0178506D02*
X0151600Y0178506D01*
X0151600Y0168506D02*
X0158800Y0168506D01*
X0128800Y0168506D02*
X0121600Y0168506D01*
X0121600Y0178506D02*
X0128800Y0178506D01*
X0128800Y0188506D02*
X0121600Y0188506D01*
X0121600Y0198506D02*
X0128800Y0198506D01*
D16*
X0131515Y0098506D03*
X0151200Y0098506D03*
X0170885Y0098506D03*
X0219515Y0098506D03*
X0239200Y0098506D03*
X0258885Y0098506D03*
X0305515Y0098506D03*
X0325200Y0098506D03*
X0344885Y0098506D03*
D17*
X0080200Y0133506D03*
X0070200Y0133506D03*
D18*
X0358200Y0230506D02*
X0366200Y0230506D01*
X0366200Y0240506D02*
X0358200Y0240506D01*
M02*
