G75*
%MOIN*%
%OFA0B0*%
%FSLAX25Y25*%
%IPPOS*%
%LPD*%
%AMOC8*
5,1,8,0,0,1.08239X$1,22.5*
%
%ADD10OC8,0.07200*%
%ADD11C,0.07200*%
%ADD12OC8,0.12400*%
%ADD13OC8,0.07600*%
%ADD14C,0.07600*%
%ADD15C,0.07200*%
%ADD16C,0.08724*%
%ADD17C,0.11100*%
%ADD18C,0.07543*%
%ADD19C,0.03200*%
%ADD20C,0.02400*%
%ADD21C,0.01000*%
D10*
X0102200Y0138506D03*
X0132200Y0138506D03*
X0092200Y0163506D03*
X0092200Y0178506D03*
X0062200Y0178506D03*
X0062200Y0163506D03*
X0072200Y0213506D03*
X0082200Y0213506D03*
X0112200Y0213506D03*
X0127200Y0233506D03*
X0090200Y0238506D03*
X0050200Y0238506D03*
X0042200Y0213506D03*
X0167200Y0233506D03*
X0202200Y0221506D03*
X0232200Y0213506D03*
X0232200Y0233506D03*
X0197200Y0258506D03*
X0217200Y0263506D03*
X0197200Y0283506D03*
X0197200Y0293506D03*
X0167200Y0258506D03*
X0247200Y0263506D03*
X0277200Y0193506D03*
X0277200Y0163506D03*
X0267200Y0138506D03*
X0237200Y0138506D03*
X0207200Y0138506D03*
X0177200Y0148506D03*
X0207200Y0168506D03*
X0337200Y0168506D03*
X0337200Y0153506D03*
X0357200Y0153506D03*
X0357200Y0168506D03*
X0357200Y0183506D03*
X0337200Y0183506D03*
X0382200Y0178506D03*
X0382200Y0148506D03*
X0357200Y0138506D03*
X0337200Y0138506D03*
X0357200Y0218506D03*
X0357200Y0248506D03*
X0352200Y0288506D03*
D11*
X0352200Y0278506D03*
X0202200Y0235506D03*
X0147200Y0198506D03*
X0147200Y0188506D03*
X0147200Y0178506D03*
X0147200Y0168506D03*
X0117200Y0168506D03*
X0117200Y0178506D03*
X0117200Y0188506D03*
X0117200Y0198506D03*
X0104200Y0238506D03*
X0064200Y0238506D03*
X0177200Y0138506D03*
D12*
X0102200Y0288506D03*
X0082200Y0288506D03*
D13*
X0307200Y0178506D03*
X0317200Y0178506D03*
X0317200Y0168506D03*
X0307200Y0168506D03*
X0307200Y0158506D03*
X0317200Y0158506D03*
X0317200Y0148506D03*
X0307200Y0148506D03*
D14*
X0281000Y0278506D02*
X0273400Y0278506D01*
X0273400Y0288506D02*
X0281000Y0288506D01*
D15*
X0302200Y0289606D02*
X0302200Y0282406D01*
X0312200Y0282406D02*
X0312200Y0289606D01*
X0322200Y0289606D02*
X0322200Y0282406D01*
X0317200Y0252106D02*
X0317200Y0244906D01*
X0307200Y0244906D02*
X0307200Y0252106D01*
X0297200Y0252106D02*
X0297200Y0244906D01*
X0287200Y0244906D02*
X0287200Y0252106D01*
X0277200Y0252106D02*
X0277200Y0244906D01*
X0267200Y0244906D02*
X0267200Y0252106D01*
X0257200Y0252106D02*
X0257200Y0244906D01*
X0257200Y0222106D02*
X0257200Y0214906D01*
X0267200Y0214906D02*
X0267200Y0222106D01*
X0277200Y0222106D02*
X0277200Y0214906D01*
X0287200Y0214906D02*
X0287200Y0222106D01*
X0297200Y0222106D02*
X0297200Y0214906D01*
X0307200Y0214906D02*
X0307200Y0222106D01*
X0317200Y0222106D02*
X0317200Y0214906D01*
X0327200Y0214906D02*
X0327200Y0222106D01*
X0327200Y0244906D02*
X0327200Y0252106D01*
X0252200Y0282406D02*
X0252200Y0289606D01*
X0242200Y0289606D02*
X0242200Y0282406D01*
X0232200Y0282406D02*
X0232200Y0289606D01*
D16*
X0226885Y0098506D03*
X0207200Y0098506D03*
X0187515Y0098506D03*
X0151885Y0098506D03*
X0132200Y0098506D03*
X0112515Y0098506D03*
X0262515Y0098506D03*
X0282200Y0098506D03*
X0301885Y0098506D03*
X0337515Y0098506D03*
X0357200Y0098506D03*
X0376885Y0098506D03*
D17*
X0165700Y0282956D02*
X0165700Y0294056D01*
X0147200Y0294056D02*
X0147200Y0282956D01*
X0128700Y0282956D02*
X0128700Y0294056D01*
D18*
X0072200Y0133506D03*
X0062200Y0133506D03*
X0427200Y0133506D03*
X0437200Y0133506D03*
D19*
X0427200Y0133506D02*
X0427200Y0198506D01*
X0377200Y0248506D01*
X0357200Y0248506D01*
X0347200Y0263506D02*
X0322200Y0263506D01*
X0317200Y0258506D01*
X0317200Y0248506D01*
X0307200Y0260506D02*
X0301200Y0260506D01*
X0297200Y0256506D01*
X0297200Y0248506D01*
X0287200Y0248506D02*
X0287200Y0258506D01*
X0297200Y0268506D01*
X0302200Y0268506D01*
X0312200Y0278506D01*
X0312200Y0286006D02*
X0322200Y0286006D01*
X0319200Y0272506D02*
X0335200Y0272506D01*
X0339200Y0276506D01*
X0339200Y0280506D01*
X0343200Y0284506D01*
X0343200Y0288506D01*
X0352200Y0288506D01*
X0352200Y0278506D02*
X0352200Y0268506D01*
X0347200Y0263506D01*
X0319200Y0272506D02*
X0307200Y0260506D01*
X0277200Y0248506D02*
X0277200Y0278506D01*
X0277200Y0288506D02*
X0299700Y0288506D01*
X0302200Y0286006D01*
X0267200Y0258506D02*
X0267200Y0248506D01*
X0257200Y0248506D02*
X0247200Y0248506D01*
X0232200Y0263506D01*
X0232200Y0286006D01*
X0242200Y0286006D02*
X0242200Y0268506D01*
X0247200Y0263506D01*
X0252200Y0273506D02*
X0267200Y0258506D01*
X0252200Y0273506D02*
X0252200Y0286006D01*
X0197200Y0283506D02*
X0197200Y0258506D01*
X0267200Y0218506D02*
X0267200Y0203506D01*
X0252200Y0188506D01*
X0147200Y0188506D01*
X0147200Y0178506D02*
X0142200Y0178506D01*
X0137200Y0173506D01*
X0137200Y0143506D01*
X0132200Y0138506D01*
X0132200Y0098506D01*
X0112515Y0098506D01*
X0102200Y0088506D02*
X0141885Y0088506D01*
X0151885Y0098506D01*
X0151885Y0163821D01*
X0147200Y0168506D01*
X0127200Y0173506D02*
X0127200Y0208506D01*
X0117200Y0198506D02*
X0083200Y0198506D01*
X0077200Y0192506D01*
X0077200Y0159506D01*
X0083200Y0153506D01*
X0110200Y0153506D01*
X0117200Y0146506D01*
X0117200Y0123506D01*
X0097200Y0103506D01*
X0097200Y0093506D01*
X0102200Y0088506D01*
X0062200Y0133506D02*
X0062200Y0163506D01*
X0062200Y0178506D01*
X0092200Y0178506D02*
X0092200Y0163506D01*
X0092200Y0178506D02*
X0117200Y0178506D01*
X0117200Y0188506D01*
X0127200Y0173506D02*
X0122200Y0168506D01*
X0117200Y0168506D01*
X0227200Y0098506D02*
X0252200Y0123506D01*
X0252200Y0148506D01*
X0267200Y0163506D01*
X0277200Y0163506D01*
X0292200Y0153506D02*
X0277200Y0138506D01*
X0267200Y0138506D01*
X0292200Y0153506D02*
X0292200Y0173506D01*
X0287200Y0178506D01*
X0287200Y0218506D01*
X0277200Y0218506D02*
X0277200Y0193506D01*
X0297200Y0193506D02*
X0307200Y0183506D01*
X0307200Y0178506D02*
X0307200Y0168506D01*
X0307200Y0158506D01*
X0307200Y0148506D01*
X0317200Y0148506D02*
X0327200Y0138506D01*
X0337200Y0138506D01*
X0357200Y0138506D02*
X0357200Y0153506D01*
X0357200Y0168506D01*
X0357200Y0183506D01*
X0357200Y0188506D02*
X0352200Y0193506D01*
X0312200Y0193506D01*
X0307200Y0198506D01*
X0307200Y0218506D01*
X0297200Y0218506D02*
X0297200Y0193506D01*
X0317200Y0178506D02*
X0332200Y0178506D01*
X0337200Y0183506D01*
X0337200Y0168506D02*
X0317200Y0168506D01*
X0317200Y0158506D02*
X0332200Y0158506D01*
X0337200Y0153506D01*
X0376885Y0143191D02*
X0382200Y0148506D01*
X0376885Y0143191D02*
X0376885Y0098506D01*
X0357200Y0098506D02*
X0337515Y0098506D01*
X0301885Y0098506D01*
X0382200Y0178506D02*
X0357200Y0203506D01*
X0322200Y0203506D01*
X0317200Y0208506D01*
X0317200Y0218506D01*
D20*
X0027400Y0278369D02*
X0027400Y0083706D01*
X0097383Y0083706D01*
X0096435Y0084654D01*
X0096435Y0084654D01*
X0093348Y0087742D01*
X0091435Y0089654D01*
X0090400Y0092154D01*
X0090400Y0104859D01*
X0091435Y0107358D01*
X0110400Y0126323D01*
X0110400Y0131165D01*
X0110032Y0130277D01*
X0108429Y0128674D01*
X0108429Y0128674D01*
X0096429Y0116674D01*
X0094334Y0115806D01*
X0091137Y0115806D01*
X0091337Y0115324D01*
X0091337Y0111689D01*
X0089946Y0108331D01*
X0087376Y0105760D01*
X0084017Y0104369D01*
X0080383Y0104369D01*
X0077024Y0105760D01*
X0074454Y0108331D01*
X0073063Y0111689D01*
X0073063Y0115324D01*
X0073263Y0115806D01*
X0052066Y0115806D01*
X0050945Y0116271D01*
X0051337Y0115324D01*
X0051337Y0111689D01*
X0049946Y0108331D01*
X0047376Y0105760D01*
X0044017Y0104369D01*
X0040383Y0104369D01*
X0037024Y0105760D01*
X0034454Y0108331D01*
X0033063Y0111689D01*
X0033063Y0115324D01*
X0034454Y0118682D01*
X0037024Y0121252D01*
X0040383Y0122643D01*
X0044002Y0122643D01*
X0042368Y0124277D01*
X0041500Y0126372D01*
X0041500Y0200640D01*
X0042368Y0202735D01*
X0043971Y0204339D01*
X0055500Y0215867D01*
X0055500Y0233624D01*
X0053182Y0231306D01*
X0050200Y0231306D01*
X0050200Y0238506D01*
X0050200Y0238506D01*
X0050200Y0231306D01*
X0047218Y0231306D01*
X0043000Y0235524D01*
X0043000Y0238506D01*
X0050200Y0238506D01*
X0050200Y0238506D01*
X0043000Y0238506D01*
X0043000Y0241489D01*
X0047218Y0245706D01*
X0050200Y0245706D01*
X0050200Y0238506D01*
X0050200Y0238506D01*
X0050200Y0245706D01*
X0053182Y0245706D01*
X0056305Y0242584D01*
X0056368Y0242735D01*
X0056468Y0242835D01*
X0056740Y0243491D01*
X0059215Y0245967D01*
X0059871Y0246238D01*
X0060971Y0247339D01*
X0063066Y0248206D01*
X0091334Y0248206D01*
X0093429Y0247339D01*
X0093461Y0247306D01*
X0093845Y0247306D01*
X0096892Y0244259D01*
X0098368Y0245735D01*
X0099971Y0247339D01*
X0102066Y0248206D01*
X0123334Y0248206D01*
X0125429Y0247339D01*
X0130461Y0242306D01*
X0130845Y0242306D01*
X0136000Y0237151D01*
X0136000Y0229861D01*
X0135900Y0229761D01*
X0135900Y0209372D01*
X0135032Y0207277D01*
X0134000Y0206245D01*
X0134000Y0179923D01*
X0138348Y0184271D01*
X0139271Y0184653D01*
X0138400Y0186756D01*
X0138400Y0190257D01*
X0139740Y0193491D01*
X0141034Y0194786D01*
X0140729Y0195315D01*
X0140367Y0196187D01*
X0140123Y0197099D01*
X0140000Y0198034D01*
X0140000Y0198506D01*
X0147200Y0198506D01*
X0147200Y0198506D01*
X0154400Y0198506D01*
X0154400Y0198034D01*
X0154277Y0197099D01*
X0154033Y0196187D01*
X0153671Y0195315D01*
X0153666Y0195306D01*
X0249383Y0195306D01*
X0260400Y0206323D01*
X0260400Y0208440D01*
X0260391Y0208435D01*
X0259519Y0208074D01*
X0258608Y0207829D01*
X0257672Y0207706D01*
X0257200Y0207706D01*
X0257200Y0218506D01*
X0257200Y0218506D01*
X0257200Y0207706D01*
X0256728Y0207706D01*
X0255792Y0207829D01*
X0254881Y0208074D01*
X0254009Y0208435D01*
X0253191Y0208907D01*
X0252443Y0209481D01*
X0251775Y0210149D01*
X0251201Y0210898D01*
X0250729Y0211715D01*
X0250367Y0212587D01*
X0250123Y0213499D01*
X0250000Y0214434D01*
X0250000Y0218506D01*
X0257200Y0218506D01*
X0257200Y0218506D01*
X0250000Y0218506D01*
X0250000Y0222578D01*
X0250123Y0223514D01*
X0250367Y0224426D01*
X0250729Y0225298D01*
X0251201Y0226115D01*
X0251775Y0226864D01*
X0252018Y0227106D01*
X0240861Y0227106D01*
X0238429Y0224674D01*
X0236334Y0223806D01*
X0229066Y0223806D01*
X0226971Y0224674D01*
X0225368Y0226277D01*
X0224839Y0226806D01*
X0207082Y0226806D01*
X0209400Y0224489D01*
X0209400Y0221506D01*
X0202200Y0221506D01*
X0202200Y0214306D01*
X0205182Y0214306D01*
X0209400Y0218524D01*
X0209400Y0221506D01*
X0202200Y0221506D01*
X0202200Y0221506D01*
X0202200Y0214306D01*
X0199218Y0214306D01*
X0195000Y0218524D01*
X0195000Y0221506D01*
X0202200Y0221506D01*
X0202200Y0221506D01*
X0202200Y0221506D01*
X0195000Y0221506D01*
X0195000Y0224489D01*
X0197318Y0226806D01*
X0189561Y0226806D01*
X0188429Y0225674D01*
X0186334Y0224806D01*
X0170945Y0224806D01*
X0170845Y0224706D01*
X0163555Y0224706D01*
X0158400Y0229861D01*
X0158400Y0230245D01*
X0153368Y0235277D01*
X0152500Y0237372D01*
X0152500Y0248145D01*
X0137368Y0263277D01*
X0136500Y0265372D01*
X0136500Y0274745D01*
X0135429Y0273674D01*
X0133334Y0272806D01*
X0132355Y0272806D01*
X0130115Y0272206D01*
X0127285Y0272206D01*
X0125045Y0272806D01*
X0101066Y0272806D01*
X0098971Y0273674D01*
X0097368Y0275277D01*
X0093971Y0278674D01*
X0093971Y0278674D01*
X0092368Y0280277D01*
X0091500Y0282372D01*
X0091500Y0283084D01*
X0091069Y0283516D01*
X0086259Y0278706D01*
X0082200Y0278706D01*
X0082200Y0288506D01*
X0082200Y0288506D01*
X0082200Y0278706D01*
X0078141Y0278706D01*
X0072400Y0284447D01*
X0072400Y0288506D01*
X0082200Y0288506D01*
X0082200Y0288506D01*
X0072400Y0288506D01*
X0072400Y0292566D01*
X0078141Y0298306D01*
X0082200Y0298306D01*
X0082200Y0288506D01*
X0082200Y0288506D01*
X0082200Y0298306D01*
X0086259Y0298306D01*
X0091069Y0293497D01*
X0091704Y0294132D01*
X0092368Y0295735D01*
X0093971Y0297339D01*
X0099971Y0303339D01*
X0102066Y0304206D01*
X0125045Y0304206D01*
X0127285Y0304806D01*
X0130115Y0304806D01*
X0132354Y0304206D01*
X0133334Y0304206D01*
X0135429Y0303339D01*
X0137032Y0301735D01*
X0138419Y0300348D01*
X0138598Y0300657D01*
X0140599Y0302658D01*
X0143051Y0304074D01*
X0145785Y0304806D01*
X0148615Y0304806D01*
X0151349Y0304074D01*
X0153801Y0302658D01*
X0155802Y0300657D01*
X0156450Y0299535D01*
X0157098Y0300657D01*
X0159099Y0302658D01*
X0161551Y0304074D01*
X0164285Y0304806D01*
X0167115Y0304806D01*
X0169849Y0304074D01*
X0172301Y0302658D01*
X0174302Y0300657D01*
X0175717Y0298206D01*
X0176450Y0295472D01*
X0176450Y0281541D01*
X0175717Y0278807D01*
X0174302Y0276356D01*
X0172301Y0274354D01*
X0169849Y0272939D01*
X0167115Y0272206D01*
X0164285Y0272206D01*
X0163296Y0272471D01*
X0167561Y0268206D01*
X0171334Y0268206D01*
X0173429Y0267339D01*
X0175032Y0265735D01*
X0191561Y0249206D01*
X0234334Y0249206D01*
X0236429Y0248339D01*
X0238032Y0246735D01*
X0240032Y0244735D01*
X0243032Y0241735D01*
X0243790Y0239906D01*
X0249755Y0239906D01*
X0249740Y0239921D01*
X0249000Y0241706D01*
X0245847Y0241706D01*
X0243348Y0242742D01*
X0241435Y0244654D01*
X0241435Y0244654D01*
X0228348Y0257742D01*
X0228348Y0257742D01*
X0226435Y0259654D01*
X0225400Y0262154D01*
X0225400Y0276761D01*
X0224740Y0277421D01*
X0223400Y0280656D01*
X0223400Y0291357D01*
X0224740Y0294591D01*
X0227215Y0297067D01*
X0230450Y0298406D01*
X0233950Y0298406D01*
X0237185Y0297067D01*
X0237200Y0297051D01*
X0237215Y0297067D01*
X0240450Y0298406D01*
X0243950Y0298406D01*
X0247185Y0297067D01*
X0247200Y0297051D01*
X0247215Y0297067D01*
X0250450Y0298406D01*
X0253950Y0298406D01*
X0257185Y0297067D01*
X0259660Y0294591D01*
X0261000Y0291357D01*
X0261000Y0280656D01*
X0259660Y0277421D01*
X0259000Y0276761D01*
X0259000Y0276323D01*
X0270400Y0264923D01*
X0270400Y0270007D01*
X0268302Y0270876D01*
X0265770Y0273408D01*
X0264400Y0276716D01*
X0264400Y0280297D01*
X0265730Y0283506D01*
X0264400Y0286716D01*
X0264400Y0290297D01*
X0265770Y0293604D01*
X0268302Y0296136D01*
X0271610Y0297506D01*
X0282790Y0297506D01*
X0286098Y0296136D01*
X0286928Y0295306D01*
X0295455Y0295306D01*
X0297215Y0297067D01*
X0300450Y0298406D01*
X0303950Y0298406D01*
X0307185Y0297067D01*
X0307200Y0297051D01*
X0307215Y0297067D01*
X0310450Y0298406D01*
X0313950Y0298406D01*
X0317185Y0297067D01*
X0317200Y0297051D01*
X0317215Y0297067D01*
X0320450Y0298406D01*
X0323950Y0298406D01*
X0327185Y0297067D01*
X0329660Y0294591D01*
X0331000Y0291357D01*
X0331000Y0280656D01*
X0329660Y0277421D01*
X0327185Y0274946D01*
X0323950Y0273606D01*
X0320450Y0273606D01*
X0317951Y0274641D01*
X0306052Y0262742D01*
X0303553Y0261706D01*
X0300017Y0261706D01*
X0297617Y0259306D01*
X0297672Y0259306D01*
X0298608Y0259183D01*
X0299519Y0258939D01*
X0300391Y0258578D01*
X0300921Y0258272D01*
X0302215Y0259567D01*
X0305450Y0260906D01*
X0308950Y0260906D01*
X0310558Y0260240D01*
X0311435Y0262358D01*
X0316435Y0267358D01*
X0316435Y0267358D01*
X0318348Y0269271D01*
X0320847Y0270306D01*
X0344383Y0270306D01*
X0345400Y0271323D01*
X0345400Y0272861D01*
X0344740Y0273521D01*
X0343400Y0276756D01*
X0343400Y0280257D01*
X0344740Y0283491D01*
X0345886Y0284638D01*
X0345000Y0285524D01*
X0345000Y0288506D01*
X0352200Y0288506D01*
X0352200Y0288506D01*
X0359400Y0288506D01*
X0359400Y0285524D01*
X0358514Y0284638D01*
X0359660Y0283491D01*
X0361000Y0280257D01*
X0361000Y0276756D01*
X0359660Y0273521D01*
X0359000Y0272861D01*
X0359000Y0267154D01*
X0357965Y0264654D01*
X0356052Y0262742D01*
X0352965Y0259654D01*
X0351052Y0257742D01*
X0348553Y0256706D01*
X0334820Y0256706D01*
X0336000Y0253857D01*
X0336000Y0244906D01*
X0348400Y0244906D01*
X0348400Y0252151D01*
X0353555Y0257306D01*
X0360845Y0257306D01*
X0362845Y0255306D01*
X0378553Y0255306D01*
X0381052Y0254271D01*
X0431052Y0204271D01*
X0432965Y0202358D01*
X0434000Y0199859D01*
X0434000Y0140160D01*
X0434825Y0140502D01*
X0435759Y0140752D01*
X0436717Y0140878D01*
X0437200Y0140878D01*
X0437200Y0133506D01*
X0437200Y0126135D01*
X0437683Y0126135D01*
X0438641Y0126261D01*
X0439575Y0126511D01*
X0440467Y0126881D01*
X0441304Y0127364D01*
X0442071Y0127952D01*
X0442754Y0128635D01*
X0443342Y0129402D01*
X0443826Y0130239D01*
X0444195Y0131132D01*
X0444446Y0132065D01*
X0444572Y0133023D01*
X0444572Y0133506D01*
X0437200Y0133506D01*
X0437200Y0133506D01*
X0437200Y0126135D01*
X0436717Y0126135D01*
X0435759Y0126261D01*
X0434825Y0126511D01*
X0433933Y0126881D01*
X0433508Y0127126D01*
X0432282Y0125900D01*
X0428985Y0124535D01*
X0425415Y0124535D01*
X0422118Y0125900D01*
X0419594Y0128424D01*
X0418228Y0131722D01*
X0418228Y0135291D01*
X0419594Y0138588D01*
X0420400Y0139394D01*
X0420400Y0195690D01*
X0374383Y0241706D01*
X0363382Y0241706D01*
X0362626Y0239881D01*
X0360825Y0238081D01*
X0356251Y0233506D01*
X0357626Y0232132D01*
X0362626Y0227132D01*
X0363600Y0224779D01*
X0363600Y0224551D01*
X0366000Y0222151D01*
X0366000Y0214861D01*
X0360845Y0209706D01*
X0360001Y0209706D01*
X0361052Y0209271D01*
X0383017Y0187306D01*
X0385845Y0187306D01*
X0391000Y0182151D01*
X0391000Y0174861D01*
X0385845Y0169706D01*
X0378555Y0169706D01*
X0373400Y0174861D01*
X0373400Y0177690D01*
X0366000Y0185090D01*
X0366000Y0179861D01*
X0364000Y0177861D01*
X0364000Y0174151D01*
X0366000Y0172151D01*
X0366000Y0164861D01*
X0364000Y0162861D01*
X0364000Y0159151D01*
X0366000Y0157151D01*
X0366000Y0149861D01*
X0364000Y0147861D01*
X0364000Y0144151D01*
X0366000Y0142151D01*
X0366000Y0134861D01*
X0360845Y0129706D01*
X0353555Y0129706D01*
X0348400Y0134861D01*
X0348400Y0142151D01*
X0350400Y0144151D01*
X0350400Y0147861D01*
X0348400Y0149861D01*
X0348400Y0157151D01*
X0350400Y0159151D01*
X0350400Y0162861D01*
X0348400Y0164861D01*
X0348400Y0172151D01*
X0350400Y0174151D01*
X0350400Y0177861D01*
X0348400Y0179861D01*
X0348400Y0186706D01*
X0346000Y0186706D01*
X0346000Y0179861D01*
X0342145Y0176006D01*
X0346000Y0172151D01*
X0346000Y0164861D01*
X0342145Y0161006D01*
X0346000Y0157151D01*
X0346000Y0149861D01*
X0342145Y0146006D01*
X0346000Y0142151D01*
X0346000Y0134861D01*
X0340845Y0129706D01*
X0333555Y0129706D01*
X0331555Y0131706D01*
X0325847Y0131706D01*
X0323348Y0132742D01*
X0321435Y0134654D01*
X0316583Y0139506D01*
X0313472Y0139506D01*
X0312200Y0140778D01*
X0310928Y0139506D01*
X0303472Y0139506D01*
X0298200Y0144778D01*
X0298200Y0150222D01*
X0297965Y0149654D01*
X0281052Y0132742D01*
X0278553Y0131706D01*
X0272845Y0131706D01*
X0270845Y0129706D01*
X0263555Y0129706D01*
X0259000Y0134261D01*
X0259000Y0122154D01*
X0257965Y0119654D01*
X0256052Y0117742D01*
X0236447Y0098137D01*
X0236447Y0096604D01*
X0234991Y0093090D01*
X0232302Y0090400D01*
X0228787Y0088944D01*
X0224983Y0088944D01*
X0221468Y0090400D01*
X0218779Y0093090D01*
X0217626Y0095872D01*
X0215633Y0093878D01*
X0215306Y0093090D01*
X0212617Y0090400D01*
X0209102Y0088944D01*
X0205298Y0088944D01*
X0201783Y0090400D01*
X0201377Y0090806D01*
X0193338Y0090806D01*
X0192932Y0090400D01*
X0189417Y0088944D01*
X0185613Y0088944D01*
X0182098Y0090400D01*
X0179409Y0093090D01*
X0179305Y0093341D01*
X0170971Y0101674D01*
X0169368Y0103277D01*
X0168500Y0105372D01*
X0168500Y0136514D01*
X0168400Y0136756D01*
X0168400Y0140257D01*
X0169740Y0143491D01*
X0170886Y0144638D01*
X0170000Y0145524D01*
X0170000Y0148506D01*
X0177200Y0148506D01*
X0177200Y0148506D01*
X0184400Y0148506D01*
X0184400Y0147206D01*
X0203455Y0147206D01*
X0203555Y0147306D01*
X0210845Y0147306D01*
X0210945Y0147206D01*
X0233455Y0147206D01*
X0233555Y0147306D01*
X0240845Y0147306D01*
X0245400Y0142751D01*
X0245400Y0149859D01*
X0246435Y0152358D01*
X0261435Y0167358D01*
X0263348Y0169271D01*
X0265847Y0170306D01*
X0271555Y0170306D01*
X0273555Y0172306D01*
X0280845Y0172306D01*
X0285400Y0167751D01*
X0285400Y0170690D01*
X0281435Y0174654D01*
X0280400Y0177154D01*
X0280400Y0184706D01*
X0273555Y0184706D01*
X0268400Y0189861D01*
X0268400Y0195090D01*
X0257965Y0184654D01*
X0256052Y0182742D01*
X0253553Y0181706D01*
X0155400Y0181706D01*
X0156000Y0180257D01*
X0156000Y0176756D01*
X0154660Y0173521D01*
X0154645Y0173506D01*
X0154660Y0173491D01*
X0156000Y0170257D01*
X0156000Y0169323D01*
X0157650Y0167673D01*
X0158685Y0165174D01*
X0158685Y0105229D01*
X0159991Y0103923D01*
X0161447Y0100408D01*
X0161447Y0096604D01*
X0159991Y0093090D01*
X0157302Y0090400D01*
X0153787Y0088944D01*
X0151939Y0088944D01*
X0147650Y0084654D01*
X0147650Y0084654D01*
X0146702Y0083706D01*
X0460701Y0083706D01*
X0460701Y0277372D01*
X0457800Y0275147D01*
X0457800Y0275147D01*
X0452687Y0273029D01*
X0452687Y0273029D01*
X0447200Y0272306D01*
X0447200Y0272306D01*
X0441713Y0273029D01*
X0441713Y0273029D01*
X0436600Y0275147D01*
X0436600Y0275147D01*
X0432209Y0278516D01*
X0432209Y0278516D01*
X0428840Y0282906D01*
X0428840Y0282906D01*
X0426722Y0288019D01*
X0426722Y0288019D01*
X0426000Y0293506D01*
X0426000Y0293506D01*
X0426722Y0298993D01*
X0426722Y0298993D01*
X0428840Y0304106D01*
X0432033Y0308267D01*
X0057367Y0308267D01*
X0060560Y0304106D01*
X0060560Y0304106D01*
X0062678Y0298993D01*
X0062678Y0298993D01*
X0063400Y0293506D01*
X0062678Y0288019D01*
X0062678Y0288019D01*
X0060560Y0282906D01*
X0060560Y0282906D01*
X0057191Y0278516D01*
X0057191Y0278516D01*
X0052800Y0275147D01*
X0052800Y0275147D01*
X0047687Y0273029D01*
X0042200Y0272306D01*
X0042200Y0272306D01*
X0036713Y0273029D01*
X0036713Y0273029D01*
X0031600Y0275147D01*
X0031600Y0275147D01*
X0027400Y0278369D01*
X0027400Y0277583D02*
X0028425Y0277583D01*
X0027400Y0275184D02*
X0031551Y0275184D01*
X0027400Y0272786D02*
X0038558Y0272786D01*
X0045842Y0272786D02*
X0125122Y0272786D01*
X0132278Y0272786D02*
X0136500Y0272786D01*
X0136500Y0270387D02*
X0027400Y0270387D01*
X0027400Y0267989D02*
X0136500Y0267989D01*
X0136500Y0265590D02*
X0027400Y0265590D01*
X0027400Y0263192D02*
X0137454Y0263192D01*
X0139852Y0260793D02*
X0027400Y0260793D01*
X0027400Y0258395D02*
X0142251Y0258395D01*
X0144649Y0255996D02*
X0027400Y0255996D01*
X0027400Y0253598D02*
X0147048Y0253598D01*
X0149446Y0251199D02*
X0027400Y0251199D01*
X0027400Y0248801D02*
X0151845Y0248801D01*
X0152500Y0246402D02*
X0126365Y0246402D01*
X0128764Y0244004D02*
X0152500Y0244004D01*
X0152500Y0241605D02*
X0131546Y0241605D01*
X0133945Y0239207D02*
X0152500Y0239207D01*
X0152734Y0236808D02*
X0136000Y0236808D01*
X0136000Y0234410D02*
X0154236Y0234410D01*
X0156634Y0232011D02*
X0136000Y0232011D01*
X0135900Y0229613D02*
X0158649Y0229613D01*
X0161047Y0227214D02*
X0135900Y0227214D01*
X0135900Y0224815D02*
X0163446Y0224815D01*
X0167200Y0233506D02*
X0167200Y0258506D01*
X0147200Y0278506D01*
X0147200Y0288506D01*
X0139509Y0301568D02*
X0137199Y0301568D01*
X0133913Y0303966D02*
X0142865Y0303966D01*
X0151535Y0303966D02*
X0161365Y0303966D01*
X0158009Y0301568D02*
X0154891Y0301568D01*
X0170035Y0303966D02*
X0428782Y0303966D01*
X0427789Y0301568D02*
X0173391Y0301568D01*
X0175161Y0299169D02*
X0192681Y0299169D01*
X0194218Y0300706D02*
X0190000Y0296489D01*
X0190000Y0293506D01*
X0190000Y0290524D01*
X0190886Y0289638D01*
X0188400Y0287151D01*
X0188400Y0279861D01*
X0190400Y0277861D01*
X0190400Y0264151D01*
X0188400Y0262151D01*
X0188400Y0254861D01*
X0193555Y0249706D01*
X0200845Y0249706D01*
X0206000Y0254861D01*
X0206000Y0262151D01*
X0204000Y0264151D01*
X0204000Y0277861D01*
X0206000Y0279861D01*
X0206000Y0287151D01*
X0203514Y0289638D01*
X0204400Y0290524D01*
X0204400Y0293506D01*
X0197200Y0293506D01*
X0197200Y0293506D01*
X0190000Y0293506D01*
X0197200Y0293506D01*
X0197200Y0293506D01*
X0204400Y0293506D01*
X0204400Y0296489D01*
X0200182Y0300706D01*
X0197200Y0300706D01*
X0194218Y0300706D01*
X0197200Y0300706D02*
X0197200Y0293506D01*
X0197200Y0293506D01*
X0197200Y0300706D01*
X0197200Y0299169D02*
X0197200Y0299169D01*
X0197200Y0296771D02*
X0197200Y0296771D01*
X0197200Y0294372D02*
X0197200Y0294372D01*
X0201719Y0299169D02*
X0426795Y0299169D01*
X0426430Y0296771D02*
X0327481Y0296771D01*
X0329751Y0294372D02*
X0347884Y0294372D01*
X0349218Y0295706D02*
X0345000Y0291489D01*
X0345000Y0288506D01*
X0352200Y0288506D01*
X0352200Y0288506D01*
X0359400Y0288506D01*
X0359400Y0291489D01*
X0355182Y0295706D01*
X0352200Y0295706D01*
X0349218Y0295706D01*
X0352200Y0295706D02*
X0352200Y0288506D01*
X0352200Y0288506D01*
X0352200Y0295706D01*
X0352200Y0294372D02*
X0352200Y0294372D01*
X0352200Y0291974D02*
X0352200Y0291974D01*
X0352200Y0289575D02*
X0352200Y0289575D01*
X0345485Y0291974D02*
X0330744Y0291974D01*
X0331000Y0289575D02*
X0345000Y0289575D01*
X0345000Y0287177D02*
X0331000Y0287177D01*
X0331000Y0284778D02*
X0345746Y0284778D01*
X0344279Y0282380D02*
X0331000Y0282380D01*
X0330721Y0279981D02*
X0343400Y0279981D01*
X0343400Y0277583D02*
X0329727Y0277583D01*
X0327423Y0275184D02*
X0344051Y0275184D01*
X0345400Y0272786D02*
X0316096Y0272786D01*
X0313698Y0270387D02*
X0344464Y0270387D01*
X0356502Y0263192D02*
X0460701Y0263192D01*
X0460701Y0265590D02*
X0358352Y0265590D01*
X0359000Y0267989D02*
X0460701Y0267989D01*
X0460701Y0270387D02*
X0359000Y0270387D01*
X0359000Y0272786D02*
X0443558Y0272786D01*
X0436551Y0275184D02*
X0360349Y0275184D01*
X0361000Y0277583D02*
X0433425Y0277583D01*
X0432209Y0278516D02*
X0432209Y0278516D01*
X0431085Y0279981D02*
X0361000Y0279981D01*
X0360121Y0282380D02*
X0429244Y0282380D01*
X0428065Y0284778D02*
X0358654Y0284778D01*
X0359400Y0287177D02*
X0427071Y0287177D01*
X0426518Y0289575D02*
X0359400Y0289575D01*
X0358915Y0291974D02*
X0426202Y0291974D01*
X0426114Y0294372D02*
X0356516Y0294372D01*
X0317066Y0267989D02*
X0311299Y0267989D01*
X0308901Y0265590D02*
X0314667Y0265590D01*
X0312269Y0263192D02*
X0306502Y0263192D01*
X0305176Y0260793D02*
X0299103Y0260793D01*
X0297200Y0258890D02*
X0297200Y0248506D01*
X0297200Y0237706D01*
X0297672Y0237706D01*
X0298608Y0237829D01*
X0299519Y0238074D01*
X0300391Y0238435D01*
X0300921Y0238741D01*
X0302215Y0237446D01*
X0305450Y0236106D01*
X0305549Y0236106D01*
X0306749Y0234906D01*
X0289851Y0234906D01*
X0288651Y0236106D01*
X0288950Y0236106D01*
X0292185Y0237446D01*
X0293479Y0238741D01*
X0294009Y0238435D01*
X0294881Y0238074D01*
X0295792Y0237829D01*
X0296728Y0237706D01*
X0297200Y0237706D01*
X0297200Y0248506D01*
X0297200Y0248506D01*
X0297200Y0258890D01*
X0297200Y0258890D01*
X0297200Y0258395D02*
X0297200Y0258395D01*
X0297200Y0255996D02*
X0297200Y0255996D01*
X0297200Y0253598D02*
X0297200Y0253598D01*
X0297200Y0251199D02*
X0297200Y0251199D01*
X0297200Y0248801D02*
X0297200Y0248801D01*
X0297200Y0248506D02*
X0297200Y0248506D01*
X0297200Y0246402D02*
X0297200Y0246402D01*
X0297200Y0244004D02*
X0297200Y0244004D01*
X0297200Y0241605D02*
X0297200Y0241605D01*
X0297200Y0239207D02*
X0297200Y0239207D01*
X0290645Y0236808D02*
X0303755Y0236808D01*
X0307200Y0243506D02*
X0312200Y0238506D01*
X0352200Y0238506D01*
X0357200Y0243506D01*
X0357200Y0248506D01*
X0349846Y0253598D02*
X0336000Y0253598D01*
X0336000Y0251199D02*
X0348400Y0251199D01*
X0348400Y0248801D02*
X0336000Y0248801D01*
X0336000Y0246402D02*
X0348400Y0246402D01*
X0352245Y0255996D02*
X0335114Y0255996D01*
X0351705Y0258395D02*
X0460701Y0258395D01*
X0460701Y0260793D02*
X0354104Y0260793D01*
X0362155Y0255996D02*
X0460701Y0255996D01*
X0460701Y0253598D02*
X0381725Y0253598D01*
X0384124Y0251199D02*
X0460701Y0251199D01*
X0460701Y0248801D02*
X0386522Y0248801D01*
X0388921Y0246402D02*
X0460701Y0246402D01*
X0460701Y0244004D02*
X0391319Y0244004D01*
X0393718Y0241605D02*
X0460701Y0241605D01*
X0460701Y0239207D02*
X0396116Y0239207D01*
X0398515Y0236808D02*
X0460701Y0236808D01*
X0460701Y0234410D02*
X0400913Y0234410D01*
X0403312Y0232011D02*
X0460701Y0232011D01*
X0460701Y0229613D02*
X0405710Y0229613D01*
X0408109Y0227214D02*
X0460701Y0227214D01*
X0460701Y0224815D02*
X0410507Y0224815D01*
X0412906Y0222417D02*
X0460701Y0222417D01*
X0460701Y0220018D02*
X0415304Y0220018D01*
X0417703Y0217620D02*
X0460701Y0217620D01*
X0460701Y0215221D02*
X0420101Y0215221D01*
X0422500Y0212823D02*
X0460701Y0212823D01*
X0460701Y0210424D02*
X0424899Y0210424D01*
X0427297Y0208026D02*
X0460701Y0208026D01*
X0460701Y0205627D02*
X0429696Y0205627D01*
X0432094Y0203229D02*
X0460701Y0203229D01*
X0460701Y0200830D02*
X0433598Y0200830D01*
X0434000Y0198432D02*
X0460701Y0198432D01*
X0460701Y0196033D02*
X0434000Y0196033D01*
X0434000Y0193635D02*
X0460701Y0193635D01*
X0460701Y0191236D02*
X0434000Y0191236D01*
X0434000Y0188838D02*
X0460701Y0188838D01*
X0460701Y0186439D02*
X0434000Y0186439D01*
X0434000Y0184041D02*
X0460701Y0184041D01*
X0460701Y0181642D02*
X0434000Y0181642D01*
X0434000Y0179244D02*
X0460701Y0179244D01*
X0460701Y0176845D02*
X0434000Y0176845D01*
X0434000Y0174447D02*
X0460701Y0174447D01*
X0460701Y0172048D02*
X0434000Y0172048D01*
X0434000Y0169650D02*
X0460701Y0169650D01*
X0460701Y0167251D02*
X0434000Y0167251D01*
X0434000Y0164853D02*
X0460701Y0164853D01*
X0460701Y0162454D02*
X0434000Y0162454D01*
X0434000Y0160056D02*
X0460701Y0160056D01*
X0460701Y0157657D02*
X0434000Y0157657D01*
X0434000Y0155259D02*
X0460701Y0155259D01*
X0460701Y0152860D02*
X0434000Y0152860D01*
X0434000Y0150462D02*
X0460701Y0150462D01*
X0460701Y0148063D02*
X0434000Y0148063D01*
X0434000Y0145665D02*
X0460701Y0145665D01*
X0460701Y0143266D02*
X0434000Y0143266D01*
X0434000Y0140868D02*
X0436638Y0140868D01*
X0437200Y0140868D02*
X0437200Y0140868D01*
X0437200Y0140878D02*
X0437200Y0133506D01*
X0437200Y0133506D01*
X0444572Y0133506D01*
X0444572Y0133989D01*
X0444446Y0134948D01*
X0444195Y0135881D01*
X0443826Y0136774D01*
X0443342Y0137611D01*
X0442754Y0138377D01*
X0442071Y0139060D01*
X0441304Y0139649D01*
X0440467Y0140132D01*
X0439575Y0140502D01*
X0438641Y0140752D01*
X0437683Y0140878D01*
X0437200Y0140878D01*
X0437762Y0140868D02*
X0460701Y0140868D01*
X0460701Y0138469D02*
X0442662Y0138469D01*
X0444117Y0136071D02*
X0460701Y0136071D01*
X0460701Y0133672D02*
X0444572Y0133672D01*
X0444233Y0131274D02*
X0460701Y0131274D01*
X0460701Y0128875D02*
X0442938Y0128875D01*
X0439446Y0126477D02*
X0460701Y0126477D01*
X0460701Y0124078D02*
X0383685Y0124078D01*
X0383685Y0121680D02*
X0403056Y0121680D01*
X0402024Y0121252D02*
X0399454Y0118682D01*
X0398063Y0115324D01*
X0398063Y0111689D01*
X0399454Y0108331D01*
X0402024Y0105760D01*
X0405383Y0104369D01*
X0409017Y0104369D01*
X0412376Y0105760D01*
X0414946Y0108331D01*
X0416337Y0111689D01*
X0416337Y0115324D01*
X0414946Y0118682D01*
X0412376Y0121252D01*
X0409017Y0122643D01*
X0405383Y0122643D01*
X0402024Y0121252D01*
X0400053Y0119281D02*
X0383685Y0119281D01*
X0383685Y0116882D02*
X0398709Y0116882D01*
X0398063Y0114484D02*
X0383685Y0114484D01*
X0383685Y0112085D02*
X0398063Y0112085D01*
X0398892Y0109687D02*
X0383685Y0109687D01*
X0383685Y0107288D02*
X0400496Y0107288D01*
X0404126Y0104890D02*
X0384024Y0104890D01*
X0383685Y0105229D02*
X0383685Y0139706D01*
X0385845Y0139706D01*
X0391000Y0144861D01*
X0391000Y0152151D01*
X0385845Y0157306D01*
X0378555Y0157306D01*
X0373400Y0152151D01*
X0373400Y0149323D01*
X0373033Y0148956D01*
X0371120Y0147043D01*
X0370085Y0144544D01*
X0370085Y0105229D01*
X0368779Y0103923D01*
X0367323Y0100408D01*
X0367323Y0096604D01*
X0368779Y0093090D01*
X0371468Y0090400D01*
X0374983Y0088944D01*
X0378787Y0088944D01*
X0382302Y0090400D01*
X0384991Y0093090D01*
X0386447Y0096604D01*
X0386447Y0100408D01*
X0384991Y0103923D01*
X0383685Y0105229D01*
X0385584Y0102491D02*
X0460701Y0102491D01*
X0460701Y0100093D02*
X0386447Y0100093D01*
X0386447Y0097694D02*
X0460701Y0097694D01*
X0460701Y0095296D02*
X0385905Y0095296D01*
X0384799Y0092897D02*
X0460701Y0092897D01*
X0460701Y0090499D02*
X0382401Y0090499D01*
X0376885Y0098506D02*
X0377200Y0098821D01*
X0368186Y0102491D02*
X0365899Y0102491D01*
X0365306Y0103923D02*
X0366762Y0100408D01*
X0366762Y0096604D01*
X0365306Y0093090D01*
X0362617Y0090400D01*
X0359102Y0088944D01*
X0355298Y0088944D01*
X0351783Y0090400D01*
X0350477Y0091706D01*
X0344238Y0091706D01*
X0342932Y0090400D01*
X0339417Y0088944D01*
X0335613Y0088944D01*
X0332098Y0090400D01*
X0330792Y0091706D01*
X0308608Y0091706D01*
X0307302Y0090400D01*
X0303787Y0088944D01*
X0299983Y0088944D01*
X0296468Y0090400D01*
X0293779Y0093090D01*
X0292323Y0096604D01*
X0292323Y0100408D01*
X0293779Y0103923D01*
X0296468Y0106613D01*
X0299983Y0108068D01*
X0303787Y0108068D01*
X0307302Y0106613D01*
X0308608Y0105306D01*
X0330792Y0105306D01*
X0332098Y0106613D01*
X0335613Y0108068D01*
X0339417Y0108068D01*
X0342932Y0106613D01*
X0344238Y0105306D01*
X0350477Y0105306D01*
X0351783Y0106613D01*
X0355298Y0108068D01*
X0359102Y0108068D01*
X0362617Y0106613D01*
X0365306Y0103923D01*
X0364339Y0104890D02*
X0369746Y0104890D01*
X0370085Y0107288D02*
X0360985Y0107288D01*
X0353415Y0107288D02*
X0341300Y0107288D01*
X0333730Y0107288D02*
X0305670Y0107288D01*
X0298100Y0107288D02*
X0245599Y0107288D01*
X0243200Y0104890D02*
X0257755Y0104890D01*
X0258082Y0105141D02*
X0257254Y0104505D01*
X0256516Y0103767D01*
X0255880Y0102939D01*
X0255359Y0102035D01*
X0254959Y0101071D01*
X0254689Y0100063D01*
X0254553Y0099028D01*
X0254553Y0098506D01*
X0254553Y0097984D01*
X0254689Y0096950D01*
X0254959Y0095941D01*
X0255359Y0094977D01*
X0255880Y0094073D01*
X0256516Y0093245D01*
X0257254Y0092507D01*
X0258082Y0091872D01*
X0258986Y0091350D01*
X0259950Y0090950D01*
X0260958Y0090680D01*
X0261993Y0090544D01*
X0262515Y0090544D01*
X0263037Y0090544D01*
X0264072Y0090680D01*
X0265080Y0090950D01*
X0266044Y0091350D01*
X0266948Y0091872D01*
X0267776Y0092507D01*
X0268514Y0093245D01*
X0269149Y0094073D01*
X0269671Y0094977D01*
X0270071Y0095941D01*
X0270341Y0096950D01*
X0270477Y0097984D01*
X0270477Y0098506D01*
X0262515Y0098506D01*
X0262515Y0090544D01*
X0262515Y0098506D01*
X0262515Y0098506D01*
X0262515Y0098506D01*
X0254553Y0098506D01*
X0262515Y0098506D01*
X0262515Y0098506D01*
X0270477Y0098506D01*
X0270477Y0099028D01*
X0270341Y0100063D01*
X0270071Y0101071D01*
X0269671Y0102035D01*
X0269149Y0102939D01*
X0268514Y0103767D01*
X0267776Y0104505D01*
X0266948Y0105141D01*
X0266044Y0105663D01*
X0265080Y0106062D01*
X0264072Y0106332D01*
X0263037Y0106468D01*
X0262515Y0106468D01*
X0262515Y0098506D01*
X0262515Y0098506D01*
X0262515Y0106468D01*
X0261993Y0106468D01*
X0260958Y0106332D01*
X0259950Y0106062D01*
X0258986Y0105663D01*
X0258082Y0105141D01*
X0255622Y0102491D02*
X0240802Y0102491D01*
X0238403Y0100093D02*
X0254697Y0100093D01*
X0254591Y0097694D02*
X0236447Y0097694D01*
X0235905Y0095296D02*
X0255227Y0095296D01*
X0256864Y0092897D02*
X0234799Y0092897D01*
X0232401Y0090499D02*
X0296369Y0090499D01*
X0293971Y0092897D02*
X0287851Y0092897D01*
X0288199Y0093245D02*
X0288835Y0094073D01*
X0289356Y0094977D01*
X0289756Y0095941D01*
X0290026Y0096950D01*
X0290162Y0097984D01*
X0290162Y0098506D01*
X0282200Y0098506D01*
X0282200Y0090544D01*
X0282722Y0090544D01*
X0283757Y0090680D01*
X0284765Y0090950D01*
X0285729Y0091350D01*
X0286633Y0091872D01*
X0287461Y0092507D01*
X0288199Y0093245D01*
X0289488Y0095296D02*
X0292865Y0095296D01*
X0292323Y0097694D02*
X0290124Y0097694D01*
X0290162Y0098506D02*
X0290162Y0099028D01*
X0290026Y0100063D01*
X0289756Y0101071D01*
X0289356Y0102035D01*
X0288835Y0102939D01*
X0288199Y0103767D01*
X0287461Y0104505D01*
X0286633Y0105141D01*
X0285729Y0105663D01*
X0284765Y0106062D01*
X0283757Y0106332D01*
X0282722Y0106468D01*
X0282200Y0106468D01*
X0282200Y0098506D01*
X0282200Y0098506D01*
X0282200Y0090544D01*
X0281678Y0090544D01*
X0280643Y0090680D01*
X0279635Y0090950D01*
X0278671Y0091350D01*
X0277767Y0091872D01*
X0276939Y0092507D01*
X0276201Y0093245D01*
X0275565Y0094073D01*
X0275044Y0094977D01*
X0274644Y0095941D01*
X0274374Y0096950D01*
X0274238Y0097984D01*
X0274238Y0098506D01*
X0282200Y0098506D01*
X0282200Y0098506D01*
X0282200Y0098506D01*
X0290162Y0098506D01*
X0290018Y0100093D02*
X0292323Y0100093D01*
X0293186Y0102491D02*
X0289093Y0102491D01*
X0286960Y0104890D02*
X0294746Y0104890D01*
X0282200Y0104890D02*
X0282200Y0104890D01*
X0282200Y0106468D02*
X0281678Y0106468D01*
X0280643Y0106332D01*
X0279635Y0106062D01*
X0278671Y0105663D01*
X0277767Y0105141D01*
X0276939Y0104505D01*
X0276201Y0103767D01*
X0275565Y0102939D01*
X0275044Y0102035D01*
X0274644Y0101071D01*
X0274374Y0100063D01*
X0274238Y0099028D01*
X0274238Y0098506D01*
X0282200Y0098506D01*
X0282200Y0106468D01*
X0277440Y0104890D02*
X0267275Y0104890D01*
X0269408Y0102491D02*
X0275307Y0102491D01*
X0274382Y0100093D02*
X0270333Y0100093D01*
X0270439Y0097694D02*
X0274276Y0097694D01*
X0274912Y0095296D02*
X0269803Y0095296D01*
X0268166Y0092897D02*
X0276549Y0092897D01*
X0282200Y0092897D02*
X0282200Y0092897D01*
X0282200Y0095296D02*
X0282200Y0095296D01*
X0282200Y0097694D02*
X0282200Y0097694D01*
X0282200Y0098506D02*
X0282200Y0098506D01*
X0282200Y0100093D02*
X0282200Y0100093D01*
X0282200Y0102491D02*
X0282200Y0102491D01*
X0262515Y0102491D02*
X0262515Y0102491D01*
X0262515Y0100093D02*
X0262515Y0100093D01*
X0262515Y0097694D02*
X0262515Y0097694D01*
X0262515Y0095296D02*
X0262515Y0095296D01*
X0262515Y0092897D02*
X0262515Y0092897D01*
X0262515Y0104890D02*
X0262515Y0104890D01*
X0252794Y0114484D02*
X0370085Y0114484D01*
X0370085Y0116882D02*
X0255193Y0116882D01*
X0257591Y0119281D02*
X0370085Y0119281D01*
X0370085Y0121680D02*
X0258804Y0121680D01*
X0259000Y0124078D02*
X0370085Y0124078D01*
X0370085Y0126477D02*
X0259000Y0126477D01*
X0259000Y0128875D02*
X0370085Y0128875D01*
X0370085Y0131274D02*
X0362412Y0131274D01*
X0364811Y0133672D02*
X0370085Y0133672D01*
X0370085Y0136071D02*
X0366000Y0136071D01*
X0366000Y0138469D02*
X0370085Y0138469D01*
X0370085Y0140868D02*
X0366000Y0140868D01*
X0364885Y0143266D02*
X0370085Y0143266D01*
X0370549Y0145665D02*
X0364000Y0145665D01*
X0364202Y0148063D02*
X0372140Y0148063D01*
X0373033Y0148956D02*
X0373033Y0148956D01*
X0373400Y0150462D02*
X0366000Y0150462D01*
X0366000Y0152860D02*
X0374109Y0152860D01*
X0376507Y0155259D02*
X0366000Y0155259D01*
X0365494Y0157657D02*
X0420400Y0157657D01*
X0420400Y0155259D02*
X0387893Y0155259D01*
X0390291Y0152860D02*
X0420400Y0152860D01*
X0420400Y0150462D02*
X0391000Y0150462D01*
X0391000Y0148063D02*
X0420400Y0148063D01*
X0420400Y0145665D02*
X0391000Y0145665D01*
X0389405Y0143266D02*
X0420400Y0143266D01*
X0420400Y0140868D02*
X0387006Y0140868D01*
X0383685Y0138469D02*
X0419545Y0138469D01*
X0418551Y0136071D02*
X0383685Y0136071D01*
X0383685Y0133672D02*
X0418228Y0133672D01*
X0418414Y0131274D02*
X0383685Y0131274D01*
X0383685Y0128875D02*
X0419407Y0128875D01*
X0421542Y0126477D02*
X0383685Y0126477D01*
X0370085Y0112085D02*
X0250396Y0112085D01*
X0247997Y0109687D02*
X0370085Y0109687D01*
X0367323Y0100093D02*
X0366762Y0100093D01*
X0366762Y0097694D02*
X0367323Y0097694D01*
X0367865Y0095296D02*
X0366220Y0095296D01*
X0365114Y0092897D02*
X0368971Y0092897D01*
X0371369Y0090499D02*
X0362716Y0090499D01*
X0351684Y0090499D02*
X0343031Y0090499D01*
X0331999Y0090499D02*
X0307401Y0090499D01*
X0331988Y0131274D02*
X0272412Y0131274D01*
X0281982Y0133672D02*
X0322418Y0133672D01*
X0320019Y0136071D02*
X0284381Y0136071D01*
X0286779Y0138469D02*
X0317621Y0138469D01*
X0302111Y0140868D02*
X0289178Y0140868D01*
X0291576Y0143266D02*
X0299712Y0143266D01*
X0298200Y0145665D02*
X0293975Y0145665D01*
X0296373Y0148063D02*
X0298200Y0148063D01*
X0285400Y0169650D02*
X0283502Y0169650D01*
X0284041Y0172048D02*
X0281103Y0172048D01*
X0281643Y0174447D02*
X0211442Y0174447D01*
X0210182Y0175706D02*
X0207200Y0175706D01*
X0204218Y0175706D01*
X0200000Y0171489D01*
X0200000Y0168506D01*
X0200000Y0165524D01*
X0204218Y0161306D01*
X0207200Y0161306D01*
X0210182Y0161306D01*
X0214400Y0165524D01*
X0214400Y0168506D01*
X0207200Y0168506D01*
X0207200Y0161306D01*
X0207200Y0168506D01*
X0207200Y0168506D01*
X0207200Y0168506D01*
X0200000Y0168506D01*
X0207200Y0168506D01*
X0207200Y0168506D01*
X0214400Y0168506D01*
X0214400Y0171489D01*
X0210182Y0175706D01*
X0207200Y0175706D02*
X0207200Y0168506D01*
X0207200Y0175706D01*
X0207200Y0174447D02*
X0207200Y0174447D01*
X0207200Y0172048D02*
X0207200Y0172048D01*
X0207200Y0169650D02*
X0207200Y0169650D01*
X0207200Y0168506D02*
X0207200Y0168506D01*
X0207200Y0167251D02*
X0207200Y0167251D01*
X0207200Y0164853D02*
X0207200Y0164853D01*
X0207200Y0162454D02*
X0207200Y0162454D01*
X0211330Y0162454D02*
X0256531Y0162454D01*
X0254133Y0160056D02*
X0158685Y0160056D01*
X0158685Y0162454D02*
X0203070Y0162454D01*
X0200671Y0164853D02*
X0158685Y0164853D01*
X0157825Y0167251D02*
X0200000Y0167251D01*
X0200000Y0169650D02*
X0156000Y0169650D01*
X0155258Y0172048D02*
X0200560Y0172048D01*
X0202958Y0174447D02*
X0155044Y0174447D01*
X0156000Y0176845D02*
X0280528Y0176845D01*
X0280400Y0179244D02*
X0156000Y0179244D01*
X0155426Y0181642D02*
X0280400Y0181642D01*
X0280400Y0184041D02*
X0257351Y0184041D01*
X0259750Y0186439D02*
X0271822Y0186439D01*
X0269423Y0188838D02*
X0262148Y0188838D01*
X0264547Y0191236D02*
X0268400Y0191236D01*
X0268400Y0193635D02*
X0266945Y0193635D01*
X0257306Y0203229D02*
X0152652Y0203229D01*
X0152625Y0203264D02*
X0151957Y0203931D01*
X0151209Y0204506D01*
X0150391Y0204978D01*
X0149519Y0205339D01*
X0148608Y0205583D01*
X0147672Y0205706D01*
X0147200Y0205706D01*
X0146728Y0205706D01*
X0145792Y0205583D01*
X0144881Y0205339D01*
X0144009Y0204978D01*
X0143191Y0204506D01*
X0142443Y0203931D01*
X0141775Y0203264D01*
X0141201Y0202515D01*
X0140729Y0201698D01*
X0140367Y0200826D01*
X0140123Y0199914D01*
X0140000Y0198978D01*
X0140000Y0198506D01*
X0147200Y0198506D01*
X0147200Y0198506D01*
X0154400Y0198506D01*
X0154400Y0198978D01*
X0154277Y0199914D01*
X0154033Y0200826D01*
X0153671Y0201698D01*
X0153199Y0202515D01*
X0152625Y0203264D01*
X0154031Y0200830D02*
X0254907Y0200830D01*
X0252509Y0198432D02*
X0154400Y0198432D01*
X0153969Y0196033D02*
X0250110Y0196033D01*
X0255059Y0208026D02*
X0236902Y0208026D01*
X0235182Y0206306D02*
X0239400Y0210524D01*
X0239400Y0213506D01*
X0232200Y0213506D01*
X0232200Y0206306D01*
X0235182Y0206306D01*
X0232200Y0206306D02*
X0232200Y0213506D01*
X0232200Y0213506D01*
X0232200Y0213506D01*
X0225000Y0213506D01*
X0225000Y0210524D01*
X0229218Y0206306D01*
X0232200Y0206306D01*
X0232200Y0208026D02*
X0232200Y0208026D01*
X0232200Y0210424D02*
X0232200Y0210424D01*
X0232200Y0212823D02*
X0232200Y0212823D01*
X0232200Y0213506D02*
X0232200Y0213506D01*
X0239400Y0213506D01*
X0239400Y0216489D01*
X0235182Y0220706D01*
X0232200Y0220706D01*
X0229218Y0220706D01*
X0225000Y0216489D01*
X0225000Y0213506D01*
X0232200Y0213506D01*
X0232200Y0220706D01*
X0232200Y0213506D01*
X0232200Y0213506D01*
X0232200Y0215221D02*
X0232200Y0215221D01*
X0232200Y0217620D02*
X0232200Y0217620D01*
X0232200Y0220018D02*
X0232200Y0220018D01*
X0235870Y0220018D02*
X0250000Y0220018D01*
X0250000Y0217620D02*
X0238269Y0217620D01*
X0239400Y0215221D02*
X0250000Y0215221D01*
X0250304Y0212823D02*
X0239400Y0212823D01*
X0239300Y0210424D02*
X0251564Y0210424D01*
X0257200Y0210424D02*
X0257200Y0210424D01*
X0257200Y0208026D02*
X0257200Y0208026D01*
X0259341Y0208026D02*
X0260400Y0208026D01*
X0259704Y0205627D02*
X0148271Y0205627D01*
X0147200Y0205627D02*
X0147200Y0205627D01*
X0147200Y0205706D02*
X0147200Y0198506D01*
X0147200Y0198506D01*
X0147200Y0205706D01*
X0146129Y0205627D02*
X0134000Y0205627D01*
X0134000Y0203229D02*
X0141748Y0203229D01*
X0140369Y0200830D02*
X0134000Y0200830D01*
X0134000Y0198432D02*
X0140000Y0198432D01*
X0140431Y0196033D02*
X0134000Y0196033D01*
X0134000Y0193635D02*
X0139883Y0193635D01*
X0138806Y0191236D02*
X0134000Y0191236D01*
X0134000Y0188838D02*
X0138400Y0188838D01*
X0138531Y0186439D02*
X0134000Y0186439D01*
X0134000Y0184041D02*
X0138118Y0184041D01*
X0135719Y0181642D02*
X0134000Y0181642D01*
X0147200Y0200830D02*
X0147200Y0200830D01*
X0147200Y0203229D02*
X0147200Y0203229D01*
X0135900Y0210424D02*
X0225100Y0210424D01*
X0225000Y0212823D02*
X0135900Y0212823D01*
X0135900Y0215221D02*
X0198303Y0215221D01*
X0195904Y0217620D02*
X0135900Y0217620D01*
X0135900Y0220018D02*
X0195000Y0220018D01*
X0195000Y0222417D02*
X0135900Y0222417D01*
X0127200Y0233506D02*
X0115200Y0233506D01*
X0112200Y0230506D01*
X0112200Y0213506D01*
X0122200Y0213506D01*
X0127200Y0208506D01*
X0135342Y0208026D02*
X0227498Y0208026D01*
X0225000Y0215221D02*
X0206097Y0215221D01*
X0208496Y0217620D02*
X0226131Y0217620D01*
X0228530Y0220018D02*
X0209400Y0220018D01*
X0209400Y0222417D02*
X0250000Y0222417D01*
X0250529Y0224815D02*
X0238570Y0224815D01*
X0232200Y0233506D02*
X0204200Y0233506D01*
X0202200Y0235506D01*
X0190200Y0235506D01*
X0167200Y0258506D01*
X0175177Y0265590D02*
X0190400Y0265590D01*
X0190400Y0267989D02*
X0171859Y0267989D01*
X0169278Y0272786D02*
X0190400Y0272786D01*
X0190400Y0275184D02*
X0173131Y0275184D01*
X0175011Y0277583D02*
X0190400Y0277583D01*
X0188400Y0279981D02*
X0176032Y0279981D01*
X0176450Y0282380D02*
X0188400Y0282380D01*
X0188400Y0284778D02*
X0176450Y0284778D01*
X0176450Y0287177D02*
X0188425Y0287177D01*
X0190824Y0289575D02*
X0176450Y0289575D01*
X0176450Y0291974D02*
X0190000Y0291974D01*
X0190000Y0294372D02*
X0176450Y0294372D01*
X0176102Y0296771D02*
X0190282Y0296771D01*
X0204118Y0296771D02*
X0226919Y0296771D01*
X0224649Y0294372D02*
X0204400Y0294372D01*
X0204400Y0291974D02*
X0223656Y0291974D01*
X0223400Y0289575D02*
X0203576Y0289575D01*
X0205975Y0287177D02*
X0223400Y0287177D01*
X0223400Y0284778D02*
X0206000Y0284778D01*
X0206000Y0282380D02*
X0223400Y0282380D01*
X0223679Y0279981D02*
X0206000Y0279981D01*
X0204000Y0277583D02*
X0224673Y0277583D01*
X0225400Y0275184D02*
X0204000Y0275184D01*
X0204000Y0272786D02*
X0225400Y0272786D01*
X0225400Y0270387D02*
X0220501Y0270387D01*
X0220182Y0270706D02*
X0217200Y0270706D01*
X0214218Y0270706D01*
X0210000Y0266489D01*
X0210000Y0263506D01*
X0210000Y0260524D01*
X0214218Y0256306D01*
X0217200Y0256306D01*
X0220182Y0256306D01*
X0224400Y0260524D01*
X0224400Y0263506D01*
X0217200Y0263506D01*
X0217200Y0256306D01*
X0217200Y0263506D01*
X0217200Y0263506D01*
X0217200Y0263506D01*
X0210000Y0263506D01*
X0217200Y0263506D01*
X0217200Y0263506D01*
X0224400Y0263506D01*
X0224400Y0266489D01*
X0220182Y0270706D01*
X0217200Y0270706D02*
X0217200Y0263506D01*
X0217200Y0270706D01*
X0217200Y0270387D02*
X0217200Y0270387D01*
X0217200Y0267989D02*
X0217200Y0267989D01*
X0217200Y0265590D02*
X0217200Y0265590D01*
X0217200Y0263506D02*
X0217200Y0263506D01*
X0217200Y0263192D02*
X0217200Y0263192D01*
X0217200Y0260793D02*
X0217200Y0260793D01*
X0217200Y0258395D02*
X0217200Y0258395D01*
X0222271Y0258395D02*
X0227695Y0258395D01*
X0225964Y0260793D02*
X0224400Y0260793D01*
X0224400Y0263192D02*
X0225400Y0263192D01*
X0225400Y0265590D02*
X0224400Y0265590D01*
X0225400Y0267989D02*
X0222900Y0267989D01*
X0213899Y0270387D02*
X0204000Y0270387D01*
X0204000Y0267989D02*
X0211500Y0267989D01*
X0210000Y0265590D02*
X0204000Y0265590D01*
X0204960Y0263192D02*
X0210000Y0263192D01*
X0210000Y0260793D02*
X0206000Y0260793D01*
X0206000Y0258395D02*
X0212129Y0258395D01*
X0206000Y0255996D02*
X0230094Y0255996D01*
X0232492Y0253598D02*
X0204736Y0253598D01*
X0202338Y0251199D02*
X0234891Y0251199D01*
X0235313Y0248801D02*
X0237289Y0248801D01*
X0238365Y0246402D02*
X0239688Y0246402D01*
X0240764Y0244004D02*
X0242086Y0244004D01*
X0243086Y0241605D02*
X0249042Y0241605D01*
X0232200Y0233506D02*
X0282200Y0233506D01*
X0287200Y0228506D01*
X0352200Y0228506D01*
X0357200Y0223506D01*
X0357200Y0218506D01*
X0363962Y0212823D02*
X0403267Y0212823D01*
X0405665Y0210424D02*
X0361563Y0210424D01*
X0362297Y0208026D02*
X0408064Y0208026D01*
X0410462Y0205627D02*
X0364696Y0205627D01*
X0367094Y0203229D02*
X0412861Y0203229D01*
X0415259Y0200830D02*
X0369493Y0200830D01*
X0371891Y0198432D02*
X0417658Y0198432D01*
X0420056Y0196033D02*
X0374290Y0196033D01*
X0376688Y0193635D02*
X0420400Y0193635D01*
X0420400Y0191236D02*
X0379087Y0191236D01*
X0381485Y0188838D02*
X0420400Y0188838D01*
X0420400Y0186439D02*
X0386712Y0186439D01*
X0389111Y0184041D02*
X0420400Y0184041D01*
X0420400Y0181642D02*
X0391000Y0181642D01*
X0391000Y0179244D02*
X0420400Y0179244D01*
X0420400Y0176845D02*
X0391000Y0176845D01*
X0390586Y0174447D02*
X0420400Y0174447D01*
X0420400Y0172048D02*
X0388187Y0172048D01*
X0376213Y0172048D02*
X0366000Y0172048D01*
X0366000Y0169650D02*
X0420400Y0169650D01*
X0420400Y0167251D02*
X0366000Y0167251D01*
X0365991Y0164853D02*
X0420400Y0164853D01*
X0420400Y0162454D02*
X0364000Y0162454D01*
X0364000Y0160056D02*
X0420400Y0160056D01*
X0437200Y0138469D02*
X0437200Y0138469D01*
X0437200Y0136071D02*
X0437200Y0136071D01*
X0437200Y0133672D02*
X0437200Y0133672D01*
X0437200Y0133506D02*
X0437200Y0133506D01*
X0437200Y0131274D02*
X0437200Y0131274D01*
X0437200Y0128875D02*
X0437200Y0128875D01*
X0437200Y0126477D02*
X0437200Y0126477D01*
X0434954Y0126477D02*
X0432858Y0126477D01*
X0440053Y0119281D02*
X0414347Y0119281D01*
X0415691Y0116882D02*
X0438709Y0116882D01*
X0438063Y0115324D02*
X0439454Y0118682D01*
X0442024Y0121252D01*
X0445383Y0122643D01*
X0449017Y0122643D01*
X0452376Y0121252D01*
X0454946Y0118682D01*
X0456337Y0115324D01*
X0456337Y0111689D01*
X0454946Y0108331D01*
X0452376Y0105760D01*
X0449017Y0104369D01*
X0445383Y0104369D01*
X0442024Y0105760D01*
X0439454Y0108331D01*
X0438063Y0111689D01*
X0438063Y0115324D01*
X0438063Y0114484D02*
X0416337Y0114484D01*
X0416337Y0112085D02*
X0438063Y0112085D01*
X0438892Y0109687D02*
X0415508Y0109687D01*
X0413904Y0107288D02*
X0440496Y0107288D01*
X0444126Y0104890D02*
X0410274Y0104890D01*
X0411344Y0121680D02*
X0443056Y0121680D01*
X0451344Y0121680D02*
X0460701Y0121680D01*
X0460701Y0119281D02*
X0454347Y0119281D01*
X0455691Y0116882D02*
X0460701Y0116882D01*
X0460701Y0114484D02*
X0456337Y0114484D01*
X0456337Y0112085D02*
X0460701Y0112085D01*
X0460701Y0109687D02*
X0455508Y0109687D01*
X0453904Y0107288D02*
X0460701Y0107288D01*
X0460701Y0104890D02*
X0450274Y0104890D01*
X0460701Y0088100D02*
X0151096Y0088100D01*
X0148697Y0085702D02*
X0460701Y0085702D01*
X0351988Y0131274D02*
X0342412Y0131274D01*
X0344811Y0133672D02*
X0349589Y0133672D01*
X0348400Y0136071D02*
X0346000Y0136071D01*
X0346000Y0138469D02*
X0348400Y0138469D01*
X0348400Y0140868D02*
X0346000Y0140868D01*
X0344885Y0143266D02*
X0349515Y0143266D01*
X0350400Y0145665D02*
X0342487Y0145665D01*
X0344202Y0148063D02*
X0350198Y0148063D01*
X0348400Y0150462D02*
X0346000Y0150462D01*
X0346000Y0152860D02*
X0348400Y0152860D01*
X0348400Y0155259D02*
X0346000Y0155259D01*
X0345494Y0157657D02*
X0348906Y0157657D01*
X0350400Y0160056D02*
X0343096Y0160056D01*
X0343593Y0162454D02*
X0350400Y0162454D01*
X0348409Y0164853D02*
X0345991Y0164853D01*
X0346000Y0167251D02*
X0348400Y0167251D01*
X0348400Y0169650D02*
X0346000Y0169650D01*
X0346000Y0172048D02*
X0348400Y0172048D01*
X0350400Y0174447D02*
X0343705Y0174447D01*
X0342984Y0176845D02*
X0350400Y0176845D01*
X0349017Y0179244D02*
X0345383Y0179244D01*
X0346000Y0181642D02*
X0348400Y0181642D01*
X0348400Y0184041D02*
X0346000Y0184041D01*
X0346000Y0186439D02*
X0348400Y0186439D01*
X0357200Y0188506D02*
X0357200Y0183506D01*
X0366000Y0184041D02*
X0367049Y0184041D01*
X0366000Y0181642D02*
X0369447Y0181642D01*
X0371846Y0179244D02*
X0365383Y0179244D01*
X0364000Y0176845D02*
X0373400Y0176845D01*
X0373814Y0174447D02*
X0364000Y0174447D01*
X0307200Y0178506D02*
X0307200Y0183506D01*
X0273297Y0172048D02*
X0213840Y0172048D01*
X0214400Y0169650D02*
X0264262Y0169650D01*
X0261328Y0167251D02*
X0214400Y0167251D01*
X0213729Y0164853D02*
X0258930Y0164853D01*
X0251734Y0157657D02*
X0158685Y0157657D01*
X0158685Y0155259D02*
X0173770Y0155259D01*
X0174218Y0155706D02*
X0170000Y0151489D01*
X0170000Y0148506D01*
X0177200Y0148506D01*
X0177200Y0148506D01*
X0184400Y0148506D01*
X0184400Y0151489D01*
X0180182Y0155706D01*
X0177200Y0155706D01*
X0174218Y0155706D01*
X0177200Y0155706D02*
X0177200Y0148506D01*
X0177200Y0148506D01*
X0177200Y0155706D01*
X0177200Y0155259D02*
X0177200Y0155259D01*
X0177200Y0152860D02*
X0177200Y0152860D01*
X0177200Y0150462D02*
X0177200Y0150462D01*
X0180630Y0155259D02*
X0249336Y0155259D01*
X0246937Y0152860D02*
X0183028Y0152860D01*
X0184400Y0150462D02*
X0245650Y0150462D01*
X0245400Y0148063D02*
X0184400Y0148063D01*
X0177200Y0138506D02*
X0207200Y0138506D01*
X0207200Y0098506D01*
X0187515Y0098506D01*
X0179601Y0092897D02*
X0159799Y0092897D01*
X0160905Y0095296D02*
X0177349Y0095296D01*
X0174951Y0097694D02*
X0161447Y0097694D01*
X0161447Y0100093D02*
X0172552Y0100093D01*
X0170154Y0102491D02*
X0160584Y0102491D01*
X0159024Y0104890D02*
X0168700Y0104890D01*
X0168500Y0107288D02*
X0158685Y0107288D01*
X0158685Y0109687D02*
X0168500Y0109687D01*
X0168500Y0112085D02*
X0158685Y0112085D01*
X0158685Y0114484D02*
X0168500Y0114484D01*
X0168500Y0116882D02*
X0158685Y0116882D01*
X0158685Y0119281D02*
X0168500Y0119281D01*
X0168500Y0121680D02*
X0158685Y0121680D01*
X0158685Y0124078D02*
X0168500Y0124078D01*
X0168500Y0126477D02*
X0158685Y0126477D01*
X0158685Y0128875D02*
X0168500Y0128875D01*
X0168500Y0131274D02*
X0158685Y0131274D01*
X0158685Y0133672D02*
X0168500Y0133672D01*
X0168500Y0136071D02*
X0158685Y0136071D01*
X0158685Y0138469D02*
X0168400Y0138469D01*
X0168653Y0140868D02*
X0158685Y0140868D01*
X0158685Y0143266D02*
X0169647Y0143266D01*
X0170000Y0145665D02*
X0158685Y0145665D01*
X0158685Y0148063D02*
X0170000Y0148063D01*
X0170000Y0150462D02*
X0158685Y0150462D01*
X0158685Y0152860D02*
X0171372Y0152860D01*
X0207200Y0138506D02*
X0237200Y0138506D01*
X0244885Y0143266D02*
X0245400Y0143266D01*
X0245400Y0145665D02*
X0242487Y0145665D01*
X0259000Y0133672D02*
X0259589Y0133672D01*
X0259000Y0131274D02*
X0261988Y0131274D01*
X0227200Y0098821D02*
X0226885Y0098506D01*
X0227200Y0098506D01*
X0218971Y0092897D02*
X0215114Y0092897D01*
X0217051Y0095296D02*
X0217865Y0095296D01*
X0221369Y0090499D02*
X0212716Y0090499D01*
X0201684Y0090499D02*
X0193030Y0090499D01*
X0181999Y0090499D02*
X0157401Y0090499D01*
X0108155Y0124078D02*
X0103833Y0124078D01*
X0105757Y0121680D02*
X0101434Y0121680D01*
X0103358Y0119281D02*
X0099036Y0119281D01*
X0100960Y0116882D02*
X0096637Y0116882D01*
X0098561Y0114484D02*
X0091337Y0114484D01*
X0091337Y0112085D02*
X0096163Y0112085D01*
X0093764Y0109687D02*
X0090508Y0109687D01*
X0091406Y0107288D02*
X0088904Y0107288D01*
X0090413Y0104890D02*
X0085274Y0104890D01*
X0090400Y0102491D02*
X0027400Y0102491D01*
X0027400Y0100093D02*
X0090400Y0100093D01*
X0090400Y0097694D02*
X0027400Y0097694D01*
X0027400Y0095296D02*
X0090400Y0095296D01*
X0090400Y0092897D02*
X0027400Y0092897D01*
X0027400Y0090499D02*
X0091085Y0090499D01*
X0092989Y0088100D02*
X0027400Y0088100D01*
X0027400Y0085702D02*
X0095388Y0085702D01*
X0079126Y0104890D02*
X0045274Y0104890D01*
X0048904Y0107288D02*
X0075496Y0107288D01*
X0073892Y0109687D02*
X0050508Y0109687D01*
X0051337Y0112085D02*
X0073063Y0112085D01*
X0073063Y0114484D02*
X0051337Y0114484D01*
X0052200Y0123506D02*
X0052200Y0198506D01*
X0067200Y0213506D01*
X0072200Y0213506D01*
X0072200Y0230506D01*
X0064200Y0238506D01*
X0057252Y0244004D02*
X0054885Y0244004D01*
X0050200Y0244004D02*
X0050200Y0244004D01*
X0050200Y0241605D02*
X0050200Y0241605D01*
X0050200Y0239207D02*
X0050200Y0239207D01*
X0050200Y0236808D02*
X0050200Y0236808D01*
X0050200Y0234410D02*
X0050200Y0234410D01*
X0050200Y0232011D02*
X0050200Y0232011D01*
X0053887Y0232011D02*
X0055500Y0232011D01*
X0055500Y0229613D02*
X0027400Y0229613D01*
X0027400Y0232011D02*
X0046513Y0232011D01*
X0044114Y0234410D02*
X0027400Y0234410D01*
X0027400Y0236808D02*
X0043000Y0236808D01*
X0043000Y0239207D02*
X0027400Y0239207D01*
X0027400Y0241605D02*
X0043116Y0241605D01*
X0045515Y0244004D02*
X0027400Y0244004D01*
X0027400Y0246402D02*
X0060035Y0246402D01*
X0082200Y0230506D02*
X0082200Y0213506D01*
X0072200Y0213506D01*
X0055500Y0217620D02*
X0048269Y0217620D01*
X0049400Y0216489D02*
X0045182Y0220706D01*
X0042200Y0220706D01*
X0039218Y0220706D01*
X0035000Y0216489D01*
X0035000Y0213506D01*
X0035000Y0210524D01*
X0039218Y0206306D01*
X0042200Y0206306D01*
X0045182Y0206306D01*
X0049400Y0210524D01*
X0049400Y0213506D01*
X0042200Y0213506D01*
X0042200Y0206306D01*
X0042200Y0213506D01*
X0042200Y0213506D01*
X0042200Y0213506D01*
X0035000Y0213506D01*
X0042200Y0213506D01*
X0042200Y0213506D01*
X0049400Y0213506D01*
X0049400Y0216489D01*
X0049400Y0215221D02*
X0054854Y0215221D01*
X0052456Y0212823D02*
X0049400Y0212823D01*
X0049300Y0210424D02*
X0050057Y0210424D01*
X0047659Y0208026D02*
X0046902Y0208026D01*
X0045260Y0205627D02*
X0027400Y0205627D01*
X0027400Y0203229D02*
X0042862Y0203229D01*
X0041579Y0200830D02*
X0027400Y0200830D01*
X0027400Y0198432D02*
X0041500Y0198432D01*
X0041500Y0196033D02*
X0027400Y0196033D01*
X0027400Y0193635D02*
X0041500Y0193635D01*
X0041500Y0191236D02*
X0027400Y0191236D01*
X0027400Y0188838D02*
X0041500Y0188838D01*
X0041500Y0186439D02*
X0027400Y0186439D01*
X0027400Y0184041D02*
X0041500Y0184041D01*
X0041500Y0181642D02*
X0027400Y0181642D01*
X0027400Y0179244D02*
X0041500Y0179244D01*
X0041500Y0176845D02*
X0027400Y0176845D01*
X0027400Y0174447D02*
X0041500Y0174447D01*
X0041500Y0172048D02*
X0027400Y0172048D01*
X0027400Y0169650D02*
X0041500Y0169650D01*
X0041500Y0167251D02*
X0027400Y0167251D01*
X0027400Y0164853D02*
X0041500Y0164853D01*
X0041500Y0162454D02*
X0027400Y0162454D01*
X0027400Y0160056D02*
X0041500Y0160056D01*
X0041500Y0157657D02*
X0027400Y0157657D01*
X0027400Y0155259D02*
X0041500Y0155259D01*
X0041500Y0152860D02*
X0027400Y0152860D01*
X0027400Y0150462D02*
X0041500Y0150462D01*
X0041500Y0148063D02*
X0027400Y0148063D01*
X0027400Y0145665D02*
X0041500Y0145665D01*
X0041500Y0143266D02*
X0027400Y0143266D01*
X0027400Y0140868D02*
X0041500Y0140868D01*
X0041500Y0138469D02*
X0027400Y0138469D01*
X0027400Y0136071D02*
X0041500Y0136071D01*
X0041500Y0133672D02*
X0027400Y0133672D01*
X0027400Y0131274D02*
X0041500Y0131274D01*
X0041500Y0128875D02*
X0027400Y0128875D01*
X0027400Y0126477D02*
X0041500Y0126477D01*
X0042567Y0124078D02*
X0027400Y0124078D01*
X0027400Y0121680D02*
X0038056Y0121680D01*
X0035053Y0119281D02*
X0027400Y0119281D01*
X0027400Y0116882D02*
X0033709Y0116882D01*
X0033063Y0114484D02*
X0027400Y0114484D01*
X0027400Y0112085D02*
X0033063Y0112085D01*
X0033892Y0109687D02*
X0027400Y0109687D01*
X0027400Y0107288D02*
X0035496Y0107288D01*
X0039126Y0104890D02*
X0027400Y0104890D01*
X0052200Y0123506D02*
X0072200Y0123506D01*
X0072200Y0133506D01*
X0097200Y0133506D01*
X0102200Y0138506D01*
X0108630Y0128875D02*
X0110400Y0128875D01*
X0110400Y0126477D02*
X0106231Y0126477D01*
X0042200Y0208026D02*
X0042200Y0208026D01*
X0042200Y0210424D02*
X0042200Y0210424D01*
X0042200Y0212823D02*
X0042200Y0212823D01*
X0042200Y0213506D02*
X0042200Y0220706D01*
X0042200Y0213506D01*
X0042200Y0213506D01*
X0042200Y0215221D02*
X0042200Y0215221D01*
X0042200Y0217620D02*
X0042200Y0217620D01*
X0042200Y0220018D02*
X0042200Y0220018D01*
X0045870Y0220018D02*
X0055500Y0220018D01*
X0055500Y0222417D02*
X0027400Y0222417D01*
X0027400Y0224815D02*
X0055500Y0224815D01*
X0055500Y0227214D02*
X0027400Y0227214D01*
X0027400Y0220018D02*
X0038530Y0220018D01*
X0036131Y0217620D02*
X0027400Y0217620D01*
X0027400Y0215221D02*
X0035000Y0215221D01*
X0035000Y0212823D02*
X0027400Y0212823D01*
X0027400Y0210424D02*
X0035100Y0210424D01*
X0037498Y0208026D02*
X0027400Y0208026D01*
X0082200Y0230506D02*
X0090200Y0238506D01*
X0094749Y0246402D02*
X0099035Y0246402D01*
X0104200Y0238506D02*
X0112200Y0230506D01*
X0165380Y0270387D02*
X0190400Y0270387D01*
X0189440Y0263192D02*
X0177576Y0263192D01*
X0179974Y0260793D02*
X0188400Y0260793D01*
X0188400Y0258395D02*
X0182373Y0258395D01*
X0184771Y0255996D02*
X0188400Y0255996D01*
X0187170Y0253598D02*
X0189664Y0253598D01*
X0189568Y0251199D02*
X0192062Y0251199D01*
X0195327Y0224815D02*
X0186356Y0224815D01*
X0202200Y0220018D02*
X0202200Y0220018D01*
X0202200Y0217620D02*
X0202200Y0217620D01*
X0202200Y0215221D02*
X0202200Y0215221D01*
X0209073Y0224815D02*
X0226830Y0224815D01*
X0257200Y0217620D02*
X0257200Y0217620D01*
X0257200Y0215221D02*
X0257200Y0215221D01*
X0257200Y0212823D02*
X0257200Y0212823D01*
X0287200Y0218506D02*
X0287200Y0228506D01*
X0307200Y0243506D02*
X0307200Y0248506D01*
X0301043Y0258395D02*
X0300708Y0258395D01*
X0309224Y0260793D02*
X0310787Y0260793D01*
X0312200Y0278506D02*
X0312200Y0286006D01*
X0296919Y0296771D02*
X0284566Y0296771D01*
X0269834Y0296771D02*
X0257481Y0296771D01*
X0259751Y0294372D02*
X0266538Y0294372D01*
X0265095Y0291974D02*
X0260744Y0291974D01*
X0261000Y0289575D02*
X0264400Y0289575D01*
X0264400Y0287177D02*
X0261000Y0287177D01*
X0261000Y0284778D02*
X0265203Y0284778D01*
X0265263Y0282380D02*
X0261000Y0282380D01*
X0260721Y0279981D02*
X0264400Y0279981D01*
X0264400Y0277583D02*
X0259727Y0277583D01*
X0260139Y0275184D02*
X0265035Y0275184D01*
X0266393Y0272786D02*
X0262537Y0272786D01*
X0264936Y0270387D02*
X0269483Y0270387D01*
X0270400Y0267989D02*
X0267334Y0267989D01*
X0269733Y0265590D02*
X0270400Y0265590D01*
X0357154Y0234410D02*
X0381680Y0234410D01*
X0379282Y0236808D02*
X0359553Y0236808D01*
X0361951Y0239207D02*
X0376883Y0239207D01*
X0374485Y0241605D02*
X0363340Y0241605D01*
X0357746Y0232011D02*
X0384079Y0232011D01*
X0386477Y0229613D02*
X0360145Y0229613D01*
X0362543Y0227214D02*
X0388876Y0227214D01*
X0391274Y0224815D02*
X0363585Y0224815D01*
X0365734Y0222417D02*
X0393673Y0222417D01*
X0396071Y0220018D02*
X0366000Y0220018D01*
X0366000Y0217620D02*
X0398470Y0217620D01*
X0400868Y0215221D02*
X0366000Y0215221D01*
X0450842Y0272786D02*
X0460701Y0272786D01*
X0460701Y0275184D02*
X0457849Y0275184D01*
X0430573Y0306365D02*
X0058827Y0306365D01*
X0060618Y0303966D02*
X0101487Y0303966D01*
X0098201Y0301568D02*
X0061611Y0301568D01*
X0062605Y0299169D02*
X0095802Y0299169D01*
X0093404Y0296771D02*
X0087795Y0296771D01*
X0090193Y0294372D02*
X0091803Y0294372D01*
X0082200Y0294372D02*
X0082200Y0294372D01*
X0082200Y0291974D02*
X0082200Y0291974D01*
X0082200Y0289575D02*
X0082200Y0289575D01*
X0082200Y0287177D02*
X0082200Y0287177D01*
X0082200Y0284778D02*
X0082200Y0284778D01*
X0082200Y0282380D02*
X0082200Y0282380D01*
X0082200Y0279981D02*
X0082200Y0279981D01*
X0076866Y0279981D02*
X0058315Y0279981D01*
X0060156Y0282380D02*
X0074467Y0282380D01*
X0072400Y0284778D02*
X0061335Y0284778D01*
X0062329Y0287177D02*
X0072400Y0287177D01*
X0072400Y0289575D02*
X0062882Y0289575D01*
X0063198Y0291974D02*
X0072400Y0291974D01*
X0074207Y0294372D02*
X0063286Y0294372D01*
X0062970Y0296771D02*
X0076605Y0296771D01*
X0082200Y0296771D02*
X0082200Y0296771D01*
X0089933Y0282380D02*
X0091500Y0282380D01*
X0092664Y0279981D02*
X0087534Y0279981D01*
X0095063Y0277583D02*
X0055975Y0277583D01*
X0052849Y0275184D02*
X0097461Y0275184D01*
X0102200Y0288506D02*
X0128700Y0288506D01*
D21*
X0134200Y0288194D02*
X0097200Y0288194D01*
X0097200Y0289192D02*
X0134200Y0289192D01*
X0134200Y0290191D02*
X0097200Y0290191D01*
X0097200Y0291189D02*
X0134200Y0291189D01*
X0134200Y0292188D02*
X0097200Y0292188D01*
X0097200Y0292506D02*
X0103200Y0298506D01*
X0132200Y0298506D01*
X0134200Y0296506D01*
X0134200Y0280506D01*
X0132200Y0278506D01*
X0102200Y0278506D01*
X0097200Y0283506D01*
X0097200Y0292506D01*
X0097880Y0293186D02*
X0134200Y0293186D01*
X0134200Y0294185D02*
X0098878Y0294185D01*
X0099877Y0295183D02*
X0134200Y0295183D01*
X0134200Y0296182D02*
X0100875Y0296182D01*
X0101874Y0297180D02*
X0133526Y0297180D01*
X0132528Y0298179D02*
X0102872Y0298179D01*
X0097200Y0287195D02*
X0134200Y0287195D01*
X0134200Y0286197D02*
X0097200Y0286197D01*
X0097200Y0285198D02*
X0134200Y0285198D01*
X0134200Y0284200D02*
X0097200Y0284200D01*
X0097505Y0283201D02*
X0134200Y0283201D01*
X0134200Y0282203D02*
X0098504Y0282203D01*
X0099502Y0281204D02*
X0134200Y0281204D01*
X0133899Y0280206D02*
X0100501Y0280206D01*
X0101499Y0279207D02*
X0132901Y0279207D01*
X0142200Y0279207D02*
X0152200Y0279207D01*
X0152200Y0278209D02*
X0142200Y0278209D01*
X0142200Y0277210D02*
X0152200Y0277210D01*
X0152200Y0276212D02*
X0142200Y0276212D01*
X0142200Y0275213D02*
X0152493Y0275213D01*
X0152200Y0275506D02*
X0165200Y0262506D01*
X0170200Y0262506D01*
X0189200Y0243506D01*
X0233200Y0243506D01*
X0238200Y0238506D01*
X0238200Y0232506D01*
X0235200Y0229506D01*
X0230200Y0229506D01*
X0227200Y0232506D01*
X0187200Y0232506D01*
X0185200Y0230506D01*
X0166200Y0230506D01*
X0158200Y0238506D01*
X0158200Y0250506D01*
X0142200Y0266506D01*
X0142200Y0292506D01*
X0144200Y0294506D01*
X0150200Y0294506D01*
X0152200Y0292506D01*
X0152200Y0275506D01*
X0153492Y0274215D02*
X0142200Y0274215D01*
X0142200Y0273216D02*
X0154490Y0273216D01*
X0155489Y0272217D02*
X0142200Y0272217D01*
X0142200Y0271219D02*
X0156487Y0271219D01*
X0157486Y0270220D02*
X0142200Y0270220D01*
X0142200Y0269222D02*
X0158484Y0269222D01*
X0159483Y0268223D02*
X0142200Y0268223D01*
X0142200Y0267225D02*
X0160481Y0267225D01*
X0161480Y0266226D02*
X0142480Y0266226D01*
X0143478Y0265228D02*
X0162478Y0265228D01*
X0163477Y0264229D02*
X0144477Y0264229D01*
X0145475Y0263231D02*
X0164475Y0263231D01*
X0170474Y0262232D02*
X0146474Y0262232D01*
X0147472Y0261234D02*
X0171472Y0261234D01*
X0172471Y0260235D02*
X0148471Y0260235D01*
X0149469Y0259237D02*
X0173469Y0259237D01*
X0174468Y0258238D02*
X0150468Y0258238D01*
X0151466Y0257240D02*
X0175466Y0257240D01*
X0176465Y0256241D02*
X0152465Y0256241D01*
X0153463Y0255243D02*
X0177463Y0255243D01*
X0178462Y0254244D02*
X0154462Y0254244D01*
X0155461Y0253246D02*
X0179461Y0253246D01*
X0180459Y0252247D02*
X0156459Y0252247D01*
X0157458Y0251249D02*
X0181458Y0251249D01*
X0182456Y0250250D02*
X0158200Y0250250D01*
X0158200Y0249252D02*
X0183455Y0249252D01*
X0184453Y0248253D02*
X0158200Y0248253D01*
X0158200Y0247255D02*
X0185452Y0247255D01*
X0186450Y0246256D02*
X0158200Y0246256D01*
X0158200Y0245258D02*
X0187449Y0245258D01*
X0188447Y0244259D02*
X0158200Y0244259D01*
X0158200Y0243261D02*
X0233446Y0243261D01*
X0234444Y0242262D02*
X0158200Y0242262D01*
X0158200Y0241264D02*
X0235443Y0241264D01*
X0236441Y0240265D02*
X0158200Y0240265D01*
X0158200Y0239267D02*
X0237440Y0239267D01*
X0238200Y0238268D02*
X0158438Y0238268D01*
X0159437Y0237270D02*
X0238200Y0237270D01*
X0238200Y0236271D02*
X0160435Y0236271D01*
X0161434Y0235273D02*
X0238200Y0235273D01*
X0238200Y0234274D02*
X0162432Y0234274D01*
X0163431Y0233276D02*
X0238200Y0233276D01*
X0237971Y0232277D02*
X0227429Y0232277D01*
X0228428Y0231279D02*
X0236972Y0231279D01*
X0235974Y0230280D02*
X0229426Y0230280D01*
X0186971Y0232277D02*
X0164429Y0232277D01*
X0165428Y0231279D02*
X0185972Y0231279D01*
X0130200Y0231279D02*
X0101200Y0231279D01*
X0101200Y0232277D02*
X0130200Y0232277D01*
X0130200Y0233276D02*
X0101200Y0233276D01*
X0101200Y0234274D02*
X0130200Y0234274D01*
X0130200Y0234506D02*
X0130200Y0210506D01*
X0128200Y0208506D01*
X0108200Y0208506D01*
X0101200Y0215506D01*
X0101200Y0240506D01*
X0103200Y0242506D01*
X0122200Y0242506D01*
X0130200Y0234506D01*
X0129434Y0235273D02*
X0101200Y0235273D01*
X0101200Y0236271D02*
X0128435Y0236271D01*
X0127437Y0237270D02*
X0101200Y0237270D01*
X0101200Y0238268D02*
X0126438Y0238268D01*
X0125440Y0239267D02*
X0101200Y0239267D01*
X0101200Y0240265D02*
X0124441Y0240265D01*
X0123443Y0241264D02*
X0101957Y0241264D01*
X0102956Y0242262D02*
X0122444Y0242262D01*
X0130200Y0230280D02*
X0101200Y0230280D01*
X0101200Y0229282D02*
X0130200Y0229282D01*
X0130200Y0228283D02*
X0101200Y0228283D01*
X0101200Y0227284D02*
X0130200Y0227284D01*
X0130200Y0226286D02*
X0101200Y0226286D01*
X0101200Y0225287D02*
X0130200Y0225287D01*
X0130200Y0224289D02*
X0101200Y0224289D01*
X0101200Y0223290D02*
X0130200Y0223290D01*
X0130200Y0222292D02*
X0101200Y0222292D01*
X0101200Y0221293D02*
X0130200Y0221293D01*
X0130200Y0220295D02*
X0101200Y0220295D01*
X0101200Y0219296D02*
X0130200Y0219296D01*
X0130200Y0218298D02*
X0101200Y0218298D01*
X0101200Y0217299D02*
X0130200Y0217299D01*
X0130200Y0216301D02*
X0101200Y0216301D01*
X0101404Y0215302D02*
X0130200Y0215302D01*
X0130200Y0214304D02*
X0102402Y0214304D01*
X0103401Y0213305D02*
X0130200Y0213305D01*
X0130200Y0212307D02*
X0104399Y0212307D01*
X0105398Y0211308D02*
X0130200Y0211308D01*
X0130003Y0210310D02*
X0106397Y0210310D01*
X0107395Y0209311D02*
X0129005Y0209311D01*
X0093200Y0214506D02*
X0086200Y0207506D01*
X0070200Y0207506D01*
X0053200Y0190506D01*
X0053200Y0129506D01*
X0056200Y0126506D01*
X0066200Y0126506D01*
X0069200Y0129506D01*
X0069200Y0134506D01*
X0077200Y0142506D01*
X0103200Y0142506D01*
X0105200Y0140506D01*
X0105200Y0133506D01*
X0093200Y0121506D01*
X0084933Y0121506D01*
X0083878Y0121943D01*
X0080522Y0121943D01*
X0079467Y0121506D01*
X0053200Y0121506D01*
X0047200Y0127506D01*
X0047200Y0199506D01*
X0061200Y0213506D01*
X0061200Y0239506D01*
X0064200Y0242506D01*
X0090200Y0242506D01*
X0093200Y0239506D01*
X0093200Y0214506D01*
X0092998Y0214304D02*
X0061200Y0214304D01*
X0061200Y0215302D02*
X0093200Y0215302D01*
X0093200Y0216301D02*
X0061200Y0216301D01*
X0061200Y0217299D02*
X0093200Y0217299D01*
X0093200Y0218298D02*
X0061200Y0218298D01*
X0061200Y0219296D02*
X0093200Y0219296D01*
X0093200Y0220295D02*
X0061200Y0220295D01*
X0061200Y0221293D02*
X0093200Y0221293D01*
X0093200Y0222292D02*
X0061200Y0222292D01*
X0061200Y0223290D02*
X0093200Y0223290D01*
X0093200Y0224289D02*
X0061200Y0224289D01*
X0061200Y0225287D02*
X0093200Y0225287D01*
X0093200Y0226286D02*
X0061200Y0226286D01*
X0061200Y0227284D02*
X0093200Y0227284D01*
X0093200Y0228283D02*
X0061200Y0228283D01*
X0061200Y0229282D02*
X0093200Y0229282D01*
X0093200Y0230280D02*
X0061200Y0230280D01*
X0061200Y0231279D02*
X0093200Y0231279D01*
X0093200Y0232277D02*
X0061200Y0232277D01*
X0061200Y0233276D02*
X0093200Y0233276D01*
X0093200Y0234274D02*
X0061200Y0234274D01*
X0061200Y0235273D02*
X0093200Y0235273D01*
X0093200Y0236271D02*
X0061200Y0236271D01*
X0061200Y0237270D02*
X0093200Y0237270D01*
X0093200Y0238268D02*
X0061200Y0238268D01*
X0061200Y0239267D02*
X0093200Y0239267D01*
X0092441Y0240265D02*
X0061959Y0240265D01*
X0062957Y0241264D02*
X0091443Y0241264D01*
X0090444Y0242262D02*
X0063956Y0242262D01*
X0060999Y0213305D02*
X0091999Y0213305D01*
X0091001Y0212307D02*
X0060001Y0212307D01*
X0059002Y0211308D02*
X0090002Y0211308D01*
X0089003Y0210310D02*
X0058003Y0210310D01*
X0057005Y0209311D02*
X0088005Y0209311D01*
X0087006Y0208313D02*
X0056006Y0208313D01*
X0055008Y0207314D02*
X0070008Y0207314D01*
X0069009Y0206316D02*
X0054009Y0206316D01*
X0053011Y0205317D02*
X0068011Y0205317D01*
X0067012Y0204319D02*
X0052012Y0204319D01*
X0051014Y0203320D02*
X0066014Y0203320D01*
X0065015Y0202322D02*
X0050015Y0202322D01*
X0049017Y0201323D02*
X0064017Y0201323D01*
X0063018Y0200325D02*
X0048018Y0200325D01*
X0047200Y0199326D02*
X0062020Y0199326D01*
X0061021Y0198328D02*
X0047200Y0198328D01*
X0047200Y0197329D02*
X0060023Y0197329D01*
X0059024Y0196331D02*
X0047200Y0196331D01*
X0047200Y0195332D02*
X0058026Y0195332D01*
X0057027Y0194334D02*
X0047200Y0194334D01*
X0047200Y0193335D02*
X0056029Y0193335D01*
X0055030Y0192337D02*
X0047200Y0192337D01*
X0047200Y0191338D02*
X0054032Y0191338D01*
X0053200Y0190340D02*
X0047200Y0190340D01*
X0047200Y0189341D02*
X0053200Y0189341D01*
X0053200Y0188343D02*
X0047200Y0188343D01*
X0047200Y0187344D02*
X0053200Y0187344D01*
X0053200Y0186346D02*
X0047200Y0186346D01*
X0047200Y0185347D02*
X0053200Y0185347D01*
X0053200Y0184348D02*
X0047200Y0184348D01*
X0047200Y0183350D02*
X0053200Y0183350D01*
X0053200Y0182351D02*
X0047200Y0182351D01*
X0047200Y0181353D02*
X0053200Y0181353D01*
X0053200Y0180354D02*
X0047200Y0180354D01*
X0047200Y0179356D02*
X0053200Y0179356D01*
X0053200Y0178357D02*
X0047200Y0178357D01*
X0047200Y0177359D02*
X0053200Y0177359D01*
X0053200Y0176360D02*
X0047200Y0176360D01*
X0047200Y0175362D02*
X0053200Y0175362D01*
X0053200Y0174363D02*
X0047200Y0174363D01*
X0047200Y0173365D02*
X0053200Y0173365D01*
X0053200Y0172366D02*
X0047200Y0172366D01*
X0047200Y0171368D02*
X0053200Y0171368D01*
X0053200Y0170369D02*
X0047200Y0170369D01*
X0047200Y0169371D02*
X0053200Y0169371D01*
X0053200Y0168372D02*
X0047200Y0168372D01*
X0047200Y0167374D02*
X0053200Y0167374D01*
X0053200Y0166375D02*
X0047200Y0166375D01*
X0047200Y0165377D02*
X0053200Y0165377D01*
X0053200Y0164378D02*
X0047200Y0164378D01*
X0047200Y0163380D02*
X0053200Y0163380D01*
X0053200Y0162381D02*
X0047200Y0162381D01*
X0047200Y0161383D02*
X0053200Y0161383D01*
X0053200Y0160384D02*
X0047200Y0160384D01*
X0047200Y0159386D02*
X0053200Y0159386D01*
X0053200Y0158387D02*
X0047200Y0158387D01*
X0047200Y0157389D02*
X0053200Y0157389D01*
X0053200Y0156390D02*
X0047200Y0156390D01*
X0047200Y0155392D02*
X0053200Y0155392D01*
X0053200Y0154393D02*
X0047200Y0154393D01*
X0047200Y0153395D02*
X0053200Y0153395D01*
X0053200Y0152396D02*
X0047200Y0152396D01*
X0047200Y0151398D02*
X0053200Y0151398D01*
X0053200Y0150399D02*
X0047200Y0150399D01*
X0047200Y0149401D02*
X0053200Y0149401D01*
X0053200Y0148402D02*
X0047200Y0148402D01*
X0047200Y0147404D02*
X0053200Y0147404D01*
X0053200Y0146405D02*
X0047200Y0146405D01*
X0047200Y0145407D02*
X0053200Y0145407D01*
X0053200Y0144408D02*
X0047200Y0144408D01*
X0047200Y0143410D02*
X0053200Y0143410D01*
X0053200Y0142411D02*
X0047200Y0142411D01*
X0047200Y0141413D02*
X0053200Y0141413D01*
X0053200Y0140414D02*
X0047200Y0140414D01*
X0047200Y0139415D02*
X0053200Y0139415D01*
X0053200Y0138417D02*
X0047200Y0138417D01*
X0047200Y0137418D02*
X0053200Y0137418D01*
X0053200Y0136420D02*
X0047200Y0136420D01*
X0047200Y0135421D02*
X0053200Y0135421D01*
X0053200Y0134423D02*
X0047200Y0134423D01*
X0047200Y0133424D02*
X0053200Y0133424D01*
X0053200Y0132426D02*
X0047200Y0132426D01*
X0047200Y0131427D02*
X0053200Y0131427D01*
X0053200Y0130429D02*
X0047200Y0130429D01*
X0047200Y0129430D02*
X0053276Y0129430D01*
X0054274Y0128432D02*
X0047200Y0128432D01*
X0047273Y0127433D02*
X0055273Y0127433D01*
X0051267Y0123439D02*
X0095133Y0123439D01*
X0094134Y0122441D02*
X0052266Y0122441D01*
X0050268Y0124438D02*
X0096132Y0124438D01*
X0097130Y0125436D02*
X0049270Y0125436D01*
X0048271Y0126435D02*
X0098129Y0126435D01*
X0099127Y0127433D02*
X0067127Y0127433D01*
X0068126Y0128432D02*
X0100126Y0128432D01*
X0101124Y0129430D02*
X0069124Y0129430D01*
X0069200Y0130429D02*
X0102123Y0130429D01*
X0103121Y0131427D02*
X0069200Y0131427D01*
X0069200Y0132426D02*
X0104120Y0132426D01*
X0105118Y0133424D02*
X0069200Y0133424D01*
X0069200Y0134423D02*
X0105200Y0134423D01*
X0105200Y0135421D02*
X0070115Y0135421D01*
X0071114Y0136420D02*
X0105200Y0136420D01*
X0105200Y0137418D02*
X0072112Y0137418D01*
X0073111Y0138417D02*
X0105200Y0138417D01*
X0105200Y0139415D02*
X0074109Y0139415D01*
X0075108Y0140414D02*
X0105200Y0140414D01*
X0104294Y0141413D02*
X0076106Y0141413D01*
X0077105Y0142411D02*
X0103295Y0142411D01*
X0174200Y0138506D02*
X0174200Y0106506D01*
X0184200Y0096506D01*
X0210200Y0096506D01*
X0241200Y0127506D01*
X0241200Y0138506D01*
X0238200Y0141506D01*
X0177200Y0141506D01*
X0174200Y0138506D01*
X0174200Y0138417D02*
X0241200Y0138417D01*
X0241200Y0137418D02*
X0174200Y0137418D01*
X0174200Y0136420D02*
X0241200Y0136420D01*
X0241200Y0135421D02*
X0174200Y0135421D01*
X0174200Y0134423D02*
X0241200Y0134423D01*
X0241200Y0133424D02*
X0174200Y0133424D01*
X0174200Y0132426D02*
X0241200Y0132426D01*
X0241200Y0131427D02*
X0174200Y0131427D01*
X0174200Y0130429D02*
X0241200Y0130429D01*
X0241200Y0129430D02*
X0174200Y0129430D01*
X0174200Y0128432D02*
X0241200Y0128432D01*
X0241127Y0127433D02*
X0174200Y0127433D01*
X0174200Y0126435D02*
X0240129Y0126435D01*
X0239130Y0125436D02*
X0174200Y0125436D01*
X0174200Y0124438D02*
X0238132Y0124438D01*
X0237133Y0123439D02*
X0174200Y0123439D01*
X0174200Y0122441D02*
X0236134Y0122441D01*
X0235136Y0121442D02*
X0174200Y0121442D01*
X0174200Y0120444D02*
X0234137Y0120444D01*
X0233139Y0119445D02*
X0174200Y0119445D01*
X0174200Y0118447D02*
X0232140Y0118447D01*
X0231142Y0117448D02*
X0174200Y0117448D01*
X0174200Y0116450D02*
X0230143Y0116450D01*
X0229145Y0115451D02*
X0174200Y0115451D01*
X0174200Y0114453D02*
X0228146Y0114453D01*
X0227148Y0113454D02*
X0174200Y0113454D01*
X0174200Y0112456D02*
X0226149Y0112456D01*
X0225151Y0111457D02*
X0174200Y0111457D01*
X0174200Y0110459D02*
X0224152Y0110459D01*
X0223154Y0109460D02*
X0174200Y0109460D01*
X0174200Y0108462D02*
X0222155Y0108462D01*
X0221157Y0107463D02*
X0174200Y0107463D01*
X0174242Y0106465D02*
X0220158Y0106465D01*
X0219160Y0105466D02*
X0175240Y0105466D01*
X0176239Y0104468D02*
X0218161Y0104468D01*
X0217163Y0103469D02*
X0177237Y0103469D01*
X0178236Y0102471D02*
X0216164Y0102471D01*
X0215166Y0101472D02*
X0179234Y0101472D01*
X0180233Y0100474D02*
X0214167Y0100474D01*
X0213169Y0099475D02*
X0181231Y0099475D01*
X0182230Y0098477D02*
X0212170Y0098477D01*
X0211172Y0097478D02*
X0183228Y0097478D01*
X0175109Y0139415D02*
X0240291Y0139415D01*
X0239292Y0140414D02*
X0176108Y0140414D01*
X0177106Y0141413D02*
X0238294Y0141413D01*
X0152200Y0280206D02*
X0142200Y0280206D01*
X0142200Y0281204D02*
X0152200Y0281204D01*
X0152200Y0282203D02*
X0142200Y0282203D01*
X0142200Y0283201D02*
X0152200Y0283201D01*
X0152200Y0284200D02*
X0142200Y0284200D01*
X0142200Y0285198D02*
X0152200Y0285198D01*
X0152200Y0286197D02*
X0142200Y0286197D01*
X0142200Y0287195D02*
X0152200Y0287195D01*
X0152200Y0288194D02*
X0142200Y0288194D01*
X0142200Y0289192D02*
X0152200Y0289192D01*
X0152200Y0290191D02*
X0142200Y0290191D01*
X0142200Y0291189D02*
X0152200Y0291189D01*
X0152200Y0292188D02*
X0142200Y0292188D01*
X0142880Y0293186D02*
X0151520Y0293186D01*
X0150522Y0294185D02*
X0143878Y0294185D01*
M02*
