%
M48
M72
T01C0.0320
T02C0.0354
T03C0.0360
T04C0.0440
T05C0.0472
T06C0.0710
T07C0.0787
T08C0.1260
%
T01
X10220Y13851
X13220Y13851
X9220Y16351
X9220Y17851
X11720Y17851
X11720Y16851
X14720Y16851
X14720Y17851
X14720Y18851
X14720Y19851
X11720Y19851
X11720Y18851
X11220Y21351
X12720Y23351
X10420Y23851
X9020Y23851
X6420Y23851
X5020Y23851
X4220Y21351
X7220Y21351
X8220Y21351
X6220Y17851
X6220Y16351
X16720Y23351
X20220Y23551
X20220Y22151
X23220Y21351
X23220Y23351
X25720Y24851
X26720Y24851
X27720Y24851
X28720Y24851
X29720Y24851
X30720Y24851
X31720Y24851
X32720Y24851
X35720Y24851
X35720Y21851
X32720Y21851
X31720Y21851
X30720Y21851
X29720Y21851
X28720Y21851
X27720Y21851
X26720Y21851
X25720Y21851
X27720Y19351
X27720Y16351
X26720Y13851
X23720Y13851
X20720Y13851
X17720Y13851
X17720Y14851
X20720Y16851
X33720Y16851
X33720Y15351
X35720Y15351
X35720Y16851
X35720Y18351
X33720Y18351
X38220Y17851
X38220Y14851
X35720Y13851
X33720Y13851
X19720Y25851
X21720Y26351
X19720Y28351
X19720Y29351
X23220Y28601
X24220Y28601
X25220Y28601
X24720Y26351
X30220Y28601
X31220Y28601
X32220Y28601
X35220Y28851
X35220Y27851
X16720Y25851
T02
X7220Y13351
X6220Y13351
X42720Y13351
X43720Y13351
T03
X31720Y14851
X30720Y14851
X30720Y15851
X31720Y15851
X31720Y16851
X30720Y16851
X30720Y17851
X31720Y17851
X27720Y27851
X27720Y28851
T04
X10220Y28851
X8220Y28851
T05
X11251Y9851
X13220Y9851
X15189Y9851
X18751Y9851
X20720Y9851
X22689Y9851
X26251Y9851
X28220Y9851
X30189Y9851
X33751Y9851
X35720Y9851
X37689Y9851
T06
X16570Y28851
X14720Y28851
X12870Y28851
T07
X8220Y11351
X4220Y11351
X40720Y11351
X44720Y11351
T08
X44720Y29351
X4220Y29351
M30
