%
M48
M72
T01C0.0320
T02C0.0354
T03C0.0360
T04C0.0400
T05C0.0440
T06C0.0472
T07C0.0787
T08C0.1260
%
T01
X11020Y13851
X14020Y13851
X12520Y16851
X12520Y17851
X12520Y18851
X12520Y19851
X12020Y21351
X12620Y23651
X11220Y23851
X9820Y23851
X7220Y23851
X5820Y23851
X5020Y21351
X8020Y21351
X9020Y21351
X10020Y17851
X10020Y16351
X7020Y16351
X7020Y17851
X15520Y17851
X15520Y18851
X15520Y19851
X15520Y16851
X20920Y14851
X20920Y13851
X22820Y13851
X24920Y15551
X26320Y16851
X24920Y18551
X22820Y16851
X26320Y13851
X31220Y13951
X31220Y15451
X31220Y16951
X31220Y18451
X33220Y18451
X33220Y16951
X33220Y15451
X33220Y13951
X35720Y14951
X35720Y17951
X33220Y21951
X30220Y21951
X29220Y21951
X28220Y21951
X27220Y21951
X26220Y21951
X25220Y21951
X24220Y21951
X23220Y21951
X21720Y21651
X19420Y22251
X19420Y23651
X21720Y23651
X23220Y24951
X24220Y24951
X25220Y24951
X26220Y24951
X27220Y24951
X28220Y24951
X29220Y24951
X30220Y24951
X33220Y24951
X32720Y27951
X32720Y28951
X29720Y28701
X28720Y28701
X27720Y28701
X22720Y28701
X21720Y28701
X20720Y28701
X19220Y26451
X16820Y26351
X16820Y28051
X16820Y29051
X13820Y26351
X16620Y23651
X22220Y26451
T02
X8020Y13351
X7020Y13351
T03
X25220Y27951
X25220Y28951
X28220Y17951
X29220Y17951
X29220Y16951
X28220Y16951
X28220Y15951
X29220Y15951
X29220Y14951
X28220Y14951
T04
X36220Y23051
X36220Y24051
T05
X12520Y28651
X10520Y28651
T06
X13151Y9851
X15120Y9851
X17089Y9851
X21951Y9851
X23920Y9851
X25889Y9851
X30551Y9851
X32520Y9851
X34489Y9851
T07
X9020Y11351
X5020Y11351
T08
X4220Y29451
X36620Y29451
M30
